{"glyphs":{"0":{"ha":1108,"x_min":68,"x_max":1039,"o":"m 1039 367 q 1019 241 1039 297 q 963 142 998 185 q 880 69 928 100 q 779 18 833 38 q 668 -11 726 -1 q 554 -20 610 -20 q 436 -10 495 -20 q 323 21 377 0 q 222 73 269 41 q 141 147 176 104 q 87 244 107 190 q 68 366 68 299 q 87 487 68 433 q 142 585 107 542 q 223 659 176 627 q 325 710 271 690 q 439 740 379 730 q 558 750 498 750 q 674 741 616 750 q 786 711 732 731 q 886 660 840 691 q 966 587 932 629 q 1019 490 1000 545 q 1039 367 1039 435 m 828 367 q 809 494 828 433 q 754 602 790 555 q 667 676 719 648 q 551 704 616 704 q 440 679 490 704 q 354 609 390 653 q 299 504 319 564 q 279 372 279 443 q 299 238 279 301 q 354 127 319 174 q 439 53 389 80 q 549 25 488 25 q 658 51 607 25 q 747 123 709 77 q 806 232 785 170 q 828 367 828 294 z "},"1":{"ha":550,"x_min":53,"x_max":514,"o":"m 514 25 l 514 0 l 53 0 l 53 25 q 116 32 92 26 q 155 47 140 38 q 175 70 169 57 q 183 97 181 83 l 183 635 q 175 663 181 650 q 154 685 168 675 q 115 699 139 694 q 53 704 90 704 l 53 729 l 383 729 l 383 121 q 388 83 383 101 q 406 53 392 66 q 446 33 420 40 q 514 25 471 25 z "},"2":{"ha":971,"x_min":58,"x_max":909,"o":"m 900 488 q 877 390 900 431 q 816 320 854 349 q 727 271 778 291 q 620 234 676 250 q 505 201 564 217 q 392 165 446 185 q 292 118 338 145 q 215 53 246 92 l 909 53 q 866 -5 884 28 q 838 -69 848 -39 q 818 -142 825 -105 l 786 -149 q 790 -124 789 -136 q 791 -103 791 -111 q 774 -48 791 -68 q 724 -17 757 -28 q 646 -3 692 -6 q 542 0 600 0 l 58 0 q 167 103 112 60 q 276 178 222 146 q 380 232 330 209 q 474 274 430 254 q 556 313 519 293 q 619 358 593 332 q 660 418 646 384 q 675 503 675 453 q 664 576 675 538 q 630 647 654 614 q 568 700 606 679 q 475 721 530 721 q 384 705 423 721 q 317 663 345 688 q 270 606 288 637 q 239 545 251 574 q 222 491 227 515 q 215 454 216 467 l 72 534 q 156 639 113 596 q 249 709 199 682 q 355 748 298 736 q 481 760 412 760 q 643 744 567 760 q 777 696 720 729 q 867 612 833 664 q 900 488 900 561 z "},"3":{"ha":1008,"x_min":28,"x_max":956,"o":"m 464 -260 q 332 -245 396 -260 q 211 -200 267 -230 q 107 -124 154 -170 q 28 -17 60 -78 l 201 66 q 230 -37 208 14 q 287 -129 252 -88 q 368 -194 321 -169 q 472 -218 415 -218 q 525 -213 495 -218 q 584 -194 554 -207 q 643 -162 614 -182 q 695 -114 672 -142 q 731 -47 718 -85 q 745 39 745 -9 q 734 120 745 85 q 704 181 723 155 q 660 225 685 208 q 605 253 634 242 q 545 268 576 263 q 482 272 513 272 l 349 272 l 349 339 l 482 339 q 568 354 532 339 q 628 393 604 368 q 664 450 652 417 q 676 518 676 482 q 661 596 676 561 q 618 657 645 632 q 554 697 591 683 q 473 711 517 711 q 404 701 439 711 q 336 669 368 690 q 276 615 303 648 q 229 538 248 583 l 113 623 q 181 676 144 652 q 264 718 219 701 q 362 744 309 734 q 478 753 416 753 q 572 747 524 753 q 666 730 621 742 q 751 700 711 719 q 822 655 791 682 q 869 593 852 629 q 886 514 886 558 q 872 440 886 473 q 835 382 858 407 q 785 339 812 357 q 730 311 757 321 q 820 280 779 301 q 891 227 861 258 q 938 153 921 195 q 956 58 956 111 q 933 -46 956 0 q 872 -127 910 -92 q 784 -188 834 -163 q 680 -229 734 -213 q 569 -252 625 -245 q 464 -260 513 -260 z "},"4":{"ha":929,"x_min":8,"x_max":871,"o":"m 871 -275 l 504 -275 l 504 -250 q 548 -245 530 -250 q 577 -231 566 -239 q 592 -210 587 -222 q 596 -184 596 -198 l 596 0 l 8 0 q 115 196 62 108 q 219 355 167 283 q 325 484 271 427 q 436 590 379 542 l 481 590 q 426 494 452 542 q 377 400 400 446 q 335 312 355 355 q 300 233 316 270 q 236 69 263 146 l 596 69 l 596 729 l 779 729 l 779 69 l 847 69 l 847 0 l 779 0 l 779 -183 q 783 -205 779 -193 q 797 -227 787 -216 q 825 -243 807 -237 q 871 -250 843 -250 l 871 -275 z "},"5":{"ha":991,"x_min":20,"x_max":947,"o":"m 947 66 q 927 -50 947 1 q 871 -137 906 -100 q 789 -199 836 -174 q 690 -239 743 -224 q 583 -260 637 -254 q 476 -267 528 -267 q 339 -253 408 -267 q 208 -211 270 -239 q 97 -141 146 -183 q 20 -41 47 -98 l 176 33 q 214 -59 189 -14 q 278 -141 240 -105 q 366 -200 317 -178 q 476 -222 416 -222 q 565 -207 518 -222 q 651 -159 612 -192 q 715 -73 690 -125 q 741 53 741 -21 q 724 167 741 117 q 675 252 708 217 q 593 306 642 288 q 476 325 543 325 q 409 320 442 325 q 345 306 376 315 q 284 286 313 297 q 230 264 255 275 q 118 203 171 237 l 221 729 l 873 729 q 853 671 860 702 q 842 614 846 641 q 838 570 839 588 q 838 549 838 551 l 814 545 q 779 618 804 590 q 720 663 754 647 q 648 685 686 679 q 572 690 609 690 l 393 690 l 334 347 q 404 367 370 361 q 476 372 437 372 q 637 359 567 372 q 760 323 707 346 q 848 270 812 300 q 906 206 884 240 q 938 136 928 172 q 947 66 947 100 z "},"6":{"ha":1046,"x_min":74,"x_max":975,"o":"m 975 334 q 957 223 975 273 q 906 134 938 173 q 830 65 873 94 q 737 18 787 37 q 633 -11 687 -1 q 528 -20 580 -20 q 421 -9 475 -20 q 316 23 367 1 q 222 82 266 46 q 145 172 178 119 q 93 295 112 224 q 74 456 74 366 q 109 683 74 582 q 208 854 144 783 q 360 962 271 924 q 558 1000 450 1000 q 680 992 627 1000 q 778 962 732 983 q 865 905 823 941 q 956 815 907 869 l 818 732 q 784 823 804 781 q 736 896 764 865 q 669 944 707 926 q 581 961 631 961 q 465 931 517 961 q 375 846 413 901 q 313 715 336 791 q 285 547 290 640 q 352 604 314 582 q 429 638 389 626 q 509 656 469 651 q 582 661 549 661 q 735 643 664 661 q 860 586 807 625 q 944 485 913 547 q 975 334 975 422 m 764 319 q 743 453 764 398 q 690 543 723 508 q 614 593 656 577 q 528 608 572 608 q 444 589 485 608 q 370 534 403 570 q 318 443 338 497 q 298 319 298 389 q 319 187 298 243 q 372 93 339 130 q 445 37 404 56 q 528 18 486 18 q 611 37 569 18 q 687 93 654 56 q 742 187 721 130 q 764 319 764 243 z "},"7":{"ha":800,"x_min":17,"x_max":800,"o":"m 800 729 l 800 677 q 561 228 665 458 q 385 -248 456 -3 l 172 -248 q 275 -6 223 -125 q 386 229 327 113 q 513 456 444 345 q 669 676 583 568 l 342 676 q 266 670 306 676 q 186 648 226 665 q 111 603 147 632 q 45 526 74 573 l 17 530 q 45 593 35 559 q 60 659 55 628 q 66 729 65 694 l 800 729 z "},"8":{"ha":1060,"x_min":65,"x_max":994,"o":"m 782 279 q 763 380 782 336 q 711 456 745 425 q 630 503 677 487 q 526 519 583 519 q 431 502 476 519 q 351 453 385 484 q 297 377 317 421 q 277 279 277 332 q 292 180 277 227 q 337 99 307 134 q 415 45 368 64 q 526 25 462 25 q 642 45 593 25 q 721 101 690 66 q 767 182 752 136 q 782 279 782 228 m 351 551 q 273 576 310 557 q 208 621 236 594 q 163 679 180 647 q 147 742 147 710 q 164 829 147 791 q 210 895 181 867 q 277 942 239 923 q 357 972 315 960 q 443 988 399 983 q 526 993 486 993 q 611 988 567 993 q 698 974 655 984 q 779 945 741 963 q 846 898 817 926 q 892 832 876 870 q 909 742 909 793 q 893 679 909 711 q 849 621 876 648 q 786 576 821 595 q 713 551 751 557 q 814 524 764 546 q 905 466 865 501 q 969 384 945 430 q 994 286 994 338 q 974 172 994 220 q 918 90 954 123 q 837 34 883 56 q 738 1 790 13 q 632 -15 686 -11 q 526 -20 577 -20 q 424 -14 477 -20 q 320 5 371 -9 q 222 41 269 18 q 141 97 176 63 q 86 178 106 131 q 65 286 65 224 q 91 385 65 338 q 159 466 117 431 q 251 524 200 502 q 351 551 302 547 m 526 947 q 451 933 485 947 q 394 893 418 919 q 356 833 370 868 q 343 755 343 798 q 355 677 343 713 q 391 615 368 642 q 448 573 414 589 q 526 558 482 558 q 609 573 574 558 q 668 614 644 588 q 703 676 691 640 q 714 755 714 713 q 701 835 714 800 q 664 896 688 871 q 605 934 640 920 q 526 947 570 947 z "},"9":{"ha":1021,"x_min":60,"x_max":961,"o":"m 60 400 q 78 510 60 460 q 129 600 97 560 q 205 668 161 639 q 298 715 248 696 q 401 744 347 734 q 507 753 455 753 q 614 743 560 753 q 719 710 668 732 q 813 651 769 687 q 890 562 857 614 q 942 438 923 509 q 961 278 961 368 q 926 51 961 152 q 827 -120 890 -50 q 674 -229 763 -191 q 476 -267 585 -267 q 355 -258 408 -267 q 257 -229 302 -250 q 170 -172 212 -208 q 79 -82 127 -136 l 216 1 q 250 -90 230 -48 q 299 -163 271 -132 q 366 -211 328 -193 q 454 -228 404 -228 q 570 -198 518 -228 q 660 -113 622 -168 q 721 18 698 -58 q 750 186 744 94 q 683 129 721 151 q 606 95 646 107 q 526 77 566 82 q 453 72 486 72 q 299 90 371 72 q 175 147 228 108 q 91 249 121 186 q 60 400 60 311 m 271 414 q 291 272 271 328 q 345 184 311 216 q 420 138 378 151 q 507 125 463 125 q 591 142 550 125 q 664 196 632 160 q 716 286 696 232 q 736 414 736 340 q 715 558 736 500 q 663 651 695 616 q 589 701 630 686 q 507 715 548 715 q 423 701 465 715 q 347 651 381 686 q 292 558 313 616 q 271 414 271 500 z "}," ":{"ha":347,"x_min":0,"x_max":0,"o":""},"G":{"ha":1164,"x_min":66,"x_max":1125,"o":"m 497 411 q 547 454 516 430 q 623 499 578 478 q 725 534 667 520 q 852 549 782 549 q 952 536 903 549 q 1039 496 1001 524 q 1101 424 1078 468 q 1125 315 1125 379 q 1103 217 1125 263 q 1041 132 1080 171 q 949 62 1002 93 q 835 10 896 31 q 709 -23 774 -12 q 578 -35 643 -35 q 441 -20 507 -35 q 319 21 376 -6 q 216 89 262 49 q 136 181 170 130 q 85 297 103 233 q 66 433 66 360 q 87 571 68 507 q 139 688 106 635 q 217 786 172 742 q 315 863 262 829 q 426 920 368 897 q 543 957 484 943 q 596 966 568 963 q 656 972 625 970 q 720 975 687 974 q 785 975 752 975 q 902 974 846 975 q 996 972 958 972 q 985 916 988 941 q 982 869 982 891 q 987 813 982 839 q 1000 757 991 787 l 970 755 q 917 832 949 799 q 845 887 884 865 q 761 920 806 909 q 673 930 717 930 q 547 907 602 930 q 450 846 492 884 q 379 758 408 808 q 333 655 351 709 q 307 549 315 602 q 298 452 298 496 q 325 282 298 360 q 398 148 351 205 q 508 60 444 92 q 646 28 571 28 q 739 40 699 28 q 807 73 779 53 q 856 120 836 94 q 886 176 875 147 q 902 233 897 204 q 907 285 907 261 q 894 359 907 324 q 857 421 881 395 q 797 463 832 448 q 715 478 761 478 q 642 468 675 478 q 582 444 608 457 q 537 416 555 430 q 511 395 519 401 l 497 411 z "},"H":{"ha":1234,"x_min":46,"x_max":1171,"o":"m 500 0 l 46 0 l 46 25 q 106 33 83 25 q 143 54 130 41 q 161 83 156 66 q 165 119 165 100 l 165 1135 q 160 1164 165 1148 q 142 1193 155 1179 q 106 1215 129 1206 q 46 1223 83 1223 l 46 1249 l 380 1249 l 380 901 q 433 939 404 921 q 498 970 463 957 q 576 992 534 984 q 668 1000 618 1000 q 790 987 729 1000 q 907 949 851 975 q 1011 885 963 923 q 1095 795 1059 846 q 1150 682 1130 745 q 1171 543 1171 618 q 1147 392 1171 461 q 1087 267 1124 323 q 1001 165 1049 210 q 903 85 953 120 q 635 -45 785 4 l 615 -28 q 774 105 704 23 q 832 185 804 140 q 883 287 861 231 q 919 411 905 343 q 933 558 933 478 q 912 730 933 656 q 852 853 890 804 q 763 927 814 903 q 650 951 711 951 q 546 932 595 951 q 462 877 498 913 q 404 791 426 842 q 380 677 382 741 l 380 119 q 385 90 380 106 q 402 59 389 73 q 438 35 414 45 q 500 25 461 25 l 500 0 z "},"I":{"ha":562,"x_min":54,"x_max":509,"o":"m 509 0 l 54 0 l 54 25 q 114 33 91 25 q 151 54 138 41 q 169 83 164 66 q 174 119 174 100 l 174 859 q 169 888 174 872 q 150 917 163 903 q 114 939 137 930 q 54 947 91 947 l 54 972 l 509 972 l 509 947 q 448 940 471 947 q 411 919 425 932 q 393 888 398 905 q 389 852 389 871 l 389 119 q 393 90 389 106 q 410 59 397 73 q 446 35 422 45 q 509 25 470 25 l 509 0 z "},"J":{"ha":539,"x_min":-39,"x_max":500,"o":"m 46 972 l 500 972 l 500 947 q 441 940 464 947 q 404 920 418 932 q 386 890 391 907 q 380 856 380 874 l 380 389 q 363 168 380 267 q 317 -9 345 69 q 252 -148 288 -87 q 177 -251 215 -208 q -26 -403 87 -353 l -39 -380 q 63 -240 18 -326 q 100 -157 82 -203 q 133 -52 119 -110 q 157 76 148 6 q 165 227 165 145 l 165 859 q 160 888 165 872 q 142 917 155 903 q 106 939 129 930 q 46 947 83 947 l 46 972 z "},"K":{"ha":1120,"x_min":46,"x_max":1153,"o":"m 500 0 l 46 0 l 46 25 q 105 32 82 25 q 142 52 128 39 q 160 81 155 64 q 165 115 165 97 l 165 1135 q 160 1164 165 1148 q 142 1193 155 1179 q 106 1215 129 1206 q 46 1223 83 1223 l 46 1249 l 380 1249 l 380 119 q 385 90 380 106 q 402 59 389 73 q 438 35 414 45 q 500 25 461 25 l 500 0 m 1153 8 q 1038 -26 1091 -17 q 942 -35 985 -35 q 827 -12 882 -35 q 723 50 772 12 q 630 136 673 87 q 547 236 586 185 q 474 338 508 288 q 410 428 439 388 q 555 557 487 488 q 615 621 585 587 q 672 693 645 655 q 723 771 700 730 q 761 852 746 811 q 763 859 762 856 q 764 867 764 863 q 757 893 764 879 q 736 920 751 907 q 698 940 722 932 q 642 947 675 947 l 642 972 l 1014 972 q 951 808 991 883 q 859 672 911 733 q 747 564 807 611 q 625 484 687 517 q 772 311 705 393 q 896 165 840 228 q 999 64 953 102 q 1080 26 1044 26 q 1107 28 1090 26 q 1143 39 1124 31 l 1153 8 z "},"L":{"ha":842,"x_min":46,"x_max":873,"o":"m 46 1249 l 380 1249 l 380 53 l 873 53 q 830 -5 848 28 q 802 -69 812 -39 q 782 -142 789 -105 l 750 -149 q 754 -124 753 -136 q 755 -102 755 -112 q 727 -35 755 -57 q 647 -6 699 -14 q 519 1 595 2 q 350 0 444 0 l 46 0 l 46 25 q 105 32 82 25 q 142 52 128 39 q 160 81 155 64 q 165 115 165 97 l 165 1135 q 160 1164 165 1148 q 142 1193 155 1179 q 106 1215 129 1206 q 46 1223 83 1223 l 46 1249 z "},"M":{"ha":1775,"x_min":69,"x_max":1708,"o":"m 768 517 q 764 624 768 570 q 749 725 760 677 q 722 815 739 774 q 681 888 705 857 q 624 937 656 919 q 549 954 591 954 q 440 919 488 954 q 359 826 393 884 q 307 691 325 767 q 289 532 289 614 q 309 366 289 440 q 359 233 329 292 q 426 132 390 175 q 493 60 462 88 q 548 16 525 31 q 574 0 570 1 l 314 0 q 278 27 301 6 q 228 81 256 48 q 173 159 201 115 q 121 256 144 203 q 84 369 98 309 q 69 493 69 429 q 76 585 69 532 q 102 694 83 638 q 154 804 121 750 q 238 901 187 859 q 360 970 289 944 q 528 997 431 997 q 643 985 591 997 q 737 952 695 973 q 812 904 779 932 q 869 844 844 876 q 929 904 895 876 q 1008 952 964 932 q 1110 985 1053 973 q 1236 997 1166 997 q 1401 976 1330 997 q 1526 919 1473 955 q 1613 837 1578 884 q 1669 740 1648 791 q 1699 638 1691 690 q 1708 541 1708 586 q 1683 385 1708 455 q 1616 259 1657 315 q 1525 159 1575 203 q 1425 84 1474 116 q 1332 32 1375 53 q 1263 0 1289 12 l 1203 0 q 1229 17 1206 1 q 1283 61 1251 32 q 1351 134 1315 90 q 1417 238 1387 178 q 1468 373 1448 298 q 1489 542 1489 449 q 1466 714 1489 637 q 1406 844 1444 791 q 1319 926 1369 897 q 1215 954 1270 954 q 1138 937 1172 954 q 1078 888 1104 919 q 1035 815 1053 857 q 1005 725 1017 774 q 988 624 994 677 q 983 517 983 570 l 983 0 l 768 0 l 768 517 z "},"N":{"ha":1135,"x_min":56,"x_max":1090,"o":"m 56 972 l 396 972 l 909 349 l 909 859 q 904 888 909 872 q 886 917 899 903 q 850 939 873 930 q 790 947 827 947 l 790 972 l 1090 972 l 1090 947 q 1030 940 1053 947 q 994 919 1007 932 q 976 888 981 905 q 971 852 971 871 l 971 0 l 909 0 l 236 812 l 236 119 q 240 90 236 106 q 257 59 245 73 q 293 35 270 45 q 355 25 317 25 l 355 0 l 56 0 l 56 25 q 116 33 92 25 q 152 54 139 41 q 170 83 165 66 q 175 119 175 100 l 175 886 q 145 916 159 905 q 118 935 132 928 q 89 945 104 942 q 56 947 74 947 l 56 972 z "},"O":{"ha":1194,"x_min":65,"x_max":1129,"o":"m 65 486 q 81 602 65 543 q 127 716 96 661 q 202 821 157 772 q 306 907 248 870 q 437 965 365 943 q 595 986 510 986 q 756 966 682 986 q 889 912 829 947 q 993 830 948 878 q 1068 727 1038 783 q 1114 610 1099 672 q 1129 486 1129 549 q 1114 366 1129 427 q 1068 248 1099 304 q 993 140 1038 191 q 889 53 948 90 q 756 -6 829 16 q 595 -28 682 -28 q 436 -6 509 -28 q 305 52 363 15 q 201 140 246 90 q 126 247 157 190 q 80 365 96 304 q 65 486 65 427 m 298 489 q 305 375 298 431 q 326 268 311 319 q 362 173 340 216 q 418 96 385 129 q 493 45 450 64 q 590 25 536 26 q 688 44 644 25 q 766 97 732 64 q 825 175 800 130 q 865 270 849 220 q 889 375 882 321 q 899 482 897 430 q 892 590 899 536 q 871 694 886 644 q 833 787 857 744 q 777 863 810 831 q 701 913 744 895 q 602 932 657 932 q 504 916 547 932 q 428 869 461 899 q 370 799 394 840 q 330 709 346 758 q 307 604 315 659 q 298 489 299 548 z "},"P":{"ha":1164,"x_min":46,"x_max":1096,"o":"m 1096 514 q 1057 307 1096 405 q 943 134 1017 209 q 760 16 868 60 q 515 -28 652 -28 q 447 -24 481 -28 q 380 -11 413 -20 l 380 -154 q 369 -189 380 -170 q 340 -230 358 -208 q 299 -278 322 -252 q 252 -332 276 -303 q 205 -392 228 -360 q 165 -458 183 -423 l 165 859 q 160 888 165 872 q 142 917 155 903 q 106 939 129 930 q 46 947 83 947 l 46 972 l 380 972 q 476 970 422 972 q 587 959 529 967 q 706 937 646 951 q 823 899 766 922 q 929 842 879 876 q 1016 761 979 808 q 1075 653 1053 714 q 1096 514 1096 592 m 873 463 q 850 623 873 554 q 786 741 826 691 q 695 825 747 791 q 590 879 644 858 q 480 909 535 899 q 380 922 426 919 l 380 53 q 463 25 418 32 q 549 18 508 18 q 662 39 612 18 q 747 93 711 59 q 807 173 783 127 q 846 267 831 218 q 867 367 861 317 q 873 463 873 417 z "},"Q":{"ha":1162,"x_min":68,"x_max":1118,"o":"m 1118 947 q 1058 939 1081 947 q 1022 917 1035 930 q 1004 888 1008 903 q 999 859 999 872 l 999 -154 q 988 -189 999 -170 q 958 -230 977 -208 q 917 -278 940 -252 q 870 -332 894 -303 q 823 -392 846 -360 q 783 -458 800 -423 l 783 -11 q 716 -24 751 -20 q 648 -28 682 -28 q 404 16 511 -28 q 221 134 296 60 q 107 307 146 209 q 68 514 68 405 q 89 653 68 592 q 148 761 111 714 q 235 842 185 808 q 341 899 285 876 q 458 937 397 922 q 576 959 518 951 q 688 970 635 967 q 783 972 741 972 l 1118 972 l 1118 947 m 615 18 q 700 25 655 18 q 783 53 745 32 l 783 922 q 683 909 737 919 q 574 879 629 899 q 468 825 519 858 q 377 741 417 791 q 314 623 338 691 q 290 463 290 554 q 297 367 290 417 q 318 267 303 317 q 357 173 332 218 q 417 93 381 127 q 502 39 453 59 q 615 18 551 18 z "},"R":{"ha":1067,"x_min":54,"x_max":1063,"o":"m 1063 8 q 951 -26 1001 -17 q 864 -35 902 -35 q 769 -9 817 -35 q 679 55 722 16 q 596 141 635 94 q 527 234 557 189 q 474 317 496 279 q 444 372 453 354 q 598 424 530 387 q 655 463 627 440 q 705 515 683 485 q 740 585 726 546 q 753 675 753 625 q 741 757 753 720 q 711 823 730 794 q 667 872 692 852 q 614 907 642 893 q 560 927 587 920 q 509 933 532 933 q 449 926 473 933 q 412 906 426 918 q 394 877 399 893 q 389 842 389 860 l 389 119 q 393 90 389 106 q 410 59 397 73 q 446 35 422 45 q 509 25 470 25 l 509 0 l 54 0 l 54 25 q 113 32 90 25 q 150 52 136 39 q 169 81 163 64 q 174 115 174 97 l 174 859 q 169 888 174 872 q 150 917 163 903 q 114 939 137 930 q 54 947 91 947 l 54 972 l 509 972 q 690 956 605 972 q 840 902 776 939 q 942 809 904 866 q 979 673 979 753 q 952 556 979 606 q 879 470 924 506 q 777 411 834 434 q 660 374 720 387 q 711 290 683 332 q 769 209 739 248 q 830 137 800 170 q 890 79 861 104 q 945 40 920 54 q 990 26 970 26 q 1016 28 1000 26 q 1053 39 1033 31 l 1063 8 z "},"S":{"ha":978,"x_min":71,"x_max":924,"o":"m 336 -18 q 234 -16 273 -18 q 169 -9 195 -13 q 126 -3 143 -5 q 93 0 110 0 q 104 56 100 31 q 107 103 107 81 q 102 160 107 134 q 89 215 96 186 l 119 216 q 176 138 138 174 q 261 76 214 102 q 359 36 308 50 q 456 21 410 21 q 557 40 511 21 q 636 91 603 59 q 688 162 669 122 q 707 245 707 203 q 685 322 707 292 q 628 369 664 351 q 547 395 593 387 q 453 410 501 404 q 375 419 417 414 q 290 435 332 425 q 208 464 247 446 q 138 510 168 482 q 89 578 107 538 q 71 673 71 618 q 96 788 71 739 q 164 872 122 837 q 262 929 207 907 q 375 965 317 952 q 490 984 433 979 q 595 989 547 989 q 672 986 636 989 q 740 980 709 983 q 797 975 770 977 q 844 972 823 972 q 834 916 837 941 q 831 868 831 891 q 836 813 831 839 q 848 757 840 787 l 818 755 q 798 805 807 781 q 775 851 788 829 q 742 890 762 872 q 693 921 723 908 q 619 942 663 935 q 513 949 575 949 q 431 934 471 949 q 360 893 391 919 q 311 830 330 867 q 292 751 292 794 q 306 688 292 714 q 342 643 319 661 q 392 613 364 625 q 449 595 420 602 q 502 586 477 589 q 545 582 528 583 q 617 574 576 579 q 700 557 658 568 q 782 528 742 546 q 854 480 823 509 q 905 410 886 451 q 924 313 924 369 q 898 185 924 239 q 829 95 873 132 q 728 36 786 58 q 605 2 670 14 q 470 -14 539 -10 q 336 -18 401 -18 z "},"T":{"ha":994,"x_min":1,"x_max":997,"o":"m 747 0 l 293 0 l 293 25 q 353 33 330 25 q 390 54 376 41 q 408 83 403 66 q 412 119 412 100 l 412 920 l 326 920 q 251 914 290 920 q 172 891 211 908 q 96 846 132 875 q 29 770 59 817 l 1 774 q 30 837 20 802 q 45 901 39 871 q 52 972 50 937 l 997 972 q 982 933 987 954 q 973 893 977 913 q 969 855 970 873 q 968 823 968 837 q 968 810 968 816 q 968 800 968 804 q 970 791 969 795 l 945 787 q 927 840 942 818 q 891 876 913 861 q 844 899 870 890 q 794 912 819 908 q 747 918 769 917 q 713 920 726 920 l 628 920 l 628 119 q 632 90 628 106 q 649 59 636 73 q 685 35 662 45 q 747 25 709 25 l 747 0 z "},"U":{"ha":1243,"x_min":64,"x_max":1189,"o":"m 734 972 l 1189 972 l 1189 947 q 1129 940 1152 947 q 1092 919 1105 932 q 1074 888 1079 905 q 1069 852 1069 871 l 1069 119 q 1074 90 1069 106 q 1091 59 1078 73 q 1127 35 1103 45 q 1189 25 1150 25 l 1189 0 l 854 0 l 854 102 q 801 52 830 75 q 736 11 772 28 q 659 -17 701 -7 q 567 -28 616 -28 q 445 -15 506 -28 q 328 24 384 -2 q 224 88 272 50 q 140 177 176 126 q 84 291 104 227 q 64 429 64 354 q 82 579 64 511 q 132 705 101 648 q 202 807 163 762 q 283 886 241 852 q 503 1017 380 968 l 521 1000 q 501 983 518 998 q 460 937 484 967 q 408 860 435 906 q 356 749 380 813 q 317 601 332 684 q 301 414 301 517 q 322 242 301 315 q 382 119 344 168 q 472 45 420 70 q 585 21 524 21 q 688 42 640 21 q 774 101 737 63 q 833 192 811 139 q 854 307 854 244 l 854 852 q 850 883 854 866 q 833 913 846 899 q 797 938 821 928 q 734 947 773 947 l 734 972 z "},"V":{"ha":1105,"x_min":-46,"x_max":1100,"o":"m -46 972 l 422 972 l 422 947 q 380 944 397 947 q 355 934 364 941 q 341 918 345 927 q 338 897 338 909 q 339 877 338 888 q 343 854 340 867 q 463 468 392 657 q 625 92 534 278 q 715 275 671 180 q 798 467 759 370 q 867 665 836 565 q 917 865 897 765 l 917 872 q 911 902 917 888 q 891 926 905 916 q 855 942 877 936 q 800 947 833 947 l 800 972 l 1100 972 q 1045 817 1076 898 q 978 652 1014 735 q 902 486 941 569 q 823 324 863 402 q 745 174 783 245 q 673 41 707 102 l 433 0 q 251 425 330 211 q 115 857 172 638 q 97 887 109 871 q 66 916 85 903 q 19 939 46 930 q -46 947 -9 947 l -46 972 z "},"W":{"ha":1541,"x_min":-43,"x_max":1531,"o":"m -43 972 l 411 972 l 411 947 q 368 944 385 947 q 341 933 351 940 q 328 917 332 926 q 323 896 323 907 l 323 890 q 373 701 347 792 q 430 516 400 610 q 491 321 459 422 q 558 103 524 220 q 625 299 597 208 q 675 470 654 391 q 710 620 696 550 q 736 751 725 689 l 711 852 q 695 883 707 867 q 665 914 684 900 q 618 938 646 928 q 551 947 590 947 l 551 972 l 1006 972 l 1006 947 q 962 944 979 947 q 936 933 945 940 q 922 917 926 926 q 918 896 918 907 l 918 888 q 962 699 940 790 q 1010 514 985 608 q 1063 320 1035 421 q 1125 103 1091 220 q 1209 345 1173 235 q 1272 549 1245 455 q 1316 721 1298 642 q 1348 869 1335 800 l 1348 872 q 1341 902 1348 888 q 1321 926 1335 916 q 1285 942 1308 936 q 1231 947 1263 947 l 1231 972 l 1531 972 q 1452 743 1495 861 q 1361 506 1409 625 q 1263 270 1313 387 q 1166 41 1214 153 l 940 0 q 858 277 895 146 q 789 533 821 408 q 697 283 745 407 q 600 41 650 160 l 374 0 q 303 227 337 119 q 236 439 269 336 q 174 645 204 543 q 118 852 144 747 l 117 852 q 101 883 112 867 q 71 914 90 900 q 24 938 52 928 q -43 947 -4 947 l -43 972 z "},"X":{"ha":1060,"x_min":-7,"x_max":1050,"o":"m 35 25 q 106 34 73 25 q 165 58 139 43 q 210 89 191 72 q 240 119 229 105 l 450 411 q 408 494 430 450 q 364 581 386 537 q 322 666 342 624 q 285 743 302 707 q 252 806 270 772 q 213 867 235 839 q 165 913 191 895 q 106 932 138 932 q 52 925 78 932 q 3 909 26 918 l -7 937 q 54 958 22 947 q 118 976 85 968 q 183 989 151 984 q 248 994 216 994 q 306 988 278 994 q 357 968 333 983 q 407 922 381 954 q 459 850 433 890 q 508 766 484 810 q 554 684 532 722 q 573 647 564 665 q 593 611 583 629 l 766 852 q 778 868 772 859 q 789 886 784 877 q 798 904 795 895 q 802 918 802 912 q 786 940 802 932 q 733 947 771 947 l 733 972 l 1048 972 l 1048 947 q 977 938 1010 947 q 918 914 944 928 q 872 883 891 900 q 843 852 853 867 l 625 549 q 670 460 648 505 q 719 369 693 415 q 772 274 744 322 q 835 174 801 225 q 867 129 850 150 q 904 91 885 107 q 941 64 922 74 q 978 54 960 54 q 1004 56 987 54 q 1040 66 1021 58 l 1050 36 q 939 2 988 11 q 851 -7 889 -7 q 799 -3 821 -7 q 761 6 777 1 q 730 20 743 12 q 673 64 701 37 q 621 123 646 92 q 574 188 595 155 q 536 249 553 221 q 514 288 528 261 q 482 349 500 314 l 307 107 q 289 78 296 92 q 282 54 282 64 q 297 33 282 41 q 350 25 312 25 l 350 0 l 35 0 l 35 25 z "},"Y":{"ha":1019,"x_min":-53,"x_max":1038,"o":"m 733 0 l 279 0 l 279 25 q 338 32 315 25 q 375 52 361 39 q 394 81 389 64 q 399 115 399 97 l 399 397 l 123 852 l 122 852 q 100 883 114 866 q 65 913 86 899 q 15 938 44 928 q -53 947 -14 947 l -53 972 l 415 972 l 415 947 q 354 937 370 947 q 338 908 338 926 q 343 882 338 896 q 357 852 349 867 l 597 471 q 715 642 660 549 q 821 852 770 736 q 832 895 832 877 q 811 932 832 918 q 737 947 789 947 l 737 972 l 1038 972 q 942 823 993 900 q 838 672 892 747 q 727 529 784 598 q 614 403 671 460 l 614 114 q 618 85 614 100 q 636 56 623 69 q 673 34 650 43 q 733 25 696 25 l 733 0 z "},"Z":{"ha":972,"x_min":40,"x_max":932,"o":"m 54 0 l 40 37 l 40 39 l 41 39 l 713 933 l 342 933 q 266 927 305 933 q 193 906 227 922 q 134 861 159 890 q 100 787 109 833 l 77 791 q 76 812 77 794 q 72 857 75 831 q 61 915 68 884 q 40 972 54 945 l 917 972 l 930 933 l 253 39 l 631 39 q 706 44 667 39 q 779 66 745 50 q 838 111 812 82 q 872 184 863 139 l 896 180 q 897 159 896 178 q 901 115 897 141 q 911 58 904 88 q 932 0 918 27 l 54 0 z "},"!":{"ha":397,"x_min":97,"x_max":309,"o":"m 250 307 q 236 293 250 302 q 204 276 222 285 q 171 258 187 267 q 151 243 155 249 l 104 972 l 290 972 l 250 307 m 97 85 q 105 126 97 106 q 128 159 114 145 q 162 182 142 174 q 203 191 181 191 q 244 182 224 191 q 277 159 263 174 q 300 126 292 145 q 309 85 309 106 q 300 44 309 63 q 277 10 292 24 q 244 -13 263 -4 q 203 -21 224 -21 q 162 -13 181 -21 q 128 10 142 -4 q 105 44 114 24 q 97 85 97 63 z "},"\"":{"ha":482,"x_min":68,"x_max":412,"o":"m 182 672 l 110 672 l 68 972 l 221 972 l 182 672 m 374 672 l 301 672 l 260 972 l 412 972 l 374 672 z "},"'":{"ha":290,"x_min":68,"x_max":221,"o":"m 182 672 l 110 672 l 68 972 l 221 972 l 182 672 z "},"-":{"ha":843,"x_min":109,"x_max":734,"o":"m 734 514 l 734 422 l 109 422 l 109 514 l 734 514 z "},"+":{"ha":734,"x_min":54,"x_max":681,"o":"m 279 422 l 54 422 l 54 514 l 279 514 l 279 781 l 454 781 l 454 514 l 681 514 l 681 422 l 454 422 l 454 154 l 279 154 l 279 422 z "},"−":{"ha":885,"x_min":129,"x_max":755,"o":"m 755 514 l 755 422 l 129 422 l 129 514 l 755 514 z "},".":{"ha":358,"x_min":74,"x_max":285,"o":"m 74 85 q 82 126 74 106 q 104 159 90 145 q 138 182 119 174 q 179 191 157 191 q 220 182 201 191 q 254 159 239 174 q 276 126 268 145 q 285 85 285 106 q 276 44 285 63 q 254 10 268 24 q 220 -13 239 -4 q 179 -21 201 -21 q 138 -13 157 -21 q 104 10 119 -4 q 82 44 90 24 q 74 85 74 63 z "},":":{"ha":393,"x_min":90,"x_max":301,"o":"m 90 85 q 99 126 90 106 q 121 159 107 145 q 155 182 136 174 q 196 191 174 191 q 237 182 218 191 q 271 159 256 174 q 293 126 285 145 q 301 85 301 106 q 293 44 301 63 q 271 10 285 24 q 237 -13 256 -4 q 196 -21 218 -21 q 155 -13 174 -21 q 121 10 136 -4 q 99 44 107 24 q 90 85 90 63 m 90 497 q 99 538 90 519 q 121 572 107 557 q 155 594 136 586 q 196 603 174 603 q 237 594 218 603 q 271 572 256 586 q 293 538 285 557 q 301 497 301 519 q 293 456 301 475 q 271 422 285 437 q 237 400 256 408 q 196 392 218 392 q 155 400 174 392 q 121 422 136 408 q 99 456 107 437 q 90 497 90 475 z "},",":{"ha":334,"x_min":58,"x_max":272,"o":"m 90 -134 q 112 -86 107 -111 q 112 -35 117 -61 q 93 18 107 -8 q 58 71 79 45 l 165 178 l 272 71 q 248 17 263 45 q 213 -40 233 -11 q 165 -98 192 -69 q 107 -153 139 -126 l 90 -134 z "},";":{"ha":389,"x_min":87,"x_max":301,"o":"m 119 -134 q 141 -86 136 -111 q 141 -35 146 -61 q 122 18 136 -8 q 87 71 109 45 l 195 178 l 301 71 q 277 17 292 45 q 242 -40 262 -11 q 195 -98 221 -69 q 136 -153 168 -126 l 119 -134 m 87 497 q 96 538 87 519 q 119 572 104 557 q 152 594 133 586 q 193 603 172 603 q 234 594 215 603 q 268 572 254 586 q 290 538 282 557 q 298 497 298 519 q 290 456 298 475 q 268 422 282 437 q 234 400 254 408 q 193 392 215 392 q 152 400 172 392 q 119 422 133 408 q 96 456 104 437 q 87 497 87 475 z "},"a":{"ha":978,"x_min":54,"x_max":936,"o":"m 472 758 q 565 747 523 758 q 641 721 608 736 q 697 688 673 705 q 736 656 722 670 q 781 685 757 672 q 831 708 806 699 q 881 723 856 718 q 928 729 905 728 l 936 707 q 887 671 909 696 q 853 614 869 650 q 836 518 838 577 q 836 446 836 484 q 835 373 836 409 q 834 303 835 336 q 834 245 834 271 q 833 203 833 219 q 833 184 833 187 q 849 89 833 125 q 883 31 864 52 q 933 -4 905 7 l 925 -26 q 854 -15 892 -25 q 780 14 816 -5 q 713 57 744 32 q 664 115 683 83 q 629 65 650 90 q 578 22 608 41 q 506 -9 547 3 q 411 -21 465 -21 q 256 11 323 -21 q 144 93 189 42 q 77 209 100 144 q 54 339 54 273 q 66 439 54 389 q 101 535 78 489 q 160 623 125 582 q 241 693 195 663 q 345 741 288 724 q 472 758 403 758 m 475 50 q 553 72 522 50 q 603 125 585 94 q 631 191 622 156 q 643 252 640 225 l 648 509 q 643 543 647 523 q 632 585 640 564 q 613 629 625 607 q 583 668 601 651 q 539 696 564 685 q 479 707 513 707 q 387 681 429 707 q 317 611 346 655 q 272 507 288 566 q 256 382 256 448 q 274 233 256 295 q 324 130 293 170 q 394 70 355 89 q 475 50 433 50 z "},"b":{"ha":958,"x_min":61,"x_max":903,"o":"m 61 1068 l 358 1068 q 355 964 358 1012 q 346 876 351 917 q 334 798 340 834 q 319 726 327 761 q 395 746 355 739 q 481 753 434 753 q 617 737 556 753 q 725 694 677 722 q 805 629 772 667 q 861 549 839 592 q 892 458 882 505 q 903 364 903 411 q 892 274 903 319 q 860 185 882 228 q 805 105 838 142 q 724 39 771 67 q 616 -5 677 12 q 481 -21 556 -21 q 349 -5 408 -21 q 243 39 290 11 q 162 104 197 66 q 106 184 128 142 q 72 273 83 227 q 61 364 61 319 l 61 376 q 70 481 62 436 q 88 567 77 527 q 112 647 99 608 q 134 733 124 686 q 149 839 143 780 q 151 978 154 898 q 147 999 151 988 q 133 1020 143 1010 q 105 1037 123 1030 q 61 1043 88 1043 l 61 1068 m 268 367 q 277 241 268 302 q 310 133 286 180 q 373 56 333 85 q 476 25 414 26 q 550 39 517 25 q 607 77 583 53 q 648 134 631 102 q 676 204 665 167 q 692 281 687 241 q 699 361 697 321 q 694 442 699 401 q 681 522 690 484 q 656 594 671 560 q 616 652 640 627 q 560 691 593 677 q 485 705 528 705 q 384 679 425 705 q 317 607 342 652 q 280 503 292 562 q 268 379 269 444 l 268 367 z "},"c":{"ha":821,"x_min":58,"x_max":770,"o":"m 770 547 l 747 546 q 707 603 732 578 q 653 645 683 628 q 592 672 624 663 q 529 681 559 681 q 420 650 469 681 q 336 571 371 620 q 283 463 302 523 q 264 343 264 402 q 285 223 264 281 q 345 122 306 166 q 439 53 383 79 q 564 26 494 26 q 658 42 621 26 q 719 78 696 58 q 752 116 741 98 q 765 138 762 134 l 755 58 q 720 25 743 41 q 665 -2 696 9 q 594 -20 633 -14 q 511 -26 555 -26 q 327 -5 410 -26 q 184 60 244 16 q 91 170 124 104 q 58 325 58 236 q 81 466 60 405 q 137 572 101 527 q 223 648 173 618 q 333 697 273 679 q 464 724 393 716 q 610 732 534 732 q 697 730 660 732 q 766 729 735 729 q 758 679 760 705 q 755 635 755 652 q 759 590 755 611 q 770 547 763 569 z "},"d":{"ha":999,"x_min":56,"x_max":965,"o":"m 676 110 q 636 62 660 85 q 580 20 612 39 q 506 -10 547 1 q 412 -21 465 -21 q 257 11 324 -21 q 146 93 191 42 q 78 209 101 144 q 56 339 56 273 q 65 439 56 389 q 96 535 75 489 q 147 623 116 582 q 222 693 178 663 q 321 741 265 724 q 446 758 376 758 q 519 752 485 758 q 583 735 554 745 q 635 711 612 724 q 676 685 659 698 l 676 977 q 672 999 676 987 q 659 1020 669 1010 q 631 1037 648 1030 q 585 1043 613 1043 l 585 1069 l 873 1069 l 873 92 q 877 70 873 81 q 891 48 881 58 q 919 32 901 39 q 965 25 937 25 l 965 0 l 676 0 l 676 110 m 463 50 q 540 66 507 50 q 597 107 573 83 q 636 161 621 132 q 660 217 651 191 q 673 264 669 244 q 676 290 676 284 l 676 555 l 624 485 q 602 595 621 547 q 582 636 594 616 q 552 672 570 656 q 509 697 534 688 q 453 707 485 707 q 365 681 402 707 q 304 611 328 655 q 269 507 280 566 q 257 382 257 448 q 274 233 257 295 q 318 130 290 170 q 383 70 346 89 q 463 50 420 50 z "},"p":{"ha":928,"x_min":32,"x_max":871,"o":"m 32 729 l 363 729 q 478 721 419 729 q 594 696 538 713 q 701 650 651 678 q 789 580 751 621 q 849 483 827 538 q 871 357 871 428 q 842 206 871 275 q 760 86 812 137 q 633 7 707 36 q 472 -21 560 -21 q 394 -12 425 -21 q 338 11 363 -3 l 399 57 q 435 30 416 38 q 484 21 455 21 q 556 43 523 21 q 614 108 590 65 q 653 213 639 151 q 667 355 667 275 q 650 477 667 425 q 608 565 634 528 q 549 626 582 602 q 482 663 515 649 q 417 681 448 676 q 364 686 387 686 l 322 686 l 322 -179 q 325 -201 322 -189 q 338 -224 328 -214 q 365 -243 347 -235 q 412 -250 382 -250 l 412 -275 l 32 -275 l 32 -250 q 78 -244 60 -250 q 106 -229 96 -239 q 121 -206 117 -219 q 125 -179 125 -193 l 125 639 q 121 662 125 649 q 108 685 118 674 q 80 703 98 696 q 32 710 62 710 l 32 729 z "},"q":{"ha":932,"x_min":60,"x_max":897,"o":"m 60 328 q 83 466 60 406 q 145 570 106 526 q 237 645 184 614 q 347 694 289 675 q 465 721 404 713 q 581 729 525 729 l 897 729 l 897 703 q 849 695 867 703 q 822 678 831 688 q 809 655 812 667 q 806 632 806 642 l 806 -179 q 809 -201 806 -189 q 822 -224 812 -214 q 849 -243 831 -235 q 897 -250 867 -250 l 897 -275 l 517 -275 l 517 -250 q 586 -235 565 -250 q 607 -196 607 -219 l 607 41 q 530 -8 572 11 q 435 -28 487 -28 q 294 -10 361 -28 q 174 49 226 7 q 91 158 122 90 q 60 328 60 227 m 453 14 q 500 23 473 14 q 550 51 526 33 q 591 92 574 68 q 607 146 607 117 l 607 686 l 606 686 q 545 680 580 686 q 472 659 510 674 q 397 617 434 644 q 330 549 359 590 q 282 451 300 508 q 264 317 264 393 q 276 212 264 266 q 311 114 288 158 q 370 42 334 70 q 453 14 406 14 z "},"r":{"ha":893,"x_min":40,"x_max":873,"o":"m 873 5 q 785 -19 825 -12 q 711 -26 745 -26 q 633 -9 671 -26 q 560 37 595 9 q 495 99 526 64 q 441 168 465 134 q 400 231 417 201 q 374 279 382 261 q 492 318 439 290 q 535 347 514 330 q 573 387 556 363 q 600 439 589 410 q 610 505 610 468 q 591 590 610 557 q 544 644 572 624 q 483 671 515 663 q 422 679 450 679 q 377 673 395 679 q 349 659 359 668 q 334 638 338 650 q 330 614 330 627 l 330 96 q 334 73 330 85 q 347 51 337 61 q 375 33 357 40 q 422 25 393 25 l 422 0 l 40 0 l 40 25 q 86 31 68 25 q 115 46 104 37 q 129 69 125 56 q 132 96 132 81 l 132 636 q 129 658 132 646 q 115 680 125 670 q 86 696 104 690 q 40 703 68 703 l 40 729 l 422 729 q 566 716 496 729 q 692 677 637 704 q 781 607 747 650 q 815 505 815 565 q 794 422 815 458 q 739 359 773 386 q 660 314 704 332 q 568 285 615 296 q 628 191 594 237 q 696 108 662 144 q 763 49 731 71 q 818 26 795 26 q 837 28 825 26 q 865 36 850 30 l 873 5 z "},"s":{"ha":770,"x_min":60,"x_max":726,"o":"m 262 -14 q 184 -11 214 -14 q 135 -3 154 -7 q 103 4 115 1 q 78 7 91 7 q 85 49 83 30 q 87 83 87 68 q 83 126 87 106 q 74 168 79 146 l 97 170 q 141 112 112 137 q 205 71 170 87 q 279 45 241 54 q 353 36 318 36 q 429 47 395 36 q 485 78 462 58 q 520 125 508 98 q 532 184 532 152 q 518 241 532 219 q 479 277 504 263 q 422 297 455 290 q 353 307 390 303 q 292 314 324 310 q 227 326 259 318 q 164 348 194 334 q 111 382 134 361 q 74 434 87 404 q 60 505 60 464 q 79 591 60 554 q 131 654 99 627 q 205 697 163 680 q 292 724 248 714 q 380 738 336 734 q 460 742 424 742 q 571 735 524 742 q 652 729 619 729 q 643 683 645 705 q 640 644 640 661 q 644 603 640 623 q 654 561 648 583 l 631 559 q 607 612 618 588 q 573 653 596 636 q 510 681 551 671 q 397 690 469 690 q 349 683 374 690 q 303 659 324 675 q 269 619 283 643 q 256 564 256 595 q 274 497 256 522 q 319 459 293 473 q 374 442 346 446 q 422 436 403 437 q 479 430 447 434 q 545 417 511 426 q 611 395 578 409 q 669 360 644 382 q 711 308 695 338 q 726 235 726 277 q 706 139 726 179 q 651 72 686 99 q 569 27 616 44 q 471 1 523 10 q 366 -11 420 -7 q 262 -14 313 -14 z "},"i":{"ha":461,"x_min":40,"x_max":421,"o":"m 421 0 l 40 0 l 40 25 q 86 31 68 25 q 115 46 104 37 q 129 69 125 56 q 132 96 132 81 l 132 632 q 129 655 132 642 q 116 678 125 667 q 88 695 106 688 q 40 703 70 703 l 40 729 l 421 729 l 421 703 q 376 697 394 703 q 348 683 358 692 q 333 662 337 674 q 329 637 329 650 l 329 96 q 332 73 329 85 q 346 51 336 61 q 373 33 355 40 q 421 25 391 25 l 421 0 m 126 909 q 135 950 126 931 q 157 984 143 970 q 191 1007 172 998 q 232 1015 210 1015 q 273 1007 254 1015 q 307 984 292 998 q 329 950 321 970 q 338 909 338 931 q 329 868 338 888 q 307 835 321 849 q 273 812 292 821 q 232 804 254 804 q 191 812 210 804 q 157 835 172 821 q 135 868 143 849 q 126 909 126 888 z "},"j":{"ha":449,"x_min":-283,"x_max":416,"o":"m 36 729 l 416 729 l 416 703 q 372 697 390 703 q 344 684 355 692 q 329 663 334 675 q 325 639 325 652 l 326 189 q 290 -9 326 77 q 190 -155 254 -96 q 39 -246 126 -215 q -151 -277 -49 -277 q -194 -276 -176 -277 q -225 -275 -212 -275 q -252 -274 -239 -275 q -281 -273 -265 -273 q -272 -223 -274 -250 q -269 -179 -269 -197 q -273 -134 -269 -155 q -283 -92 -277 -113 l -261 -90 q -181 -190 -231 -154 q -71 -225 -132 -225 q 16 -198 -21 -225 q 77 -126 53 -171 q 113 -24 101 -81 q 125 92 125 33 l 126 637 q 121 659 125 648 q 107 681 117 671 q 80 696 98 690 q 36 703 63 703 l 36 729 z "},"x":{"ha":880,"x_min":-1,"x_max":876,"o":"m 57 25 q 112 31 87 25 q 158 46 138 37 q 192 66 178 55 q 215 89 207 78 l 370 296 q 335 356 353 324 q 299 420 317 388 q 264 484 281 453 q 235 543 248 515 q 206 590 223 566 q 169 633 189 614 q 127 665 149 652 q 83 677 105 677 q 44 672 64 677 q 5 661 24 667 l -1 689 q 49 704 21 696 q 108 718 77 711 q 170 728 138 724 q 231 732 201 732 q 311 715 276 732 q 374 669 345 699 q 429 598 403 640 q 484 505 455 556 l 500 473 l 644 667 q 650 685 650 675 q 639 698 650 693 q 600 703 629 703 l 600 729 l 847 729 l 847 703 q 793 697 818 703 q 748 682 768 691 q 713 661 728 673 q 690 639 699 650 l 529 424 q 569 354 549 389 q 612 283 590 319 q 659 210 635 248 q 711 131 684 172 q 736 99 723 114 q 764 73 749 84 q 792 54 778 61 q 819 47 806 47 q 840 49 827 47 q 869 57 852 51 l 876 26 q 787 2 828 9 q 710 -5 745 -5 q 618 7 657 -5 q 549 44 580 20 q 490 104 517 68 q 435 186 463 140 l 397 248 l 279 89 l 281 89 q 262 63 270 75 q 254 43 254 52 q 265 30 254 35 q 306 25 276 25 l 306 0 l 57 0 l 57 25 z "},"z":{"ha":761,"x_min":40,"x_max":722,"o":"m 50 0 l 40 35 l 40 36 l 511 693 l 271 693 q 213 689 243 693 q 158 672 184 684 q 113 638 132 660 q 86 583 94 617 l 68 586 q 65 636 68 611 q 57 683 62 658 q 40 729 51 707 l 710 729 l 721 693 l 249 36 l 492 36 q 550 40 520 36 q 606 57 580 45 q 650 90 631 68 q 676 146 669 111 l 696 142 q 699 92 696 117 q 706 45 701 70 q 722 0 711 21 l 50 0 z "},"v":{"ha":875,"x_min":-25,"x_max":867,"o":"m -25 729 l 370 729 l 370 703 q 334 699 348 703 q 313 688 320 696 q 306 668 307 680 q 309 639 304 656 q 394 341 344 488 q 511 53 444 194 q 575 190 545 119 q 629 336 604 261 q 673 487 654 410 q 705 639 692 564 q 702 670 709 658 q 680 689 694 682 q 649 699 666 696 q 616 703 631 702 l 616 729 l 867 729 q 826 611 848 673 q 779 485 804 549 q 728 357 755 421 q 675 233 702 293 q 621 117 648 172 q 568 17 594 62 l 328 -14 q 194 308 250 144 q 98 639 138 472 q 86 661 95 650 q 63 682 78 673 q 26 697 48 691 q -25 703 5 703 l -25 729 z "},"=":{"ha":882,"x_min":127,"x_max":754,"o":"m 754 375 l 754 283 l 127 283 l 127 375 l 754 375 m 754 653 l 754 561 l 127 561 l 127 653 l 754 653 z "},"#":{"ha":692,"x_min":65,"x_max":625,"o":"m 421 869 l 355 653 l 443 653 l 509 869 l 604 869 l 539 653 l 625 653 l 600 561 l 513 561 l 457 375 l 549 375 l 522 283 l 429 283 l 372 89 l 275 89 l 334 283 l 245 283 l 189 89 l 92 89 l 150 283 l 65 283 l 92 375 l 176 375 l 232 561 l 143 561 l 168 653 l 260 653 l 325 869 l 421 869 m 273 375 l 359 375 l 415 561 l 329 561 l 273 375 z "},"o":{"ha":951,"x_min":54,"x_max":896,"o":"m 54 364 q 65 452 54 407 q 98 541 76 497 q 155 622 121 584 q 236 690 189 661 q 341 736 282 719 q 473 753 401 753 q 610 737 549 753 q 718 694 671 722 q 798 629 764 667 q 854 549 832 592 q 886 458 876 505 q 896 364 896 411 q 886 274 896 319 q 853 185 876 228 q 798 105 831 142 q 717 39 764 67 q 609 -5 670 12 q 473 -21 549 -21 q 342 -5 401 -21 q 236 39 283 11 q 156 104 190 66 q 99 184 121 142 q 65 273 76 227 q 54 364 54 319 m 261 367 q 270 241 261 302 q 303 133 279 180 q 367 56 326 85 q 469 25 407 26 q 543 39 511 25 q 600 77 576 53 q 642 134 625 102 q 669 204 659 167 q 685 281 680 241 q 692 361 690 321 q 688 442 692 401 q 674 522 684 484 q 649 594 665 560 q 609 652 633 627 q 553 691 585 677 q 478 705 521 705 q 374 677 416 705 q 308 602 333 649 q 272 494 283 555 q 261 367 262 433 z "},"†":{"ha":610,"x_min":52,"x_max":558,"o":"m 212 835 l 212 1112 l 396 1112 l 396 835 l 558 835 l 558 743 l 396 743 l 396 -139 l 212 -139 l 212 743 l 52 743 l 52 835 l 212 835 z "},"|":{"ha":428,"x_min":122,"x_max":306,"o":"m 122 1112 l 306 1112 l 306 -139 l 122 -139 l 122 1112 z "},"¦":{"ha":428,"x_min":122,"x_max":306,"o":"m 122 1112 l 306 1112 l 306 -139 l 122 -139 l 122 1112 z "},"‡":{"ha":632,"x_min":62,"x_max":570,"o":"m 224 835 l 224 1112 l 407 1112 l 407 835 l 570 835 l 570 743 l 407 743 l 407 231 l 570 231 l 570 139 l 407 139 l 407 -139 l 224 -139 l 224 139 l 62 139 l 62 231 l 224 231 l 224 743 l 62 743 l 62 835 l 224 835 z "},"°":{"ha":429,"x_min":61,"x_max":368,"o":"m 368 840 q 356 780 368 808 q 323 731 344 752 q 274 699 302 711 q 214 686 246 686 q 154 699 182 686 q 105 731 126 711 q 73 780 85 752 q 61 840 61 808 q 73 900 61 872 q 105 949 85 928 q 154 982 126 970 q 214 994 182 994 q 274 982 245 994 q 323 949 302 970 q 356 900 344 928 q 368 840 368 872 m 285 840 q 278 897 285 875 q 261 931 271 918 q 238 948 250 943 q 214 953 225 953 q 190 946 202 953 q 168 926 178 940 q 151 891 157 913 q 144 840 144 870 q 151 791 144 812 q 168 756 157 770 q 190 735 178 742 q 214 728 202 728 q 238 734 226 728 q 261 755 251 741 q 278 790 271 768 q 285 840 285 811 z "},"ˆ":{"ha":357,"x_min":0,"x_max":357,"o":"m 357 802 l 243 802 l 144 936 l 57 802 l 0 802 l 131 1000 l 222 1000 l 357 802 z "},"˜":{"ha":458,"x_min":0,"x_max":458,"o":"m 458 986 q 445 919 456 952 q 416 860 435 886 q 372 818 398 834 q 313 802 346 802 q 243 816 272 802 q 192 848 215 831 q 149 880 170 865 q 104 895 129 895 q 67 884 81 895 q 46 858 54 873 q 38 827 39 843 q 36 802 36 812 l 0 802 q 9 869 1 836 q 35 929 18 903 q 79 970 52 955 q 149 986 107 986 q 212 972 185 986 q 262 940 239 958 q 305 909 285 923 q 347 895 326 895 q 382 905 368 895 q 404 930 396 916 q 415 961 412 945 q 419 986 418 976 l 458 986 z "},"¯":{"ha":370,"x_min":0,"x_max":370,"o":"m 370 844 l 0 844 l 0 908 l 370 908 l 370 844 z "},"˘":{"ha":340,"x_min":0,"x_max":340,"o":"m 340 1000 q 324 931 338 964 q 288 873 311 899 q 235 832 266 847 q 168 817 205 817 q 102 832 132 817 q 50 874 72 848 q 16 933 28 900 q 0 1000 3 966 l 36 1000 q 64 955 46 975 q 104 923 79 937 q 168 909 130 909 q 237 923 211 909 q 279 955 264 937 q 306 1000 297 975 l 340 1000 z "},"˙":{"ha":154,"x_min":0,"x_max":154,"o":"m 154 895 q 148 864 154 878 q 132 839 142 850 q 108 823 122 829 q 78 817 94 817 q 47 823 62 817 q 23 839 33 829 q 6 864 12 850 q 0 895 0 878 q 6 924 0 910 q 23 949 12 939 q 47 966 33 960 q 78 972 62 972 q 108 966 94 972 q 132 949 122 960 q 148 924 142 939 q 154 895 154 910 z "},"˚":{"ha":307,"x_min":0,"x_max":307,"o":"m 307 916 q 295 856 307 884 q 262 806 283 827 q 213 773 241 785 q 153 761 185 761 q 93 773 121 761 q 44 806 65 785 q 12 856 24 827 q 0 916 0 884 q 12 976 0 947 q 44 1024 24 1004 q 93 1057 65 1045 q 153 1069 121 1069 q 213 1057 184 1069 q 262 1024 241 1045 q 295 976 283 1004 q 307 916 307 947 m 224 916 q 217 972 224 950 q 200 1006 210 994 q 177 1023 189 1019 q 153 1028 164 1028 q 129 1022 141 1028 q 106 1001 117 1015 q 90 966 96 987 q 83 916 83 945 q 90 866 83 887 q 106 831 96 845 q 129 810 117 817 q 153 803 141 803 q 177 810 165 803 q 200 830 190 817 q 217 865 210 844 q 224 916 224 886 z "},"¸":{"ha":289,"x_min":0,"x_max":289,"o":"m 289 -154 q 277 -214 289 -190 q 243 -254 264 -239 q 193 -277 222 -270 q 131 -283 164 -283 q 80 -273 104 -283 q 38 -244 56 -262 q 10 -202 20 -227 q 0 -151 0 -178 l 35 -151 q 44 -191 35 -174 q 66 -221 53 -209 q 92 -239 79 -233 q 114 -245 106 -245 q 152 -237 137 -245 q 177 -214 168 -228 q 191 -184 186 -200 q 195 -154 195 -168 q 184 -108 195 -125 q 158 -83 173 -91 q 128 -73 144 -75 q 102 -71 112 -71 l 163 49 l 199 49 l 160 -41 q 205 -49 182 -41 q 247 -71 228 -56 q 277 -106 265 -85 q 289 -154 289 -127 z "},"˝":{"ha":475,"x_min":0,"x_max":475,"o":"m 475 1000 l 268 802 l 187 802 l 322 1000 l 475 1000 m 288 1000 l 74 802 l 0 802 l 135 1000 l 288 1000 z "},"˛":{"ha":289,"x_min":0,"x_max":289,"o":"m 289 -151 q 279 -202 289 -178 q 251 -244 269 -227 q 209 -273 233 -262 q 158 -283 185 -283 q 95 -273 123 -283 q 45 -242 66 -262 q 12 -194 24 -222 q 0 -131 0 -165 q 14 -78 0 -104 q 50 -30 27 -52 q 101 8 72 -7 q 163 29 131 24 l 211 29 q 155 1 178 18 q 117 -39 132 -17 q 95 -84 102 -60 q 87 -131 87 -108 q 94 -179 87 -157 q 110 -215 100 -200 q 134 -237 121 -229 q 161 -245 147 -245 q 202 -235 184 -245 q 231 -209 219 -224 q 248 -177 242 -193 q 254 -151 254 -161 l 289 -151 z "},"ˇ":{"ha":357,"x_min":0,"x_max":357,"o":"m 0 1000 l 114 1000 l 212 865 l 300 1000 l 357 1000 l 227 802 l 135 802 l 0 1000 z "},"´":{"ha":288,"x_min":0,"x_max":288,"o":"m 288 1000 l 74 802 l 0 802 l 135 1000 l 288 1000 z "},"`":{"ha":288,"x_min":0,"x_max":288,"o":"m 153 1000 l 288 802 l 214 802 l 0 1000 l 153 1000 z "},"¨":{"ha":387,"x_min":0,"x_max":387,"o":"m 154 895 q 148 864 154 878 q 132 839 142 850 q 108 823 122 829 q 78 817 94 817 q 47 823 62 817 q 23 839 33 829 q 6 864 12 850 q 0 895 0 878 q 6 924 0 910 q 23 949 12 939 q 47 966 33 960 q 78 972 62 972 q 108 966 94 972 q 132 949 122 960 q 148 924 142 939 q 154 895 154 910 m 387 895 q 381 864 387 878 q 366 839 376 850 q 341 823 355 829 q 311 817 328 817 q 281 823 295 817 q 256 839 267 829 q 239 864 245 850 q 233 895 233 878 q 239 924 233 910 q 256 949 245 939 q 281 966 267 960 q 311 972 295 972 q 341 966 328 972 q 366 949 355 960 q 381 924 376 939 q 387 895 387 910 z "},"*":{"ha":567,"x_min":65,"x_max":501,"o":"m 501 766 l 325 745 l 458 636 l 353 555 l 282 713 l 212 555 l 107 636 l 240 745 l 65 766 l 106 890 l 257 794 l 216 972 l 349 972 l 309 794 l 458 890 l 501 766 z "},"e":{"ha":907,"x_min":54,"x_max":867,"o":"m 269 424 q 268 395 268 409 q 268 367 268 381 q 276 241 268 302 q 306 133 284 180 q 368 56 328 85 q 469 25 407 26 q 541 38 509 25 q 596 74 572 51 q 637 127 620 96 q 665 193 654 157 l 825 139 q 767 75 801 104 q 689 25 733 46 q 592 -9 646 3 q 473 -21 538 -21 q 342 -5 401 -21 q 236 39 283 11 q 156 104 190 66 q 99 184 121 142 q 65 273 76 227 q 54 364 54 319 q 64 452 54 407 q 95 541 74 497 q 148 622 116 584 q 225 690 180 661 q 329 736 271 719 q 460 753 387 753 q 641 726 566 753 q 765 655 716 700 q 837 550 813 610 q 867 424 861 490 l 269 424 m 464 705 q 380 687 414 705 q 323 637 346 669 q 289 562 301 605 q 272 469 277 519 l 654 469 q 640 561 650 518 q 608 636 629 604 q 552 687 587 668 q 464 705 517 705 z "},"f":{"ha":729,"x_min":33,"x_max":705,"o":"m 414 -275 l 33 -275 l 33 -250 q 80 -244 62 -250 q 108 -229 98 -239 q 122 -206 118 -219 q 126 -179 126 -193 l 126 629 q 122 651 126 640 q 109 673 119 663 q 81 689 98 683 q 35 696 63 696 l 35 729 l 705 729 q 690 684 695 709 q 682 636 685 659 q 679 597 680 613 q 679 579 679 581 l 661 576 q 634 632 654 610 q 589 665 615 653 q 533 682 563 677 q 476 686 504 686 l 323 686 l 323 329 l 640 329 q 623 281 629 307 q 614 233 617 256 q 611 179 612 205 l 593 176 q 571 239 585 216 q 529 272 557 261 q 451 284 500 282 q 323 286 402 286 l 323 -183 q 327 -205 323 -193 q 341 -227 331 -216 q 368 -243 351 -237 q 414 -250 386 -250 l 414 -275 z "},"t":{"ha":876,"x_min":35,"x_max":850,"o":"m 35 686 q 59 761 54 724 q 64 825 64 798 q 63 839 64 833 q 63 848 63 844 q 62 857 62 853 l 87 861 q 104 809 90 831 q 140 773 119 787 q 187 749 161 758 q 238 736 213 741 q 284 730 263 732 q 319 729 306 729 l 850 729 q 826 654 831 691 q 821 590 821 618 q 821 577 821 583 q 821 567 821 571 q 822 558 821 562 l 798 554 q 780 606 795 585 q 744 643 766 628 q 697 666 723 657 q 647 679 671 675 q 600 685 622 684 q 566 686 578 686 l 553 686 q 438 655 488 683 q 352 581 387 627 q 299 476 317 535 q 279 353 280 417 q 290 229 279 288 q 325 124 301 170 q 387 52 349 79 q 481 25 426 25 q 550 38 521 25 q 600 74 579 51 q 636 127 621 96 q 663 193 651 157 l 822 139 q 766 75 798 104 q 693 25 734 46 q 601 -9 652 3 q 485 -21 549 -21 q 360 -6 416 -21 q 258 35 303 9 q 179 97 213 62 q 123 174 146 133 q 90 260 101 216 q 79 350 79 305 q 96 458 79 407 q 145 552 113 509 q 225 629 178 595 q 334 686 273 663 l 35 686 z "},"u":{"ha":1003,"x_min":20,"x_max":962,"o":"m 400 704 q 354 698 372 704 q 326 683 336 692 q 312 660 316 673 q 309 633 309 648 l 309 232 q 325 142 309 179 q 367 84 341 106 q 424 56 393 63 q 486 57 456 50 q 563 93 530 67 q 619 157 596 119 q 653 240 642 194 q 665 335 665 286 l 665 633 q 662 656 665 644 q 649 679 659 668 q 622 696 640 689 q 574 704 604 704 l 574 729 l 962 729 l 962 704 q 917 698 935 704 q 888 683 899 692 q 874 660 878 673 q 871 633 871 648 l 871 96 q 874 73 871 85 q 887 51 878 61 q 915 33 897 40 q 962 25 932 25 l 962 0 l 665 0 l 665 138 q 631 86 651 111 q 585 40 612 61 q 523 3 557 19 q 444 -21 488 -13 q 340 -24 387 -31 q 256 1 293 -18 q 192 50 219 20 q 147 115 165 79 q 120 192 129 151 q 111 273 111 233 l 111 637 q 107 659 111 648 q 94 681 104 671 q 65 697 83 690 q 20 704 47 704 l 20 729 l 400 729 l 400 704 z "},"w":{"ha":1350,"x_min":21,"x_max":1310,"o":"m 921 729 l 1310 729 l 1310 704 q 1265 699 1282 704 q 1237 684 1247 693 q 1222 664 1226 675 q 1218 639 1218 652 l 1218 92 q 1222 70 1218 81 q 1236 48 1225 58 q 1264 32 1246 39 q 1310 25 1282 25 l 1310 0 l 1013 0 l 1013 75 q 977 37 996 55 q 933 7 957 20 q 880 -14 909 -6 q 818 -21 852 -21 q 743 -10 777 -21 q 681 20 709 1 q 631 66 653 39 q 595 126 610 94 q 558 71 579 97 q 510 24 538 44 q 447 -9 482 3 q 368 -21 412 -21 q 258 3 306 -21 q 178 70 211 28 q 129 169 146 113 q 113 288 113 224 l 113 637 q 109 659 113 648 q 95 681 105 671 q 67 697 85 690 q 21 704 49 704 l 21 729 l 408 729 l 408 704 q 363 699 381 704 q 335 684 346 693 q 321 664 325 675 q 317 639 317 652 l 317 245 q 325 157 317 193 q 347 99 333 121 q 380 67 361 77 q 421 57 399 57 q 475 73 449 57 q 520 122 500 89 q 551 209 539 156 q 562 335 562 262 l 562 637 q 558 659 562 648 q 545 681 555 671 q 517 697 534 690 q 471 704 499 704 l 471 729 l 859 729 l 859 704 q 812 698 830 704 q 784 683 794 692 q 770 660 774 673 q 766 633 766 648 l 766 245 q 774 157 766 193 q 797 99 783 121 q 830 67 811 77 q 871 57 849 57 q 923 71 897 57 q 968 116 948 85 q 999 194 987 146 q 1011 307 1011 241 l 1011 646 q 1006 666 1011 656 q 991 685 1002 676 q 963 699 980 693 q 921 704 946 704 l 921 729 z "},"g":{"ha":854,"x_min":20,"x_max":821,"o":"m 20 686 q 44 761 39 724 q 49 825 49 798 q 48 839 49 833 q 48 848 48 844 q 47 857 47 853 l 72 861 q 89 809 75 831 q 125 773 104 787 q 172 749 146 758 q 223 736 198 741 q 270 730 248 732 q 304 729 291 729 l 821 729 q 797 654 802 691 q 791 590 791 618 q 791 577 791 583 q 792 567 791 571 q 793 558 792 562 l 768 554 q 751 606 766 585 q 715 643 736 628 q 668 666 694 657 q 617 679 642 675 q 571 685 593 684 q 536 686 549 686 l 411 686 q 353 674 380 685 q 304 642 325 663 q 271 592 283 621 q 258 525 258 562 q 282 434 258 475 q 344 358 305 393 q 432 294 382 324 q 532 234 481 264 q 632 174 583 205 q 720 109 682 144 q 782 33 759 74 q 806 -60 806 -8 q 788 -143 806 -104 q 730 -211 770 -182 q 627 -258 690 -241 q 473 -275 564 -275 q 332 -259 395 -275 q 218 -213 269 -242 q 131 -142 168 -183 q 68 -50 94 -100 l 243 49 q 261 -56 247 -6 q 302 -144 275 -106 q 368 -205 328 -182 q 463 -229 408 -228 q 516 -221 491 -229 q 561 -198 542 -213 q 591 -162 580 -183 q 602 -115 602 -141 q 578 -50 602 -81 q 517 12 555 -18 q 431 71 479 41 q 333 133 383 100 q 234 200 282 165 q 148 276 186 235 q 87 366 110 317 q 64 472 64 414 q 78 548 64 514 q 115 607 92 581 q 168 653 138 633 q 232 686 199 672 l 20 686 z "},"l":{"ha":447,"x_min":33,"x_max":414,"o":"m 33 25 q 77 30 60 25 q 105 44 95 35 q 120 65 116 53 q 125 90 125 77 l 125 977 q 121 999 125 987 q 107 1020 117 1010 q 79 1037 97 1030 q 33 1043 62 1043 l 33 1069 l 322 1069 l 322 92 q 326 70 322 81 q 340 48 330 58 q 368 32 350 39 q 414 25 386 25 l 414 0 l 33 0 l 33 25 z "},"h":{"ha":957,"x_min":33,"x_max":935,"o":"m 422 0 l 33 0 l 33 25 q 79 31 62 25 q 107 46 97 37 q 121 69 117 56 q 125 96 125 81 l 125 844 q 121 866 125 854 q 107 887 117 878 q 79 904 97 897 q 33 911 62 911 l 33 936 l 330 936 l 330 607 q 363 653 344 631 q 407 695 382 676 q 465 728 433 714 q 538 750 497 743 q 640 753 595 760 q 718 728 684 747 q 776 679 752 709 q 814 614 800 650 q 836 537 829 578 q 843 456 843 496 l 843 96 q 846 73 843 85 q 859 51 850 61 q 887 33 869 40 q 935 25 905 25 l 935 0 l 554 0 l 554 25 q 600 31 583 25 q 628 46 618 37 q 642 69 638 56 q 646 96 646 81 l 646 497 q 633 587 646 550 q 601 645 621 623 q 553 673 581 666 q 496 672 526 680 q 423 636 454 662 q 372 575 392 611 q 342 496 352 540 q 330 404 332 452 l 330 96 q 334 73 330 85 q 347 51 337 61 q 375 33 357 40 q 422 25 393 25 l 422 0 z "},"@":{"ha":1153,"x_min":64,"x_max":1103,"o":"m 867 547 q 836 526 850 541 q 815 490 825 513 q 804 431 805 467 q 803 366 804 399 q 803 303 803 332 q 803 256 803 275 q 803 235 803 237 q 809 199 803 217 q 826 167 815 181 q 850 144 836 153 q 878 135 863 135 q 919 153 903 135 q 946 200 936 170 q 960 269 956 230 q 964 351 964 308 q 937 533 964 454 q 862 665 910 612 q 746 744 813 718 q 597 771 679 771 q 494 755 544 771 q 401 711 445 739 q 322 643 358 682 q 261 556 287 603 q 222 458 236 510 q 208 351 208 406 q 230 196 208 271 q 298 63 252 121 q 419 -30 345 5 q 597 -65 493 -65 q 635 -62 614 -65 q 676 -56 656 -60 q 712 -46 696 -52 q 737 -37 728 -41 l 751 -71 q 677 -92 713 -84 q 597 -100 640 -100 q 357 -68 458 -100 q 191 22 256 -37 q 95 164 126 81 q 64 350 64 247 q 85 487 64 425 q 144 599 106 549 q 233 686 182 649 q 343 749 284 724 q 468 786 403 774 q 597 799 532 799 q 794 774 703 799 q 955 699 886 750 q 1063 566 1023 647 q 1103 372 1103 485 q 1086 258 1103 310 q 1036 167 1069 205 q 953 107 1003 129 q 836 86 903 86 q 802 90 823 86 q 760 103 781 93 q 718 132 738 113 q 688 180 699 150 q 666 152 679 166 q 634 127 652 138 q 592 110 616 117 q 536 103 568 103 q 436 122 478 103 q 366 173 393 142 q 325 243 338 203 q 311 323 311 283 q 326 412 311 368 q 373 493 341 457 q 455 551 405 529 q 575 574 505 574 q 634 567 608 574 q 680 551 660 560 q 715 531 701 541 q 737 513 729 520 q 799 546 766 534 q 860 559 831 558 l 867 547 m 677 260 q 678 297 677 275 q 680 341 679 319 q 681 385 680 364 q 682 419 682 406 l 682 425 q 676 456 681 437 q 661 495 672 476 q 631 528 650 514 q 579 542 611 542 q 523 527 548 542 q 479 486 497 512 q 451 424 461 460 q 441 347 441 389 q 453 256 441 294 q 483 194 465 218 q 526 158 502 170 q 575 146 550 146 q 622 157 603 146 q 652 186 640 169 q 669 223 663 203 q 677 260 675 243 z "},"k":{"ha":953,"x_min":33,"x_max":950,"o":"m 422 0 l 33 0 l 33 25 q 77 30 60 25 q 105 44 95 35 q 120 65 116 53 q 125 90 125 77 l 125 844 q 121 866 125 854 q 107 887 117 878 q 79 904 97 897 q 33 911 62 911 l 33 936 l 330 936 l 330 696 q 412 734 365 719 q 524 750 460 750 q 659 736 597 750 q 767 694 722 722 q 838 622 812 665 q 864 519 864 578 q 840 420 864 463 q 777 346 816 377 q 687 294 737 315 q 586 261 637 273 q 675 172 629 214 q 763 97 721 130 q 840 45 805 64 q 895 26 874 26 q 913 28 901 26 q 942 36 926 30 l 950 5 q 861 -19 902 -12 q 783 -26 819 -26 q 699 -10 743 -26 q 612 33 655 7 q 527 90 568 58 q 452 153 486 122 q 391 210 417 184 q 353 252 366 237 q 505 306 438 270 q 562 341 534 321 q 611 388 589 361 q 645 447 632 414 q 659 519 659 479 q 645 605 659 572 q 608 659 631 639 q 558 686 586 678 q 503 693 530 693 q 443 682 473 693 q 387 648 412 671 q 346 590 362 625 q 330 509 330 555 l 330 96 q 334 73 330 85 q 347 51 337 61 q 375 33 357 40 q 422 25 393 25 l 422 0 z "},"m":{"ha":1350,"x_min":40,"x_max":1329,"o":"m 40 729 l 338 729 l 338 653 q 373 691 353 673 q 416 722 393 709 q 469 743 440 735 q 532 750 498 750 q 606 739 572 750 q 669 709 641 728 q 718 663 696 690 q 754 603 740 635 q 791 659 770 632 q 840 706 812 686 q 903 738 868 726 q 982 750 938 750 q 1092 726 1044 750 q 1172 659 1139 701 q 1221 561 1204 616 q 1238 441 1238 505 l 1238 92 q 1241 70 1238 81 q 1255 48 1245 58 q 1283 32 1265 39 q 1329 25 1301 25 l 1329 0 l 942 0 l 942 25 q 986 30 968 25 q 1014 44 1004 35 q 1029 65 1025 53 q 1034 90 1034 77 l 1034 484 q 1025 572 1034 536 q 1003 630 1017 608 q 970 662 989 652 q 929 672 951 672 q 876 657 901 672 q 831 610 850 642 q 799 528 811 578 q 787 408 787 478 l 787 96 q 791 73 787 85 q 804 51 794 61 q 831 33 813 40 q 879 25 849 25 l 879 0 l 492 0 l 492 25 q 536 30 518 25 q 564 44 553 35 q 579 65 574 53 q 583 90 583 77 l 583 484 q 575 572 583 536 q 553 630 567 608 q 520 662 539 652 q 479 672 501 672 q 427 657 452 672 q 382 612 401 643 q 351 533 363 581 q 339 418 339 485 l 339 83 q 343 63 339 73 q 358 44 348 53 q 386 31 369 36 q 429 25 404 25 l 429 0 l 40 0 l 40 25 q 86 31 68 25 q 115 46 104 37 q 129 69 125 56 q 132 96 132 81 l 132 633 q 129 656 132 644 q 116 679 125 668 q 88 696 106 689 q 40 704 70 704 l 40 729 z "},"y":{"ha":956,"x_min":21,"x_max":922,"o":"m 533 729 l 922 729 l 922 704 q 876 698 894 704 q 848 683 859 692 q 834 660 838 673 q 831 633 831 648 l 829 109 q 815 -1 829 47 q 776 -87 801 -49 q 716 -153 751 -125 q 641 -203 682 -182 q 555 -238 600 -224 q 463 -262 509 -252 q 425 -269 446 -266 q 378 -273 403 -271 q 329 -276 354 -275 q 282 -277 304 -277 q 194 -275 231 -277 q 125 -273 157 -273 q 134 -223 132 -250 q 136 -179 136 -197 q 133 -134 136 -155 q 122 -92 129 -113 l 144 -90 q 184 -147 159 -122 q 238 -190 208 -172 q 300 -216 267 -207 q 363 -225 332 -225 q 472 -207 423 -225 q 554 -154 520 -188 q 607 -72 589 -120 q 625 36 625 -23 l 625 122 q 593 76 612 98 q 548 34 574 53 q 491 1 523 15 q 418 -21 458 -14 q 316 -24 361 -31 q 237 1 271 -18 q 180 50 203 20 q 141 115 156 79 q 119 192 126 151 q 113 273 113 233 l 113 637 q 109 659 113 648 q 95 681 105 671 q 67 697 85 690 q 21 704 49 704 l 21 729 l 401 729 l 401 704 q 357 699 374 704 q 329 684 339 693 q 314 664 318 675 q 310 639 310 652 l 310 232 q 322 142 310 179 q 355 84 334 106 q 402 56 375 63 q 460 57 429 50 q 534 93 503 67 q 586 157 566 119 q 616 240 606 194 q 625 335 625 286 l 625 633 q 622 656 625 644 q 609 679 618 668 q 581 696 599 689 q 533 704 563 704 l 533 729 z "},"[":{"ha":500,"x_min":122,"x_max":471,"o":"m 471 -139 l 122 -139 l 122 1111 l 471 1111 l 471 1061 l 315 1061 l 315 -89 l 471 -89 l 471 -139 z "},"(":{"ha":454,"x_min":53,"x_max":439,"o":"m 439 -121 l 396 -121 q 267 -26 329 -84 q 157 109 205 31 q 81 283 110 186 q 53 496 53 380 q 80 696 53 607 q 154 861 107 786 q 263 999 201 935 q 396 1121 326 1062 l 439 1121 q 342 958 384 1051 q 306 868 323 918 q 275 761 289 819 q 254 637 262 703 q 245 496 245 570 q 254 351 245 418 q 275 225 262 283 q 306 119 289 168 q 342 33 323 71 q 439 -121 384 -58 z "},"{":{"ha":532,"x_min":-1,"x_max":509,"o":"m 509 -140 l 435 -140 q 375 -135 406 -140 q 315 -118 344 -130 q 260 -86 286 -106 q 214 -37 234 -66 q 183 34 195 -7 q 172 129 172 75 l 172 283 q 161 351 172 318 q 128 410 150 384 q 73 452 106 436 q -1 468 41 468 l -1 493 q 71 509 39 493 q 125 550 103 524 q 160 609 148 576 q 172 676 172 642 l 172 840 q 194 972 172 920 q 251 1054 215 1024 q 334 1096 287 1084 q 435 1108 382 1108 l 509 1108 l 509 1075 q 443 1053 470 1067 q 398 1018 415 1040 q 372 964 380 996 q 364 888 364 932 l 364 747 q 352 644 364 694 q 314 557 340 595 q 245 499 288 520 q 140 481 202 478 q 248 459 205 479 q 317 404 291 439 q 353 320 342 368 q 364 214 364 271 l 364 81 q 370 -5 364 29 q 393 -61 376 -39 q 437 -95 409 -83 q 509 -113 465 -106 l 509 -140 z "},"]":{"ha":500,"x_min":29,"x_max":378,"o":"m 29 -89 l 184 -89 l 184 1061 l 29 1061 l 29 1111 l 378 1111 l 378 -139 l 29 -139 l 29 -89 z "},")":{"ha":454,"x_min":16,"x_max":401,"o":"m 16 -121 q 112 33 70 -58 q 148 119 130 71 q 178 225 165 168 q 200 351 192 283 q 208 496 208 418 q 200 637 208 570 q 178 761 192 703 q 148 868 165 819 q 112 958 130 918 q 16 1121 70 1051 l 58 1121 q 149 1041 105 1082 q 231 955 193 1000 q 300 861 269 910 q 354 755 332 811 q 389 634 376 699 q 401 496 401 570 q 373 283 401 380 q 297 109 345 186 q 188 -26 250 31 q 58 -121 125 -84 l 16 -121 z "},"}":{"ha":532,"x_min":24,"x_max":533,"o":"m 24 -113 q 95 -95 67 -106 q 140 -61 123 -83 q 162 -5 156 -39 q 168 81 168 29 l 168 214 q 179 320 168 271 q 216 404 190 368 q 284 459 241 439 q 392 481 328 479 q 288 499 330 478 q 218 557 245 520 q 180 644 192 595 q 168 747 168 694 l 168 888 q 160 964 168 932 q 134 1018 152 996 q 90 1053 117 1040 q 24 1075 62 1067 l 24 1108 l 97 1108 q 197 1096 150 1108 q 281 1054 245 1084 q 338 972 317 1024 q 359 840 359 920 l 359 676 q 372 609 359 642 q 406 550 384 576 q 461 509 429 524 q 533 493 493 493 l 533 468 q 459 452 491 468 q 405 410 427 436 q 371 351 382 384 q 359 283 359 318 l 359 129 q 348 34 359 75 q 317 -37 337 -7 q 272 -86 298 -66 q 217 -118 246 -106 q 157 -135 188 -130 q 97 -140 126 -140 l 24 -140 l 24 -113 z "},"^":{"ha":529,"x_min":0,"x_max":529,"o":"m 529 679 l 359 679 l 214 878 l 85 679 l 0 679 l 195 972 l 329 972 l 529 679 z "},"~":{"ha":746,"x_min":82,"x_max":682,"o":"m 682 648 q 664 561 678 604 q 626 483 650 517 q 568 428 602 449 q 490 407 534 407 q 427 416 455 407 q 376 439 399 425 q 333 468 353 452 q 296 497 314 484 q 259 520 277 511 q 218 529 240 529 q 170 515 188 529 q 143 481 152 500 q 131 440 134 461 q 129 407 129 420 l 82 407 q 95 496 84 452 q 128 573 105 540 q 187 628 151 607 q 277 648 223 648 q 335 640 309 648 q 384 617 361 631 q 426 589 406 604 q 463 560 445 573 q 499 538 481 547 q 536 529 517 529 q 582 543 564 529 q 611 576 600 557 q 626 615 622 595 q 631 648 630 635 l 682 648 z "},"/":{"ha":676,"x_min":40,"x_max":635,"o":"m 635 972 l 214 0 l 40 0 l 461 972 l 635 972 z "},"?":{"ha":856,"x_min":43,"x_max":798,"o":"m 408 269 l 353 269 q 369 367 353 327 q 411 437 386 406 q 466 493 437 467 q 520 547 495 518 q 563 614 546 576 q 579 708 579 652 q 563 814 579 770 q 519 884 547 857 q 457 923 492 911 q 383 935 421 935 q 309 921 344 935 q 245 884 274 908 q 194 825 216 859 q 157 749 172 791 l 43 832 q 117 907 77 877 q 201 955 157 937 q 294 981 245 973 q 396 989 343 989 q 492 982 444 989 q 585 960 540 975 q 668 922 629 945 q 735 865 707 898 q 781 788 764 831 q 798 689 798 744 q 781 601 798 637 q 737 536 764 564 q 674 489 709 509 q 603 452 640 469 q 531 418 566 435 q 469 381 496 401 q 425 334 441 361 q 408 269 408 307 m 507 102 q 497 54 507 77 q 471 14 488 31 q 431 -13 454 -3 q 383 -22 408 -22 q 336 -13 358 -22 q 296 14 313 -3 q 270 54 279 31 q 260 102 260 77 q 270 149 260 127 q 296 189 279 172 q 336 215 313 205 q 383 225 358 225 q 431 215 408 225 q 471 189 454 205 q 497 149 488 172 q 507 102 507 127 z "},"<":{"ha":625,"x_min":49,"x_max":533,"o":"m 533 794 l 533 694 l 139 476 l 139 468 l 533 254 l 533 149 l 49 425 l 49 521 l 533 794 z "},"_":{"ha":965,"x_min":170,"x_max":796,"o":"m 796 -113 l 796 -204 l 170 -204 l 170 -113 l 796 -113 z "},"¬":{"ha":844,"x_min":104,"x_max":730,"o":"m 730 514 l 730 250 l 589 250 l 589 422 l 104 422 l 104 514 l 730 514 z "},"÷":{"ha":779,"x_min":77,"x_max":703,"o":"m 492 278 q 484 240 492 258 q 464 208 477 222 q 433 187 450 195 q 395 179 415 179 q 355 187 374 179 q 323 208 337 195 q 302 240 310 222 q 294 278 294 258 q 302 316 294 298 q 323 347 310 334 q 355 369 337 361 q 395 376 374 376 q 433 369 415 376 q 464 347 450 361 q 484 316 477 334 q 492 278 492 298 m 492 664 q 484 625 492 643 q 464 594 477 607 q 433 573 450 581 q 395 566 415 566 q 355 573 374 566 q 323 594 337 581 q 302 625 310 607 q 294 664 294 643 q 302 702 294 684 q 323 733 310 720 q 355 754 337 747 q 395 762 374 762 q 433 754 415 762 q 464 733 450 747 q 484 702 477 720 q 492 664 492 684 m 703 514 l 703 422 l 77 422 l 77 514 l 703 514 z "},"×":{"ha":764,"x_min":78,"x_max":692,"o":"m 189 183 l 78 183 l 306 431 l 83 726 l 273 726 l 410 545 l 578 726 l 692 726 l 461 478 l 684 183 l 493 183 l 355 364 l 189 183 z "},"§":{"ha":999,"x_min":78,"x_max":930,"o":"m 343 -184 q 241 -182 280 -184 q 176 -176 201 -179 q 133 -170 150 -172 q 100 -167 117 -167 q 111 -111 107 -136 q 114 -64 114 -85 q 109 -7 114 -33 q 96 49 103 19 l 126 50 q 183 -28 145 7 q 268 -91 221 -64 q 366 -131 315 -117 q 463 -146 416 -146 q 564 -127 517 -146 q 644 -76 610 -108 q 695 -4 677 -45 q 714 79 714 37 q 692 155 714 125 q 635 202 671 184 q 554 229 600 220 q 460 243 508 237 q 381 252 424 247 q 297 269 339 258 q 215 297 254 279 q 145 343 175 315 q 96 412 115 372 q 78 507 78 452 q 93 598 78 557 q 136 671 109 638 q 93 736 109 698 q 78 827 78 774 q 104 941 78 892 q 172 1025 130 990 q 269 1082 214 1060 q 382 1118 323 1105 q 497 1136 440 1131 q 602 1141 554 1141 q 679 1139 643 1141 q 747 1133 715 1136 q 804 1127 778 1130 q 851 1125 829 1125 q 841 1068 844 1093 q 838 1021 838 1044 q 842 965 838 991 q 856 909 847 939 l 825 908 q 804 958 814 933 q 782 1003 795 982 q 749 1043 768 1025 q 700 1074 730 1061 q 626 1094 670 1087 q 519 1101 582 1101 q 438 1086 477 1101 q 367 1045 398 1072 q 317 983 336 1019 q 298 904 298 947 q 312 840 298 867 q 349 795 326 814 q 399 766 372 777 q 455 748 427 755 q 509 739 484 742 q 551 734 534 736 q 625 726 584 732 q 707 710 665 721 q 789 680 749 699 q 861 633 829 662 q 911 563 892 604 q 930 465 930 522 q 917 370 930 412 q 879 293 903 327 q 916 229 902 266 q 930 146 930 193 q 905 19 930 72 q 836 -71 880 -35 q 735 -130 793 -108 q 611 -164 677 -153 q 477 -180 546 -176 q 343 -184 408 -184 m 460 562 q 382 571 424 566 q 298 587 340 577 l 298 585 q 312 521 298 547 q 349 476 326 494 q 399 447 372 458 q 455 429 427 435 q 509 419 484 422 q 551 415 534 416 q 628 406 585 412 q 714 389 670 400 l 714 399 q 692 474 714 445 q 635 522 671 504 q 554 548 600 539 q 460 562 508 557 z "},"≠":{"ha":811,"x_min":92,"x_max":718,"o":"m 279 283 l 92 283 l 92 375 l 318 375 l 397 561 l 92 561 l 92 653 l 435 653 l 490 783 l 596 783 l 541 653 l 718 653 l 718 561 l 503 561 l 424 375 l 718 375 l 718 283 l 385 283 l 332 157 l 227 157 l 279 283 z "},"\\":{"ha":676,"x_min":41,"x_max":636,"o":"m 215 972 l 636 0 l 463 0 l 41 972 l 215 972 z "},">":{"ha":625,"x_min":92,"x_max":576,"o":"m 576 521 l 576 425 l 92 149 l 92 254 l 486 468 l 486 476 l 92 694 l 92 794 l 576 521 z "},"–":{"ha":772,"x_min":109,"x_max":664,"o":"m 664 514 l 664 422 l 109 422 l 109 514 l 664 514 z "},"—":{"ha":1189,"x_min":109,"x_max":1080,"o":"m 1080 514 l 1080 422 l 109 422 l 109 514 l 1080 514 z "},"≈":{"ha":777,"x_min":100,"x_max":700,"o":"m 700 774 q 683 686 696 730 q 645 609 669 643 q 586 553 621 574 q 509 532 552 532 q 445 541 473 532 q 394 564 417 550 q 351 593 371 577 q 313 623 332 609 q 276 645 295 636 q 236 654 258 654 q 188 640 205 654 q 161 606 170 626 q 150 566 152 587 q 147 532 147 545 l 100 532 q 113 621 102 578 q 146 699 123 665 q 204 753 168 732 q 294 774 241 774 q 353 765 326 774 q 402 743 379 756 q 444 714 425 730 q 481 685 463 699 q 517 663 500 672 q 554 654 535 654 q 601 668 583 654 q 629 701 618 682 q 644 741 640 720 q 648 774 648 761 l 700 774 m 700 524 q 683 436 696 479 q 645 358 669 393 q 586 303 621 324 q 509 282 552 282 q 445 291 473 282 q 394 314 417 300 q 351 343 371 328 q 313 372 332 359 q 276 395 295 386 q 236 404 258 404 q 188 390 205 404 q 161 356 170 376 q 150 316 152 336 q 147 282 147 295 l 100 282 q 113 371 102 328 q 146 449 123 415 q 204 503 168 482 q 294 524 241 524 q 353 515 326 524 q 402 493 379 506 q 444 464 425 479 q 481 435 463 448 q 517 413 500 422 q 554 404 535 404 q 601 418 583 404 q 629 451 618 432 q 644 490 640 470 q 648 524 648 511 l 700 524 z "},"∏":{"ha":1083,"x_min":43,"x_max":1039,"o":"m 635 920 l 489 920 l 489 0 l 288 0 l 288 913 q 229 897 258 907 q 172 870 199 887 q 118 829 144 853 q 71 770 92 804 l 43 774 q 71 837 61 802 q 86 901 81 871 q 93 972 92 937 l 1039 972 q 1024 933 1029 954 q 1015 893 1018 913 q 1011 855 1012 873 q 1010 823 1010 837 q 1010 810 1010 816 q 1010 800 1010 804 q 1011 791 1010 795 l 986 787 q 969 839 983 818 q 933 876 955 861 q 887 899 912 890 q 836 913 861 908 l 836 0 l 635 0 l 635 920 z "},"π":{"ha":1010,"x_min":8,"x_max":1004,"o":"m 600 676 l 454 676 l 454 0 l 253 0 l 253 669 q 194 654 224 664 q 137 627 165 644 q 83 586 109 610 q 36 526 58 561 l 8 530 q 36 593 26 559 q 52 659 46 628 q 58 729 57 694 l 1004 729 q 989 690 995 710 q 980 649 983 669 q 976 612 977 629 q 975 581 975 594 q 975 567 975 573 q 976 557 975 562 q 977 549 976 553 l 951 545 q 935 596 949 575 q 899 633 920 618 q 852 656 878 648 q 802 669 827 665 l 802 0 l 600 0 l 600 676 z "},"•":{"ha":568,"x_min":111,"x_max":457,"o":"m 457 465 q 444 398 457 429 q 406 342 430 366 q 351 305 382 319 q 283 292 319 292 q 216 305 248 292 q 161 342 184 319 q 124 398 138 366 q 111 465 111 429 q 124 532 111 501 q 161 587 138 564 q 216 624 184 610 q 283 637 248 637 q 351 624 319 637 q 406 587 382 610 q 444 532 430 564 q 457 465 457 501 z "},"∂":{"ha":961,"x_min":53,"x_max":895,"o":"m 345 1017 q 488 965 418 998 q 619 887 558 932 q 731 785 680 842 q 818 662 781 728 q 874 520 854 595 q 895 364 895 446 q 884 274 895 319 q 852 185 874 228 q 797 105 830 142 q 716 39 763 67 q 608 -5 669 12 q 472 -21 547 -21 q 340 -5 399 -21 q 235 39 281 11 q 154 104 189 66 q 97 184 120 142 q 64 273 75 227 q 53 364 53 319 q 64 452 53 407 q 97 541 75 497 q 154 622 119 584 q 234 690 188 661 q 340 736 281 719 q 472 753 399 753 q 548 748 513 753 q 616 734 584 743 q 562 818 593 780 q 493 888 530 856 q 411 948 455 920 q 317 1000 367 976 l 345 1017 m 260 367 q 269 241 260 302 q 301 133 278 180 q 365 56 325 85 q 468 25 406 26 q 542 39 509 25 q 599 77 574 53 q 640 134 623 102 q 668 204 657 167 q 684 281 679 241 q 690 361 689 321 q 686 442 690 401 q 673 522 682 484 q 647 594 663 560 q 608 652 631 627 q 551 691 584 677 q 476 705 519 705 q 373 677 414 705 q 307 602 332 649 q 271 494 281 555 q 260 367 260 433 z "},"¥":{"ha":1174,"x_min":43,"x_max":1133,"o":"m 453 465 l 218 852 q 196 883 210 866 q 161 913 182 899 q 111 938 140 928 q 43 947 81 947 l 43 972 l 511 972 l 511 947 q 450 937 467 947 q 433 908 433 926 q 439 882 433 896 q 453 852 444 867 l 693 471 q 810 642 755 549 q 917 852 865 736 q 925 874 922 864 q 928 895 928 885 q 906 932 928 918 q 833 947 885 947 l 833 972 l 1133 972 q 1051 843 1095 909 q 961 711 1008 777 q 866 583 915 646 q 768 465 818 520 l 911 465 l 911 374 l 710 374 l 710 290 l 911 290 l 911 199 l 710 199 l 710 119 q 714 90 710 106 q 731 59 718 73 q 767 35 744 45 q 829 25 791 25 l 829 0 l 375 0 l 375 25 q 434 32 411 25 q 471 52 457 39 q 489 81 484 64 q 494 115 494 97 l 494 199 l 285 199 l 285 290 l 494 290 l 494 374 l 285 374 l 285 465 l 453 465 z "},"µ":{"ha":1055,"x_min":60,"x_max":1003,"o":"m 614 729 l 1003 729 l 1003 704 q 957 698 975 704 q 928 683 939 692 q 915 660 918 673 q 911 633 911 648 l 911 92 q 915 70 911 81 q 928 48 918 58 q 957 32 939 39 q 1003 25 975 25 l 1003 0 l 705 0 l 705 138 q 671 86 691 111 q 625 40 652 61 q 563 3 598 19 q 485 -21 528 -13 q 412 -26 446 -27 q 349 -18 378 -26 l 349 -275 l 151 -275 l 151 637 q 148 659 151 648 q 134 681 144 671 q 106 697 123 690 q 60 704 88 704 l 60 729 l 440 729 l 440 704 q 394 698 412 704 q 366 683 376 692 q 352 660 356 673 q 349 633 349 648 l 349 232 q 365 142 349 179 q 407 84 381 106 q 464 56 433 63 q 526 57 496 50 q 601 92 568 67 q 657 153 634 117 q 692 233 680 189 q 705 325 704 277 l 705 637 q 702 659 705 648 q 688 681 698 671 q 660 697 677 690 q 614 704 642 704 l 614 729 z "},"Ø":{"ha":1194,"x_min":65,"x_max":1129,"o":"m 993 972 l 926 888 q 1015 806 977 852 q 1078 708 1053 760 q 1116 600 1103 656 q 1129 486 1129 543 q 1114 366 1129 427 q 1068 248 1099 304 q 993 140 1038 191 q 889 53 948 90 q 756 -6 829 16 q 595 -28 682 -28 q 425 -4 501 -28 q 288 62 349 20 l 239 0 l 149 0 l 232 109 q 159 191 191 146 q 107 285 128 236 q 76 385 86 334 q 65 486 65 436 q 81 602 65 543 q 127 716 96 661 q 202 821 157 772 q 306 907 248 870 q 437 965 365 943 q 595 986 510 986 q 741 970 674 986 q 865 925 808 954 l 903 972 l 993 972 m 899 482 q 885 635 899 559 q 840 775 871 711 l 367 164 q 456 64 401 102 q 590 25 511 26 q 688 44 644 25 q 766 97 732 64 q 825 175 800 130 q 865 270 849 220 q 889 375 882 321 q 899 482 897 430 m 298 489 q 307 359 298 423 q 334 239 315 296 l 799 839 q 716 907 764 882 q 602 932 667 932 q 504 916 547 932 q 428 869 461 899 q 370 799 394 840 q 330 709 346 758 q 307 604 315 659 q 298 489 299 548 z "},"ø":{"ha":951,"x_min":54,"x_max":896,"o":"m 861 729 l 782 646 q 833 585 812 618 q 868 515 854 551 q 889 440 882 479 q 896 364 896 402 q 886 274 896 319 q 853 185 876 228 q 798 105 831 142 q 717 39 764 67 q 609 -5 670 12 q 473 -21 549 -21 q 331 -2 394 -21 q 220 50 268 16 l 172 0 l 82 0 l 168 92 q 118 153 139 120 q 82 220 96 185 q 61 292 68 256 q 54 364 54 328 q 65 452 54 407 q 98 541 76 497 q 155 622 121 584 q 236 690 189 661 q 341 736 282 719 q 473 753 401 753 q 617 735 554 753 q 729 686 681 717 l 771 729 l 861 729 m 692 361 q 687 446 692 403 q 672 529 683 489 l 300 136 q 365 57 323 87 q 469 25 406 26 q 543 39 511 25 q 600 77 576 53 q 642 134 625 102 q 669 204 659 167 q 685 281 680 241 q 692 361 690 321 m 261 367 q 264 284 261 325 q 277 207 268 243 l 646 597 q 617 641 633 621 q 581 675 602 661 q 535 697 560 690 q 478 705 509 705 q 374 677 416 705 q 308 602 333 649 q 272 494 283 555 q 261 367 262 433 z "},"œ":{"ha":1544,"x_min":54,"x_max":1504,"o":"m 907 424 q 905 395 905 409 q 905 367 905 381 q 913 241 905 302 q 944 133 922 180 q 1005 56 966 85 q 1107 25 1044 26 q 1178 38 1147 25 q 1234 74 1210 51 q 1274 127 1257 96 q 1303 193 1291 157 l 1463 139 q 1404 75 1438 104 q 1327 25 1371 46 q 1229 -9 1283 3 q 1111 -21 1175 -21 q 1011 -12 1057 -21 q 925 13 964 -3 q 853 52 886 29 q 794 102 821 75 q 736 52 768 75 q 664 13 704 29 q 577 -12 625 -3 q 473 -21 529 -21 q 342 -5 401 -21 q 236 39 283 11 q 156 104 190 66 q 99 184 121 142 q 65 273 76 227 q 54 364 54 319 q 65 452 54 407 q 98 541 76 497 q 155 622 121 584 q 236 690 189 661 q 341 736 282 719 q 473 753 401 753 q 577 744 529 753 q 664 719 625 735 q 736 681 704 703 q 794 632 768 659 q 849 681 819 659 q 918 719 880 703 q 1000 744 956 735 q 1097 753 1045 753 q 1279 726 1204 753 q 1402 655 1354 700 q 1475 550 1451 610 q 1504 424 1499 490 l 907 424 m 261 367 q 270 241 261 302 q 303 133 279 180 q 367 56 326 85 q 469 25 407 26 q 543 39 511 25 q 600 77 576 53 q 642 134 625 102 q 669 204 659 167 q 685 281 680 241 q 692 361 690 321 l 692 364 q 687 445 691 404 q 673 524 683 486 q 648 595 664 562 q 608 652 632 628 q 552 691 585 677 q 478 705 520 705 q 374 677 416 705 q 308 602 333 649 q 272 494 283 555 q 261 367 262 433 m 1101 705 q 1018 687 1052 705 q 962 637 984 669 q 927 562 939 605 q 909 469 915 519 l 1292 469 q 1277 561 1288 518 q 1245 636 1267 604 q 1189 687 1224 668 q 1101 705 1154 705 z "},"Œ":{"ha":1854,"x_min":65,"x_max":1792,"o":"m 1761 755 q 1710 831 1742 798 q 1639 888 1678 865 q 1557 923 1600 911 q 1471 935 1514 935 q 1383 918 1424 935 q 1306 872 1341 901 q 1241 804 1270 844 q 1190 719 1212 764 q 1154 623 1168 673 q 1133 522 1139 572 l 1711 522 q 1689 462 1697 494 q 1678 404 1682 431 q 1674 342 1674 372 l 1651 338 q 1630 410 1643 381 q 1591 454 1617 438 q 1522 477 1565 471 q 1410 484 1479 484 l 1129 484 l 1129 454 q 1157 295 1129 372 q 1237 158 1185 218 q 1359 62 1288 98 q 1515 26 1430 26 q 1606 36 1567 26 q 1674 61 1645 46 q 1723 94 1704 76 q 1755 128 1743 112 q 1775 157 1768 144 q 1785 174 1782 170 l 1773 78 q 1728 36 1758 56 q 1658 0 1699 16 q 1566 -25 1617 -16 q 1455 -35 1514 -35 q 1321 -22 1386 -35 q 1199 14 1257 -9 q 1091 73 1141 38 q 1003 151 1042 107 q 927 80 970 113 q 834 23 885 47 q 723 -15 783 -1 q 595 -28 663 -28 q 436 -6 509 -28 q 305 52 363 15 q 201 140 246 90 q 126 247 157 190 q 80 365 96 304 q 65 486 65 427 q 81 602 65 543 q 127 716 96 661 q 202 821 157 772 q 306 907 248 870 q 437 965 365 943 q 595 986 510 986 q 736 971 671 986 q 857 929 802 956 q 956 865 911 903 q 1032 783 1000 828 q 1174 892 1094 849 q 1346 957 1253 936 q 1457 972 1394 968 q 1582 975 1519 975 q 1697 974 1643 975 q 1788 972 1751 972 q 1777 916 1780 941 q 1773 869 1773 891 q 1778 813 1773 839 q 1792 757 1784 787 l 1761 755 m 298 489 q 305 375 298 431 q 326 268 311 319 q 362 173 340 216 q 418 96 385 129 q 493 45 450 64 q 590 25 536 26 q 688 44 644 25 q 766 97 732 64 q 825 175 800 130 q 865 270 849 220 q 889 375 882 321 q 899 482 897 430 q 892 590 899 536 q 871 694 886 644 q 833 787 857 744 q 777 863 810 831 q 701 913 744 895 q 602 932 657 932 q 504 916 547 932 q 428 869 461 899 q 370 799 394 840 q 330 709 346 758 q 307 604 315 659 q 298 489 299 548 z "},"Æ":{"ha":1607,"x_min":-3,"x_max":1544,"o":"m 1514 755 q 1463 831 1495 798 q 1392 888 1431 865 q 1310 923 1353 911 q 1223 935 1266 935 q 1135 918 1177 935 q 1059 872 1094 901 q 994 804 1023 844 q 943 719 964 764 q 906 623 921 673 q 886 522 892 572 l 1464 522 q 1442 462 1450 494 q 1431 404 1434 431 q 1426 342 1427 372 l 1404 338 q 1383 410 1396 381 q 1344 454 1370 438 q 1275 477 1318 471 q 1162 484 1232 484 l 882 484 l 882 454 q 895 347 882 399 q 931 246 907 294 q 989 158 955 198 q 1067 89 1024 118 q 1160 43 1109 59 q 1268 26 1211 26 q 1359 36 1320 26 q 1427 61 1398 46 q 1476 94 1456 76 q 1508 128 1495 112 q 1528 157 1521 144 q 1537 174 1534 170 l 1527 78 q 1481 36 1511 56 q 1410 0 1451 16 q 1318 -25 1369 -16 q 1208 -35 1267 -35 q 1037 -14 1119 -35 q 885 47 954 7 q 765 142 817 86 q 684 269 713 199 q 680 277 682 274 q 676 285 677 281 q 548 240 608 265 q 443 190 489 214 q 365 144 397 165 q 321 114 334 123 q 264 64 296 86 q 195 27 233 43 q 109 4 156 12 q 4 -4 61 -4 l -3 25 q 111 67 63 36 q 193 144 159 98 q 252 247 228 190 q 296 368 277 304 q 325 446 307 405 q 368 525 342 486 q 426 596 393 563 q 501 653 459 630 q 478 697 490 675 q 457 743 467 720 q 434 792 447 763 q 404 848 420 821 q 369 898 388 876 q 329 925 350 920 q 306 929 317 927 q 285 930 295 930 q 232 924 258 930 q 182 909 205 918 l 172 937 q 292 971 231 957 q 412 985 353 985 q 469 981 441 985 q 522 968 496 977 q 564 941 544 960 q 603 899 585 923 q 638 846 621 875 q 669 789 654 818 q 694 735 683 761 q 715 689 706 709 q 786 785 745 742 q 876 862 827 829 q 982 919 925 896 q 1099 957 1038 943 q 1209 972 1147 968 q 1335 975 1272 975 q 1450 974 1396 975 q 1540 972 1503 972 q 1530 916 1533 941 q 1527 869 1527 891 q 1531 813 1527 839 q 1544 757 1536 787 l 1514 755 m 539 575 q 507 516 522 547 q 480 454 492 486 q 458 391 468 422 q 437 332 448 360 q 415 271 427 300 q 389 214 404 241 q 508 276 439 243 q 654 332 576 309 l 539 575 z "},"‹":{"ha":488,"x_min":52,"x_max":397,"o":"m 397 604 l 397 504 l 142 370 l 142 361 l 397 231 l 397 125 l 52 318 l 52 414 l 397 604 z "},"›":{"ha":488,"x_min":90,"x_max":436,"o":"m 436 414 l 436 318 l 90 125 l 90 231 l 346 361 l 346 370 l 90 504 l 90 604 l 436 414 z "},"«":{"ha":822,"x_min":52,"x_max":732,"o":"m 397 604 l 397 504 l 142 370 l 142 361 l 397 231 l 397 125 l 52 318 l 52 414 l 397 604 m 732 604 l 732 504 l 476 370 l 476 361 l 732 231 l 732 125 l 386 318 l 386 414 l 732 604 z "},"»":{"ha":822,"x_min":90,"x_max":771,"o":"m 771 414 l 771 318 l 425 125 l 425 231 l 681 361 l 681 370 l 425 504 l 425 604 l 771 414 m 436 414 l 436 318 l 90 125 l 90 231 l 346 361 l 346 370 l 90 504 l 90 604 l 436 414 z "},"·":{"ha":370,"x_min":79,"x_max":290,"o":"m 79 486 q 87 527 79 508 q 110 561 96 547 q 143 583 124 575 q 184 591 163 591 q 225 583 206 591 q 259 561 245 575 q 282 527 273 547 q 290 486 290 508 q 282 445 290 465 q 259 412 273 426 q 225 389 245 397 q 184 380 206 380 q 143 389 163 380 q 110 412 124 397 q 87 445 96 426 q 79 486 79 465 z "},"‚":{"ha":334,"x_min":58,"x_max":272,"o":"m 90 -134 q 112 -86 107 -111 q 112 -35 117 -61 q 93 18 107 -8 q 58 71 79 45 l 165 178 l 272 71 q 248 17 263 45 q 213 -40 233 -11 q 165 -98 192 -69 q 107 -153 139 -126 l 90 -134 z "},"„":{"ha":575,"x_min":58,"x_max":514,"o":"m 90 -134 q 112 -86 107 -111 q 112 -35 117 -61 q 93 18 107 -8 q 58 71 79 45 l 165 178 l 272 71 q 248 17 263 45 q 213 -40 233 -11 q 165 -98 192 -69 q 107 -153 139 -126 l 90 -134 m 332 -134 q 353 -86 349 -111 q 353 -35 358 -61 q 335 18 349 -8 q 300 71 321 45 l 407 178 l 514 71 q 490 17 505 45 q 454 -40 475 -11 q 407 -98 433 -69 q 349 -153 380 -126 l 332 -134 z "},"”":{"ha":561,"x_min":62,"x_max":518,"o":"m 94 663 q 116 710 111 685 q 116 762 121 735 q 97 814 111 788 q 62 867 83 841 l 170 974 l 277 867 q 253 813 268 841 q 217 756 237 785 q 170 698 196 727 q 111 643 143 669 l 94 663 m 336 663 q 358 710 353 685 q 358 762 363 735 q 339 814 353 788 q 304 867 325 841 l 411 974 l 518 867 q 494 813 509 841 q 458 756 479 785 q 411 698 437 727 q 353 643 385 669 l 336 663 z "},"“":{"ha":555,"x_min":47,"x_max":503,"o":"m 471 954 q 449 907 454 932 q 449 855 444 882 q 468 802 454 829 q 503 750 481 775 l 396 643 l 289 750 q 313 803 298 775 q 349 861 328 831 q 396 919 370 890 q 454 974 422 947 l 471 954 m 229 954 q 208 907 212 932 q 208 855 203 882 q 226 802 212 829 q 261 750 240 775 l 154 643 l 47 750 q 71 803 56 775 q 107 861 86 831 q 154 919 127 890 q 212 974 180 947 l 229 954 z "},"’":{"ha":319,"x_min":62,"x_max":277,"o":"m 94 663 q 116 710 111 685 q 116 762 121 735 q 97 814 111 788 q 62 867 83 841 l 170 974 l 277 867 q 253 813 268 841 q 217 756 237 785 q 170 698 196 727 q 111 643 143 669 l 94 663 z "},"‘":{"ha":314,"x_min":47,"x_max":261,"o":"m 229 954 q 208 907 212 932 q 208 855 203 882 q 226 802 212 829 q 261 750 240 775 l 154 643 l 47 750 q 71 803 56 775 q 107 861 86 831 q 154 919 127 890 q 212 974 180 947 l 229 954 z "},"¡":{"ha":395,"x_min":87,"x_max":298,"o":"m 146 505 q 160 519 146 511 q 192 537 174 528 q 224 555 209 546 q 244 570 240 564 l 292 -160 l 106 -160 l 146 505 m 298 728 q 290 687 298 706 q 268 653 282 667 q 234 631 254 639 q 193 623 215 623 q 152 631 172 623 q 119 653 133 639 q 96 687 104 667 q 87 728 87 706 q 96 769 87 749 q 119 802 104 788 q 152 825 133 817 q 193 833 172 833 q 234 825 215 833 q 268 802 254 817 q 290 769 282 788 q 298 728 298 749 z "},"¿":{"ha":852,"x_min":56,"x_max":810,"o":"m 444 558 l 500 558 q 490 482 500 515 q 464 423 480 449 q 428 376 448 397 q 387 335 408 355 q 345 295 366 315 q 309 249 325 274 q 283 192 293 224 q 273 119 273 161 q 290 14 273 57 q 333 -57 306 -30 q 396 -95 361 -83 q 469 -107 431 -107 q 544 -94 509 -107 q 608 -56 578 -81 q 659 3 637 -32 q 696 79 682 37 l 810 -4 q 735 -79 775 -49 q 652 -127 696 -109 q 559 -154 608 -146 q 457 -161 510 -161 q 361 -155 410 -161 q 268 -133 313 -148 q 185 -94 224 -118 q 117 -37 146 -71 q 72 40 89 -4 q 56 139 56 84 q 72 228 56 191 q 116 292 89 264 q 179 339 144 319 q 250 376 214 359 q 321 409 286 393 q 384 446 356 426 q 428 493 411 467 q 444 558 444 520 m 346 726 q 356 774 346 751 q 382 813 366 796 q 422 840 399 830 q 469 850 444 850 q 517 840 494 850 q 556 813 539 830 q 583 774 573 796 q 593 726 593 751 q 583 679 593 701 q 556 640 573 656 q 517 613 539 623 q 469 603 494 603 q 422 613 444 603 q 382 640 399 623 q 356 679 366 656 q 346 726 346 701 z "},"ª":{"ha":802,"x_min":98,"x_max":715,"o":"m 392 987 q 457 980 428 987 q 510 961 487 972 q 550 938 533 950 q 576 916 566 926 q 643 952 607 939 q 710 966 678 965 l 715 951 q 681 926 696 943 q 657 886 667 911 q 646 819 646 861 q 645 743 645 783 q 644 669 644 703 q 644 612 644 635 q 644 586 644 589 q 655 519 644 545 q 679 479 665 493 q 714 454 694 462 l 708 439 q 658 446 684 439 q 606 466 631 453 q 559 496 581 478 q 525 538 538 515 q 501 503 515 520 q 465 472 486 486 q 415 450 444 458 q 349 441 386 441 q 240 464 287 441 q 162 522 193 486 q 114 603 130 558 q 98 694 98 648 q 117 798 98 746 q 172 892 136 850 q 264 961 209 935 q 392 987 319 987 m 393 492 q 449 507 427 492 q 484 546 471 523 q 503 593 497 568 q 511 636 509 618 l 515 796 q 500 873 513 840 q 486 902 495 888 q 465 927 477 916 q 435 945 452 938 q 396 951 418 951 q 331 933 360 951 q 282 884 302 916 q 250 812 261 853 q 239 724 239 770 q 252 620 239 663 q 287 547 265 576 q 336 505 309 519 q 393 492 364 492 m 715 389 l 715 339 l 98 339 l 98 389 l 715 389 z "},"º":{"ha":786,"x_min":98,"x_max":688,"o":"m 98 715 q 116 808 98 760 q 169 896 133 857 q 261 962 205 936 q 392 987 316 987 q 528 964 471 987 q 620 901 584 940 q 671 814 655 863 q 688 715 688 765 q 671 621 688 669 q 619 534 654 573 q 527 470 583 495 q 392 446 471 446 q 261 470 317 446 q 170 533 205 494 q 116 621 134 572 q 98 715 98 669 m 243 718 q 249 630 243 673 q 272 555 256 588 q 316 501 288 522 q 389 479 345 480 q 461 501 432 479 q 509 556 491 522 q 535 631 528 589 q 545 714 543 673 q 538 799 545 756 q 515 877 532 842 q 469 933 498 911 q 395 956 440 956 q 322 936 351 956 q 276 883 294 916 q 251 807 258 850 q 243 718 243 764 m 688 389 l 688 339 l 98 339 l 98 389 l 688 389 z "},"¶":{"ha":968,"x_min":56,"x_max":893,"o":"m 56 572 q 79 710 56 650 q 141 815 102 770 q 233 890 180 859 q 342 939 285 920 q 460 966 400 958 q 576 974 521 974 l 893 974 l 893 947 q 845 940 863 947 q 818 922 827 933 q 805 899 808 911 q 802 876 802 886 l 802 96 q 805 73 802 85 q 818 51 808 61 q 846 33 828 40 q 893 25 863 25 l 893 0 l 513 0 l 513 25 q 553 29 536 25 q 579 41 569 33 q 595 58 590 48 q 603 79 601 68 l 603 286 q 526 236 568 256 q 431 216 483 216 q 342 224 387 216 q 256 249 297 232 q 178 293 214 266 q 114 360 141 321 q 71 452 87 399 q 56 572 56 505 z "},"±":{"ha":787,"x_min":81,"x_max":707,"o":"m 306 422 l 81 422 l 81 514 l 306 514 l 306 781 l 481 781 l 481 514 l 707 514 l 707 422 l 481 422 l 481 154 l 306 154 l 306 422 m 707 92 l 707 0 l 81 0 l 81 92 l 707 92 z "},"ı":{"ha":461,"x_min":40,"x_max":421,"o":"m 421 0 l 40 0 l 40 25 q 86 31 68 25 q 115 46 104 37 q 129 69 125 56 q 132 96 132 81 l 132 632 q 129 655 132 642 q 116 678 125 667 q 88 695 106 688 q 40 703 70 703 l 40 729 l 421 729 l 421 703 q 376 697 394 703 q 348 683 358 692 q 333 662 337 674 q 329 637 329 650 l 329 96 q 332 73 329 85 q 346 51 336 61 q 373 33 355 40 q 421 25 391 25 l 421 0 z "},"ß":{"ha":1133,"x_min":16,"x_max":1105,"o":"m 642 -14 q 563 -11 593 -14 q 514 -3 533 -7 q 482 4 494 1 q 457 7 470 7 q 465 49 463 30 q 467 83 467 68 q 463 126 467 106 q 453 168 458 146 l 476 170 q 520 112 491 137 q 584 71 549 87 q 659 45 620 54 q 732 36 697 36 q 808 47 774 36 q 864 78 841 58 q 899 125 887 98 q 911 184 911 152 q 897 241 911 219 q 859 277 883 263 q 802 297 834 290 q 732 307 769 303 q 671 314 703 310 q 606 326 638 318 q 543 348 573 334 q 490 382 513 361 q 453 434 467 404 q 439 505 439 464 q 455 592 439 554 q 497 662 472 630 q 551 721 522 693 q 605 779 580 749 q 646 842 629 808 q 663 918 663 876 q 660 964 663 939 q 649 1015 656 989 q 631 1066 642 1042 q 602 1111 619 1091 q 560 1142 584 1131 q 504 1154 536 1154 q 449 1138 472 1154 q 409 1094 425 1122 q 382 1026 392 1065 q 366 940 372 987 q 357 840 359 893 q 355 732 355 787 l 355 0 l 66 0 l 66 25 q 114 33 96 25 q 142 51 132 40 q 155 73 152 61 q 158 96 158 85 l 158 686 l 16 686 l 16 732 l 158 732 q 181 948 158 860 q 248 1090 203 1036 q 356 1169 292 1145 q 503 1193 420 1193 q 571 1187 534 1193 q 645 1168 608 1181 q 716 1135 682 1156 q 777 1083 750 1114 q 819 1012 803 1053 q 835 918 835 971 q 820 836 835 873 q 783 766 805 798 q 735 706 761 734 q 687 654 709 678 q 650 607 665 629 q 635 564 635 585 q 653 497 635 522 q 699 459 672 473 q 753 442 725 446 q 802 436 782 437 q 858 430 826 434 q 924 417 890 426 q 990 395 958 409 q 1048 360 1023 382 q 1090 308 1074 338 q 1105 235 1105 277 q 1085 139 1105 179 q 1030 72 1065 99 q 948 27 995 44 q 850 1 902 10 q 745 -11 799 -7 q 642 -14 692 -14 z "},"¢":{"ha":629,"x_min":60,"x_max":557,"o":"m 454 743 q 510 743 486 743 q 555 742 534 742 q 549 706 551 725 q 547 675 547 688 q 550 644 547 659 q 557 614 553 629 l 542 612 q 499 666 527 644 q 441 697 472 687 l 319 269 q 414 249 361 249 q 479 260 453 249 q 522 286 506 271 q 545 312 538 300 q 554 326 553 324 l 547 272 q 522 249 538 260 q 484 230 506 238 q 434 217 462 222 q 376 212 407 212 q 306 216 338 212 l 244 0 l 201 0 l 264 224 q 179 253 217 234 q 115 302 142 273 q 74 370 88 331 q 60 458 60 410 q 89 591 62 538 q 163 677 117 644 q 274 725 210 710 q 411 742 337 740 l 476 974 l 519 974 l 454 743 m 203 471 q 224 371 203 418 q 283 292 245 323 l 400 707 l 389 707 q 312 685 347 707 q 254 630 278 664 q 216 554 229 597 q 203 471 203 512 z "},"$":{"ha":590,"x_min":65,"x_max":532,"o":"m 317 751 q 331 753 324 753 q 346 753 338 753 q 423 749 390 753 q 479 745 456 745 q 473 712 475 728 q 472 685 472 697 q 474 656 472 670 q 482 627 477 642 l 465 627 q 449 661 456 645 q 427 689 441 677 q 387 708 412 701 q 317 717 361 715 l 317 539 l 319 539 q 359 535 336 538 q 405 527 381 532 q 451 511 428 521 q 492 486 474 501 q 521 450 510 471 q 532 399 532 428 q 514 325 532 355 q 466 275 496 294 q 397 244 436 255 q 317 229 358 234 l 317 0 l 273 0 l 273 227 q 239 225 256 225 q 207 225 222 225 q 152 227 173 225 q 118 232 132 229 q 96 237 104 235 q 78 239 87 239 q 83 268 82 254 q 85 293 85 281 q 82 322 85 309 q 75 351 79 336 l 92 353 q 122 313 102 330 q 166 284 142 296 q 219 266 191 272 q 271 260 246 260 l 273 260 l 273 449 l 271 449 q 205 457 241 452 q 138 477 170 463 q 86 517 107 492 q 65 587 65 543 q 84 656 65 628 q 133 704 103 685 q 200 733 163 723 q 273 749 237 744 l 273 974 l 317 974 l 317 751 m 396 364 q 390 395 396 382 q 374 417 385 408 q 348 432 363 427 q 317 441 334 438 l 317 265 q 375 302 355 276 q 396 364 396 328 m 203 629 q 209 594 203 609 q 225 570 215 580 q 248 555 235 561 q 273 546 260 549 l 273 713 q 247 702 260 709 q 225 684 235 694 q 209 660 215 674 q 203 629 203 646 z "},"%":{"ha":1153,"x_min":49,"x_max":1104,"o":"m 547 550 q 525 457 547 495 q 466 395 502 419 q 385 361 429 372 q 298 350 341 350 q 209 361 253 350 q 129 397 164 373 q 71 459 93 422 q 49 549 49 497 q 71 638 49 601 q 129 701 93 676 q 209 737 164 725 q 300 749 254 749 q 389 738 345 749 q 468 703 433 726 q 525 641 503 679 q 547 550 547 603 m 428 550 q 419 611 428 582 q 393 663 410 640 q 352 698 376 685 q 297 711 328 711 q 244 699 268 711 q 203 666 220 687 q 177 615 186 644 q 168 553 168 587 q 177 488 168 518 q 203 435 186 458 q 244 399 220 412 q 296 386 267 386 q 348 398 323 386 q 390 433 372 411 q 418 485 408 455 q 428 550 428 515 m 1104 183 q 1081 90 1104 128 q 1023 28 1059 52 q 943 -6 987 5 q 856 -17 899 -17 q 766 -5 810 -17 q 685 31 721 7 q 628 93 650 56 q 606 182 606 130 q 628 272 606 234 q 685 334 650 309 q 766 370 721 358 q 857 382 811 382 q 946 371 902 382 q 1025 336 990 359 q 1082 274 1061 312 q 1104 183 1104 236 m 985 183 q 976 244 985 215 q 950 296 967 273 q 909 331 933 318 q 854 345 885 345 q 801 333 825 345 q 760 299 777 321 q 734 249 743 278 q 725 186 725 220 q 734 121 725 151 q 760 68 743 91 q 801 33 777 46 q 852 20 824 20 q 904 32 880 20 q 946 66 928 45 q 975 118 964 88 q 985 183 985 149 m 999 729 l 271 0 l 153 0 l 880 729 l 999 729 z "},"⁄":{"ha":825,"x_min":-7,"x_max":839,"o":"m 839 729 l 111 0 l -7 0 l 721 729 l 839 729 z "},"½":{"ha":1048,"x_min":58,"x_max":1000,"o":"m 330 351 l 86 351 l 86 378 q 118 381 106 378 q 137 387 130 383 q 147 397 144 391 q 151 408 150 402 l 151 673 q 147 686 150 680 q 137 695 144 691 q 117 701 130 699 q 86 703 105 703 l 86 729 l 265 729 l 265 418 q 267 402 265 410 q 276 390 269 395 q 296 381 283 384 q 330 378 309 378 l 330 351 m 904 729 l 176 0 l 58 0 l 786 729 l 904 729 m 986 250 q 971 192 986 215 q 930 152 956 168 q 872 126 905 136 q 804 106 839 115 q 762 93 783 100 q 721 78 741 86 q 684 60 701 70 q 653 40 666 51 l 1000 40 q 971 5 983 24 q 954 -31 960 -14 q 943 -69 947 -50 l 914 -79 q 917 -60 916 -70 q 918 -45 918 -51 q 910 -21 918 -30 q 886 -7 901 -12 q 849 -1 871 -3 q 800 0 827 0 l 543 0 q 601 57 573 33 q 655 96 629 80 q 705 124 681 113 q 750 144 728 135 q 794 165 774 155 q 829 188 814 175 q 852 217 844 200 q 860 258 860 234 q 855 292 860 275 q 839 325 850 310 q 810 350 827 340 q 766 359 792 359 q 706 342 730 359 q 668 301 682 324 q 648 256 654 278 q 642 224 642 233 l 555 272 q 600 328 577 305 q 649 366 623 351 q 704 387 675 380 q 770 393 734 393 q 853 386 814 393 q 922 360 892 378 q 969 316 951 343 q 986 250 986 289 z "},"²":{"ha":591,"x_min":71,"x_max":528,"o":"m 514 606 q 499 548 514 571 q 458 508 484 524 q 400 481 433 492 q 332 461 367 471 q 290 448 311 455 q 249 434 269 441 q 211 416 229 426 q 180 396 193 407 l 528 396 q 499 360 510 380 q 482 325 489 341 q 471 286 475 305 l 441 277 q 444 295 443 286 q 446 311 446 304 q 437 335 446 326 q 414 348 429 344 q 377 354 399 353 q 328 355 355 355 l 71 355 q 129 412 100 389 q 183 452 157 435 q 233 479 209 468 q 278 500 256 490 q 322 520 302 510 q 356 543 342 530 q 379 572 371 555 q 387 614 387 589 q 382 648 387 630 q 367 681 378 666 q 338 706 355 696 q 294 715 320 715 q 234 698 258 715 q 196 657 210 680 q 176 611 182 633 q 170 579 170 589 l 83 628 q 128 684 105 661 q 177 722 151 707 q 232 742 203 736 q 297 749 262 749 q 381 741 341 749 q 450 716 420 733 q 497 671 479 699 q 514 606 514 644 z "},"³":{"ha":611,"x_min":52,"x_max":530,"o":"m 278 228 q 210 236 243 228 q 148 260 177 244 q 94 301 118 277 q 52 359 69 326 l 151 408 q 166 355 155 381 q 193 308 176 329 q 233 275 210 288 q 282 262 255 262 q 320 269 298 262 q 362 289 342 275 q 397 327 382 303 q 411 385 411 350 q 400 438 411 417 q 371 472 389 459 q 331 489 353 484 q 286 494 309 494 l 212 494 l 212 542 l 286 542 q 327 549 309 542 q 355 567 344 555 q 371 593 366 578 q 376 624 376 608 q 369 660 376 644 q 350 689 362 677 q 320 707 337 701 q 282 714 302 714 q 250 709 267 714 q 217 692 233 703 q 188 663 201 680 q 164 623 174 646 l 90 675 q 174 729 126 709 q 285 749 221 749 q 357 742 320 749 q 426 721 395 736 q 476 682 456 706 q 496 623 496 658 q 490 589 496 604 q 475 561 484 574 q 454 539 465 549 q 431 522 442 529 q 503 477 475 509 q 530 395 530 446 q 505 317 530 349 q 442 265 480 285 q 360 237 404 245 q 278 228 316 228 z "},"¾":{"ha":1175,"x_min":50,"x_max":1135,"o":"m 1135 729 l 407 0 l 289 0 l 1017 729 l 1135 729 m 1046 -138 l 848 -138 l 848 -111 q 885 -103 876 -111 q 895 -86 895 -96 l 895 0 l 597 0 q 653 103 626 57 q 708 186 681 149 q 763 254 735 224 q 819 309 790 284 l 857 309 q 807 218 830 264 q 768 134 785 172 q 732 49 748 90 l 895 49 l 895 309 l 1000 309 l 1000 49 l 1035 49 l 1035 0 l 1000 0 l 1000 -85 q 1009 -102 1000 -93 q 1046 -111 1018 -111 l 1046 -138 m 277 228 q 209 236 242 228 q 146 260 176 244 q 92 301 117 277 q 50 359 68 326 l 150 408 q 164 355 154 381 q 192 308 175 329 q 231 275 209 288 q 281 262 254 262 q 319 269 297 262 q 361 289 341 275 q 395 327 381 303 q 410 385 410 350 q 398 438 410 417 q 370 472 387 459 q 330 489 352 484 q 285 494 307 494 l 211 494 l 211 542 l 285 542 q 325 549 308 542 q 353 567 342 555 q 370 593 364 578 q 375 624 375 608 q 368 660 375 644 q 348 689 361 677 q 318 707 336 701 q 281 714 301 714 q 249 709 265 714 q 216 692 232 703 q 186 663 200 680 q 163 623 173 646 l 89 675 q 172 729 125 709 q 283 749 220 749 q 356 742 319 749 q 424 721 393 736 q 475 682 455 706 q 494 623 494 658 q 489 589 494 604 q 473 561 483 574 q 452 539 464 549 q 429 522 441 529 q 501 477 473 509 q 529 395 529 446 q 504 317 529 349 q 441 265 479 285 q 359 237 403 245 q 277 228 315 228 z "},"¹":{"ha":396,"x_min":82,"x_max":326,"o":"m 326 351 l 82 351 l 82 378 q 114 381 102 378 q 133 387 126 383 q 143 397 140 391 q 147 408 146 402 l 147 673 q 143 686 146 680 q 133 695 140 691 q 113 701 125 699 q 82 703 101 703 l 82 729 l 261 729 l 261 418 q 263 402 261 410 q 272 390 265 395 q 292 381 279 384 q 326 378 304 378 l 326 351 z "},"¼":{"ha":960,"x_min":74,"x_max":920,"o":"m 346 351 l 102 351 l 102 378 q 134 381 121 378 q 153 387 146 383 q 163 397 160 391 q 167 408 165 402 l 167 673 q 152 695 165 687 q 102 703 139 703 l 102 729 l 281 729 l 281 418 q 283 402 281 410 q 292 390 285 395 q 312 381 299 384 q 346 378 324 378 l 346 351 m 920 729 l 192 0 l 74 0 l 802 729 l 920 729 m 831 -138 l 633 -138 l 633 -111 q 670 -103 661 -111 q 679 -86 679 -96 l 679 0 l 382 0 q 438 103 410 57 q 492 186 465 149 q 547 254 519 224 q 604 309 575 284 l 642 309 q 592 218 615 264 q 553 134 570 172 q 517 49 533 90 l 679 49 l 679 309 l 785 309 l 785 49 l 819 49 l 819 0 l 785 0 l 785 -85 q 793 -102 785 -93 q 831 -111 802 -111 l 831 -138 z "},"Þ":{"ha":1136,"x_min":46,"x_max":1096,"o":"m 1096 416 q 1057 248 1096 328 q 943 106 1017 168 q 760 8 868 45 q 515 -28 652 -28 q 447 -24 481 -28 q 380 -11 413 -20 l 380 -160 q 369 -194 380 -175 q 339 -235 357 -212 q 297 -282 321 -257 q 250 -336 274 -308 q 204 -395 227 -364 q 165 -458 182 -426 l 165 859 q 160 888 165 872 q 142 917 155 903 q 106 939 129 930 q 46 947 83 947 l 46 972 l 380 972 l 380 806 l 432 806 q 512 805 465 806 q 611 799 558 804 q 721 783 664 793 q 831 753 777 772 q 933 706 885 734 q 1018 637 981 678 q 1075 542 1054 597 q 1096 416 1096 488 m 873 366 q 849 519 873 455 q 784 627 824 583 q 691 696 743 670 q 584 735 639 722 q 476 753 530 749 q 380 758 423 758 l 380 53 q 463 25 418 32 q 549 18 508 18 q 662 34 612 18 q 747 75 711 49 q 807 136 783 101 q 846 209 831 170 q 867 287 861 247 q 873 366 873 328 z "},"þ":{"ha":913,"x_min":17,"x_max":856,"o":"m 17 974 l 307 974 l 307 729 l 347 729 q 463 721 404 729 q 579 696 523 713 q 686 650 635 678 q 774 580 736 621 q 834 483 812 538 q 856 357 856 428 q 827 206 856 275 q 745 86 798 137 q 618 7 692 36 q 457 -21 545 -21 q 379 -12 410 -21 q 322 11 347 -3 l 383 57 q 420 30 400 38 q 468 21 439 21 q 541 43 507 21 q 600 108 575 65 q 638 213 624 151 q 652 355 652 275 q 635 477 652 425 q 593 565 619 528 q 533 626 566 602 q 467 663 500 649 q 402 681 433 676 q 349 686 371 686 l 307 686 l 307 -179 q 310 -201 307 -189 q 323 -224 313 -214 q 350 -243 332 -235 q 397 -250 368 -250 l 397 -275 l 17 -275 l 17 -250 q 63 -244 45 -250 q 91 -229 81 -239 q 106 -206 102 -219 q 110 -179 110 -193 l 110 884 q 106 906 110 894 q 93 929 103 918 q 64 947 83 940 q 17 954 46 954 l 17 974 z "},"Ð":{"ha":1369,"x_min":12,"x_max":1305,"o":"m 204 514 q 267 657 222 589 q 382 780 313 724 q 544 880 452 836 q 746 951 635 923 l 694 987 q 625 1064 646 1020 q 604 1156 604 1109 q 614 1223 604 1190 q 641 1284 624 1256 q 683 1335 659 1313 q 734 1369 707 1357 l 751 1344 q 705 1270 705 1312 q 741 1187 705 1231 q 843 1095 776 1143 q 1043 939 957 1012 q 1186 794 1128 866 q 1274 648 1244 722 q 1305 488 1304 574 q 1280 328 1305 400 q 1211 198 1255 256 q 1107 96 1167 140 q 976 24 1046 53 q 828 -19 905 -5 q 672 -33 751 -33 q 487 0 574 -33 q 334 93 399 33 q 231 236 269 153 q 193 418 193 319 l 193 422 l 12 422 l 12 514 l 204 514 m 1076 432 q 1062 561 1076 500 q 1015 680 1048 621 q 927 795 981 738 q 794 914 873 853 q 660 861 722 899 q 550 769 598 823 q 471 650 503 715 q 428 514 439 584 l 639 514 l 639 422 l 422 422 q 453 275 426 347 q 526 149 479 204 q 635 61 572 94 q 774 28 698 28 q 892 57 837 28 q 988 140 947 87 q 1053 268 1029 193 q 1076 432 1076 342 z "},"ð":{"ha":956,"x_min":54,"x_max":896,"o":"m 261 367 q 270 241 261 302 q 303 133 279 180 q 367 56 326 85 q 469 25 407 26 q 543 39 511 25 q 600 77 576 53 q 642 134 625 102 q 669 204 659 167 q 685 281 680 241 q 692 361 690 321 q 688 442 692 401 q 674 522 684 484 q 649 594 665 560 q 609 652 633 627 q 553 691 585 677 q 478 705 521 705 q 374 677 416 705 q 308 602 333 649 q 272 494 283 555 q 261 367 262 433 m 478 901 q 403 954 444 930 q 318 1000 363 979 l 346 1017 q 414 995 377 1008 q 485 965 445 983 q 570 921 525 947 l 856 985 l 856 921 l 640 872 q 735 786 689 836 q 817 675 781 737 q 874 535 852 612 q 896 364 896 458 q 886 274 896 319 q 853 185 876 228 q 798 105 831 142 q 717 39 764 67 q 609 -5 670 12 q 473 -21 549 -21 q 342 -5 401 -21 q 236 39 283 11 q 156 104 190 66 q 99 184 121 142 q 65 273 76 227 q 54 364 54 319 q 65 452 54 407 q 98 541 76 497 q 155 622 121 584 q 236 690 189 661 q 341 736 282 719 q 473 753 401 753 q 549 748 513 753 q 615 734 584 743 q 533 848 583 798 l 229 782 l 229 846 l 478 901 z "},"‰":{"ha":1697,"x_min":53,"x_max":1650,"o":"m 551 550 q 529 457 551 495 q 470 395 506 419 q 389 361 433 372 q 302 350 345 350 q 213 361 257 350 q 133 397 168 373 q 75 459 97 422 q 53 549 53 497 q 75 638 53 601 q 133 701 97 676 q 213 737 168 725 q 304 749 258 749 q 393 738 349 749 q 473 703 437 726 q 530 641 508 679 q 551 550 551 603 m 432 550 q 423 611 432 582 q 397 663 414 640 q 356 698 380 685 q 301 711 332 711 q 248 699 272 711 q 208 666 224 687 q 181 615 191 644 q 172 553 172 587 q 181 488 172 518 q 208 435 191 458 q 248 399 224 412 q 300 386 271 386 q 352 398 328 386 q 394 433 376 411 q 422 485 412 455 q 432 550 432 515 m 1108 183 q 1085 90 1108 128 q 1027 28 1063 52 q 947 -6 991 5 q 860 -17 903 -17 q 770 -5 814 -17 q 689 31 725 7 q 632 93 654 56 q 610 182 610 130 q 632 272 610 234 q 690 334 654 309 q 770 370 726 358 q 861 382 815 382 q 950 371 906 382 q 1029 336 994 359 q 1086 274 1065 312 q 1108 183 1108 236 m 989 183 q 980 244 989 215 q 954 296 971 273 q 913 331 937 318 q 859 345 889 345 q 805 333 829 345 q 764 299 781 321 q 738 249 747 278 q 729 186 729 220 q 738 121 729 151 q 764 68 747 91 q 805 33 781 46 q 857 20 829 20 q 908 32 884 20 q 950 66 932 45 q 979 118 968 88 q 989 183 989 149 m 1003 729 l 275 0 l 157 0 l 885 729 l 1003 729 m 1650 183 q 1627 90 1650 128 q 1568 28 1605 52 q 1488 -6 1532 5 q 1401 -17 1444 -17 q 1311 -5 1356 -17 q 1231 31 1267 7 q 1174 93 1196 56 q 1152 182 1152 130 q 1174 272 1152 234 q 1231 334 1196 309 q 1312 370 1267 358 q 1402 382 1356 382 q 1492 371 1447 382 q 1571 336 1536 359 q 1628 274 1607 312 q 1650 183 1650 236 m 1531 183 q 1522 244 1531 215 q 1496 296 1513 273 q 1455 331 1479 318 q 1400 345 1430 345 q 1347 333 1371 345 q 1306 299 1323 321 q 1280 249 1289 278 q 1271 186 1271 220 q 1280 121 1271 151 q 1306 68 1289 91 q 1347 33 1323 46 q 1398 20 1370 20 q 1450 32 1426 20 q 1492 66 1474 45 q 1520 118 1510 88 q 1531 183 1531 149 z "},"€":{"ha":785,"x_min":60,"x_max":689,"o":"m 203 542 q 252 639 218 600 q 336 701 287 677 q 447 734 385 724 q 578 743 509 743 q 639 743 612 743 q 688 742 666 742 q 681 706 684 725 q 679 675 679 688 q 682 644 679 659 q 689 614 685 629 l 673 612 q 646 652 663 635 q 608 682 629 670 q 565 700 587 694 q 521 707 542 707 q 459 693 488 707 q 408 657 431 680 q 368 604 385 634 q 343 542 352 574 l 490 542 l 475 492 l 335 492 l 335 471 q 335 457 335 463 q 336 444 335 451 l 463 444 l 449 395 l 346 395 q 374 337 356 363 q 418 291 393 310 q 476 260 444 271 q 546 249 508 249 q 612 260 585 249 q 654 286 638 271 q 677 312 670 300 q 686 326 685 324 l 679 272 q 616 230 661 247 q 509 212 570 212 q 396 223 448 212 q 303 257 344 235 q 236 314 263 279 q 199 395 210 348 l 60 395 l 74 444 l 192 444 l 192 458 q 192 475 192 467 q 193 492 192 484 l 86 492 l 102 542 l 203 542 z "},"™":{"ha":1515,"x_min":79,"x_max":1444,"o":"m 471 473 l 231 473 l 231 500 q 260 503 249 500 q 279 512 272 507 q 288 525 286 518 q 290 541 290 532 l 290 933 l 254 933 q 217 930 237 933 q 179 919 198 927 q 142 896 160 911 q 110 859 124 882 l 79 860 q 96 898 90 878 q 106 935 102 918 q 110 974 109 954 l 600 974 q 585 928 587 950 q 582 892 582 905 l 582 869 l 555 867 q 541 903 554 890 q 509 923 527 916 q 474 931 492 930 q 447 933 456 933 l 411 933 l 411 541 q 413 527 411 534 q 421 514 415 520 q 439 504 428 508 q 471 500 451 500 l 471 473 m 960 739 q 955 816 960 778 q 938 884 949 854 q 906 932 926 913 q 857 950 886 950 q 806 933 829 950 q 767 888 783 916 q 743 823 751 860 q 734 746 734 786 q 744 664 734 701 q 769 597 754 627 q 802 544 785 567 q 836 506 820 522 q 862 482 851 490 q 875 473 873 474 l 741 473 q 709 500 730 478 q 666 555 688 522 q 628 633 644 589 q 611 726 611 677 q 615 774 611 747 q 628 830 618 802 q 654 887 637 859 q 697 937 671 915 q 761 972 724 959 q 847 986 798 986 q 951 966 911 986 q 1018 914 992 945 q 1050 941 1031 928 q 1091 964 1068 954 q 1142 980 1114 974 q 1202 986 1169 986 q 1286 975 1250 986 q 1350 946 1323 964 q 1395 904 1377 928 q 1424 853 1413 880 q 1440 800 1435 827 q 1444 750 1444 774 q 1431 670 1444 706 q 1397 605 1418 634 q 1351 554 1377 576 q 1300 516 1325 532 q 1252 489 1274 500 q 1217 473 1230 479 l 1179 473 q 1192 482 1181 474 q 1219 506 1203 490 q 1253 545 1235 522 q 1286 599 1271 568 q 1311 668 1301 630 q 1321 751 1321 706 q 1310 834 1321 798 q 1281 897 1299 871 q 1239 937 1263 923 q 1190 950 1215 950 q 1139 932 1160 950 q 1106 884 1118 913 q 1087 816 1093 854 q 1082 739 1082 778 l 1082 473 l 960 473 l 960 739 z "},"®":{"ha":632,"x_min":74,"x_max":557,"o":"m 476 335 q 440 324 456 328 q 414 321 425 321 q 371 337 392 321 q 333 374 350 353 q 303 415 315 395 q 288 444 291 435 q 332 460 312 449 q 362 486 349 469 q 376 529 376 502 q 370 561 376 548 q 354 583 363 574 q 333 596 345 592 q 313 600 322 600 q 288 593 294 600 q 282 576 282 587 l 282 370 q 283 362 282 366 q 288 354 284 358 q 297 348 291 351 q 315 346 304 346 l 315 332 l 176 332 l 176 346 q 205 353 197 346 q 212 368 212 359 l 212 582 q 205 597 212 589 q 176 604 198 604 l 176 619 l 313 619 q 367 614 341 619 q 411 598 392 609 q 440 570 429 587 q 452 529 452 553 q 444 494 452 509 q 424 469 436 479 q 395 451 411 458 q 363 440 379 444 q 384 406 372 422 q 408 375 395 389 q 431 354 420 362 q 450 346 442 346 q 458 347 454 346 q 471 351 463 347 l 476 335 m 74 475 q 88 552 74 512 q 131 624 102 591 q 206 677 161 656 q 314 699 252 699 q 426 679 380 699 q 501 627 472 659 q 544 555 530 595 q 557 475 557 515 q 544 396 557 436 q 501 325 530 357 q 426 273 472 293 q 314 253 380 253 q 207 273 252 253 q 132 325 161 293 q 88 396 102 357 q 74 475 74 436 m 106 475 q 117 405 106 440 q 154 340 129 369 q 219 293 179 311 q 314 275 258 275 q 414 293 373 275 q 482 340 456 311 q 521 405 509 369 q 533 475 533 440 q 521 548 533 512 q 483 612 509 584 q 415 659 456 641 q 314 676 373 676 q 218 657 258 676 q 154 608 178 637 q 117 543 129 578 q 106 475 106 507 z "},"©":{"ha":632,"x_min":74,"x_max":557,"o":"m 74 475 q 88 552 74 512 q 131 624 102 591 q 206 677 161 656 q 314 699 252 699 q 426 679 380 699 q 501 627 472 659 q 544 555 530 595 q 557 475 557 515 q 544 396 557 436 q 501 325 530 357 q 426 273 472 293 q 314 253 380 253 q 207 273 252 253 q 132 325 161 293 q 88 396 102 357 q 74 475 74 436 m 97 475 q 110 405 97 440 q 150 340 123 369 q 217 293 176 311 q 314 275 258 275 q 414 293 373 275 q 482 340 456 311 q 521 405 509 369 q 533 475 533 440 q 521 548 533 512 q 483 612 509 584 q 415 659 456 641 q 314 676 373 676 q 217 657 258 676 q 149 608 176 637 q 110 543 123 578 q 97 475 97 507 m 412 550 q 378 587 401 574 q 332 600 355 600 q 292 588 310 600 q 262 555 275 575 q 244 512 250 536 q 237 465 237 488 q 245 421 237 442 q 267 383 253 399 q 301 356 281 366 q 343 346 320 346 q 375 350 361 346 q 397 361 388 355 q 410 374 406 368 q 416 385 415 380 l 425 385 l 422 357 q 386 331 412 341 q 326 321 361 321 q 264 331 294 321 q 212 358 235 340 q 177 402 190 376 q 163 460 163 428 q 174 517 163 492 q 203 562 185 543 q 244 594 221 581 q 293 615 267 608 q 327 619 309 618 q 364 619 345 619 l 427 619 q 422 585 422 597 q 424 568 422 577 q 429 550 426 559 l 412 550 z "},"£":{"ha":924,"x_min":53,"x_max":880,"o":"m 387 329 l 567 329 l 551 279 l 387 279 l 387 53 l 880 53 q 837 -5 854 28 q 808 -69 819 -39 q 789 -142 796 -105 l 757 -149 q 761 -79 766 -107 q 734 -33 755 -51 q 674 -8 712 -16 q 579 0 635 0 l 53 0 l 53 25 q 110 32 87 25 q 146 49 132 38 q 165 75 159 60 q 171 107 171 90 l 171 279 l 79 279 l 94 329 l 171 329 l 171 436 q 200 566 171 509 q 284 662 229 623 q 416 722 338 701 q 591 742 494 742 q 703 735 655 742 q 783 729 751 729 q 775 683 777 705 q 772 644 772 661 q 776 603 772 623 q 786 561 780 583 l 762 559 q 733 612 750 588 q 692 653 717 636 q 631 681 667 671 q 543 690 595 690 q 480 678 509 690 q 430 640 451 666 q 398 572 410 613 q 387 472 387 530 l 387 329 z "},"&":{"ha":1064,"x_min":64,"x_max":1040,"o":"m 292 559 q 251 602 271 580 q 213 649 230 625 q 185 701 196 674 q 175 758 175 728 q 202 868 175 823 q 274 941 230 913 q 374 981 319 968 q 485 993 429 993 q 559 987 522 993 q 632 970 597 982 q 697 941 667 959 q 750 896 728 922 q 786 836 773 870 q 799 758 799 802 q 782 679 799 716 q 734 608 765 641 q 659 549 703 576 q 559 501 614 522 l 804 245 q 838 333 826 288 q 850 421 850 378 l 1021 342 q 964 241 996 288 q 892 154 932 194 l 1040 0 l 833 0 l 774 61 q 637 1 710 22 q 484 -20 564 -20 q 381 -14 432 -20 q 283 5 330 -8 q 197 41 237 19 q 127 95 157 63 q 81 171 98 127 q 64 272 64 215 q 78 356 64 315 q 122 434 92 397 q 196 499 151 470 q 301 549 240 529 l 292 559 m 262 250 q 278 173 262 213 q 321 101 293 134 q 391 46 350 68 q 484 25 432 25 q 609 51 551 24 q 714 123 667 79 l 406 441 q 297 358 332 405 q 262 250 262 312 m 643 785 q 628 867 643 836 q 589 917 612 899 q 538 941 566 935 q 485 947 510 947 q 430 939 457 947 q 380 911 402 930 q 344 860 358 892 q 330 782 330 829 q 347 732 330 759 q 386 679 363 705 q 433 630 409 653 q 472 591 457 606 q 537 622 506 604 q 591 664 568 640 q 629 719 615 688 q 643 785 643 749 z "},"Ł":{"ha":850,"x_min":7,"x_max":882,"o":"m 54 1249 l 389 1249 l 389 704 l 562 791 l 562 700 l 389 612 l 389 53 l 882 53 q 838 -5 856 28 q 810 -69 821 -39 q 790 -142 798 -105 l 758 -149 q 763 -124 762 -136 q 764 -102 764 -112 q 735 -35 764 -57 q 655 -6 707 -14 q 528 1 603 2 q 358 0 452 0 l 54 0 l 54 25 q 113 32 90 25 q 150 52 136 39 q 169 81 163 64 q 174 115 174 97 l 174 505 l 7 422 l 7 514 l 174 597 l 174 1135 q 169 1164 174 1148 q 150 1193 163 1179 q 114 1215 137 1206 q 54 1223 91 1223 l 54 1249 z "},"ł":{"ha":541,"x_min":17,"x_max":572,"o":"m 197 604 l 197 977 q 194 999 197 987 q 180 1020 190 1010 q 152 1037 170 1030 q 106 1043 134 1043 l 106 1069 l 395 1069 l 395 703 l 572 791 l 572 700 l 395 611 l 395 92 q 398 70 395 81 q 412 48 402 58 q 440 32 422 39 q 486 25 458 25 l 486 0 l 106 0 l 106 25 q 150 30 132 25 q 178 44 168 35 q 193 65 189 53 q 197 90 197 77 l 197 513 l 17 422 l 17 514 l 197 604 z "},"š":{"ha":770,"x_min":60,"x_max":726,"o":"m 262 -14 q 184 -11 214 -14 q 135 -3 154 -7 q 103 4 115 1 q 78 7 91 7 q 85 49 83 30 q 87 83 87 68 q 83 126 87 106 q 74 168 79 146 l 97 170 q 141 112 112 137 q 205 71 170 87 q 279 45 241 54 q 353 36 318 36 q 429 47 395 36 q 485 78 462 58 q 520 125 508 98 q 532 184 532 152 q 518 241 532 219 q 479 277 504 263 q 422 297 455 290 q 353 307 390 303 q 292 314 324 310 q 227 326 259 318 q 164 348 194 334 q 111 382 134 361 q 74 434 87 404 q 60 505 60 464 q 79 591 60 554 q 131 654 99 627 q 205 697 163 680 q 292 724 248 714 q 380 738 336 734 q 460 742 424 742 q 571 735 524 742 q 652 729 619 729 q 643 683 645 705 q 640 644 640 661 q 644 603 640 623 q 654 561 648 583 l 631 559 q 607 612 618 588 q 573 653 596 636 q 510 681 551 671 q 397 690 469 690 q 349 683 374 690 q 303 659 324 675 q 269 619 283 643 q 256 564 256 595 q 274 497 256 522 q 319 459 293 473 q 374 442 346 446 q 422 436 403 437 q 479 430 447 434 q 545 417 511 426 q 611 395 578 409 q 669 360 644 382 q 711 308 695 338 q 726 235 726 277 q 706 139 726 179 q 651 72 686 99 q 569 27 616 44 q 471 1 523 10 q 366 -11 420 -7 q 262 -14 313 -14 m 214 1000 l 328 1000 l 426 865 l 513 1000 l 570 1000 l 440 802 l 349 802 l 214 1000 z "},"ý":{"ha":956,"x_min":21,"x_max":922,"o":"m 533 729 l 922 729 l 922 704 q 876 698 894 704 q 848 683 859 692 q 834 660 838 673 q 831 633 831 648 l 829 109 q 815 -1 829 47 q 776 -87 801 -49 q 716 -153 751 -125 q 641 -203 682 -182 q 555 -238 600 -224 q 463 -262 509 -252 q 425 -269 446 -266 q 378 -273 403 -271 q 329 -276 354 -275 q 282 -277 304 -277 q 194 -275 231 -277 q 125 -273 157 -273 q 134 -223 132 -250 q 136 -179 136 -197 q 133 -134 136 -155 q 122 -92 129 -113 l 144 -90 q 184 -147 159 -122 q 238 -190 208 -172 q 300 -216 267 -207 q 363 -225 332 -225 q 472 -207 423 -225 q 554 -154 520 -188 q 607 -72 589 -120 q 625 36 625 -23 l 625 122 q 593 76 612 98 q 548 34 574 53 q 491 1 523 15 q 418 -21 458 -14 q 316 -24 361 -31 q 237 1 271 -18 q 180 50 203 20 q 141 115 156 79 q 119 192 126 151 q 113 273 113 233 l 113 637 q 109 659 113 648 q 95 681 105 671 q 67 697 85 690 q 21 704 49 704 l 21 729 l 401 729 l 401 704 q 357 699 374 704 q 329 684 339 693 q 314 664 318 675 q 310 639 310 652 l 310 232 q 322 142 310 179 q 355 84 334 106 q 402 56 375 63 q 460 57 429 50 q 534 93 503 67 q 586 157 566 119 q 616 240 606 194 q 625 335 625 286 l 625 633 q 622 656 625 644 q 609 679 618 668 q 581 696 599 689 q 533 704 563 704 l 533 729 m 728 1000 l 514 802 l 440 802 l 575 1000 l 728 1000 z "},"ž":{"ha":761,"x_min":40,"x_max":722,"o":"m 50 0 l 40 35 l 40 36 l 511 693 l 271 693 q 213 689 243 693 q 158 672 184 684 q 113 638 132 660 q 86 583 94 617 l 68 586 q 65 636 68 611 q 57 683 62 658 q 40 729 51 707 l 710 729 l 721 693 l 249 36 l 492 36 q 550 40 520 36 q 606 57 580 45 q 650 90 631 68 q 676 146 669 111 l 696 142 q 699 92 696 117 q 706 45 701 70 q 722 0 711 21 l 50 0 m 203 1000 l 317 1000 l 415 865 l 503 1000 l 559 1000 l 429 802 l 338 802 l 203 1000 z "},"Š":{"ha":978,"x_min":71,"x_max":924,"o":"m 336 -18 q 234 -16 273 -18 q 169 -9 195 -13 q 126 -3 143 -5 q 93 0 110 0 q 104 56 100 31 q 107 103 107 81 q 102 160 107 134 q 89 215 96 186 l 119 216 q 176 138 138 174 q 261 76 214 102 q 359 36 308 50 q 456 21 410 21 q 557 40 511 21 q 636 91 603 59 q 688 162 669 122 q 707 245 707 203 q 685 322 707 292 q 628 369 664 351 q 547 395 593 387 q 453 410 501 404 q 375 419 417 414 q 290 435 332 425 q 208 464 247 446 q 138 510 168 482 q 89 578 107 538 q 71 673 71 618 q 96 788 71 739 q 164 872 122 837 q 262 929 207 907 q 375 965 317 952 q 490 984 433 979 q 595 989 547 989 q 672 986 636 989 q 740 980 709 983 q 797 975 770 977 q 844 972 823 972 q 834 916 837 941 q 831 868 831 891 q 836 813 831 839 q 848 757 840 787 l 818 755 q 798 805 807 781 q 775 851 788 829 q 742 890 762 872 q 693 921 723 908 q 619 942 663 935 q 513 949 575 949 q 431 934 471 949 q 360 893 391 919 q 311 830 330 867 q 292 751 292 794 q 306 688 292 714 q 342 643 319 661 q 392 613 364 625 q 449 595 420 602 q 502 586 477 589 q 545 582 528 583 q 617 574 576 579 q 700 557 658 568 q 782 528 742 546 q 854 480 823 509 q 905 410 886 451 q 924 313 924 369 q 898 185 924 239 q 829 95 873 132 q 728 36 786 58 q 605 2 670 14 q 470 -14 539 -10 q 336 -18 401 -18 m 318 1240 l 432 1240 l 530 1105 l 618 1240 l 675 1240 l 545 1042 l 453 1042 l 318 1240 z "},"Ý":{"ha":1019,"x_min":-53,"x_max":1038,"o":"m 733 0 l 279 0 l 279 25 q 338 32 315 25 q 375 52 361 39 q 394 81 389 64 q 399 115 399 97 l 399 397 l 123 852 l 122 852 q 100 883 114 866 q 65 913 86 899 q 15 938 44 928 q -53 947 -14 947 l -53 972 l 415 972 l 415 947 q 354 937 370 947 q 338 908 338 926 q 343 882 338 896 q 357 852 349 867 l 597 471 q 715 642 660 549 q 821 852 770 736 q 832 895 832 877 q 811 932 832 918 q 737 947 789 947 l 737 972 l 1038 972 q 942 823 993 900 q 838 672 892 747 q 727 529 784 598 q 614 403 671 460 l 614 114 q 618 85 614 100 q 636 56 623 69 q 673 34 650 43 q 733 25 696 25 l 733 0 m 808 1240 l 595 1042 l 521 1042 l 656 1240 l 808 1240 z "},"Ž":{"ha":972,"x_min":40,"x_max":932,"o":"m 54 0 l 40 37 l 40 39 l 41 39 l 713 933 l 342 933 q 266 927 305 933 q 193 906 227 922 q 134 861 159 890 q 100 787 109 833 l 77 791 q 76 812 77 794 q 72 857 75 831 q 61 915 68 884 q 40 972 54 945 l 917 972 l 930 933 l 253 39 l 631 39 q 706 44 667 39 q 779 66 745 50 q 838 111 812 82 q 872 184 863 139 l 896 180 q 897 159 896 178 q 901 115 897 141 q 911 58 904 88 q 932 0 918 27 l 54 0 m 307 1240 l 421 1240 l 519 1105 l 607 1240 l 664 1240 l 534 1042 l 442 1042 l 307 1240 z "},"À":{"ha":1104,"x_min":-3,"x_max":1181,"o":"m 1181 36 q 1068 2 1119 11 q 977 -7 1017 -7 q 920 -3 944 -7 q 880 6 897 1 q 846 20 860 12 q 793 64 816 37 q 753 122 771 91 q 721 186 735 153 q 693 249 707 220 l 676 285 q 548 240 608 265 q 443 190 489 214 q 365 144 397 165 q 321 114 334 123 q 264 64 296 86 q 195 27 233 43 q 109 4 156 12 q 4 -4 61 -4 l -3 25 q 111 67 63 36 q 193 144 159 98 q 252 247 228 190 q 296 368 277 304 q 325 446 307 405 q 368 525 342 486 q 426 596 393 563 q 501 653 459 630 q 478 697 490 675 q 457 743 467 720 q 429 803 443 770 q 395 864 414 836 q 350 911 376 892 q 285 930 323 930 q 232 924 258 930 q 182 909 205 918 l 172 937 q 292 971 231 957 q 412 985 353 985 q 469 981 441 985 q 522 968 496 977 q 566 941 545 960 q 606 897 587 922 q 641 842 625 871 q 672 784 658 813 q 699 729 687 755 q 720 684 711 703 q 838 427 779 555 q 965 174 897 298 q 991 130 977 151 q 1022 91 1005 108 q 1061 64 1040 74 q 1108 54 1082 54 q 1134 56 1118 54 q 1171 66 1151 58 l 1181 36 m 539 575 q 507 516 522 547 q 480 454 492 486 q 458 391 468 422 q 437 332 448 360 q 415 271 427 300 q 389 214 404 241 q 508 276 439 243 q 654 332 576 309 l 539 575 m 389 1240 l 524 1042 l 450 1042 l 236 1240 l 389 1240 z "},"Ã":{"ha":1104,"x_min":-3,"x_max":1181,"o":"m 1181 36 q 1068 2 1119 11 q 977 -7 1017 -7 q 920 -3 944 -7 q 880 6 897 1 q 846 20 860 12 q 793 64 816 37 q 753 122 771 91 q 721 186 735 153 q 693 249 707 220 l 676 285 q 548 240 608 265 q 443 190 489 214 q 365 144 397 165 q 321 114 334 123 q 264 64 296 86 q 195 27 233 43 q 109 4 156 12 q 4 -4 61 -4 l -3 25 q 111 67 63 36 q 193 144 159 98 q 252 247 228 190 q 296 368 277 304 q 325 446 307 405 q 368 525 342 486 q 426 596 393 563 q 501 653 459 630 q 478 697 490 675 q 457 743 467 720 q 429 803 443 770 q 395 864 414 836 q 350 911 376 892 q 285 930 323 930 q 232 924 258 930 q 182 909 205 918 l 172 937 q 292 971 231 957 q 412 985 353 985 q 469 981 441 985 q 522 968 496 977 q 566 941 545 960 q 606 897 587 922 q 641 842 625 871 q 672 784 658 813 q 699 729 687 755 q 720 684 711 703 q 838 427 779 555 q 965 174 897 298 q 991 130 977 151 q 1022 91 1005 108 q 1061 64 1040 74 q 1108 54 1082 54 q 1134 56 1118 54 q 1171 66 1151 58 l 1181 36 m 539 575 q 507 516 522 547 q 480 454 492 486 q 458 391 468 422 q 437 332 448 360 q 415 271 427 300 q 389 214 404 241 q 508 276 439 243 q 654 332 576 309 l 539 575 m 711 1226 q 698 1159 709 1192 q 669 1100 688 1126 q 625 1058 651 1074 q 566 1042 599 1042 q 496 1056 525 1042 q 445 1088 468 1071 q 402 1120 422 1105 q 357 1135 382 1135 q 320 1124 334 1135 q 299 1098 307 1113 q 291 1067 292 1083 q 289 1042 289 1052 l 253 1042 q 262 1109 254 1076 q 288 1169 271 1143 q 332 1211 304 1195 q 401 1226 360 1226 q 465 1212 438 1226 q 515 1180 492 1198 q 558 1149 538 1163 q 600 1135 578 1135 q 635 1145 621 1135 q 657 1171 649 1156 q 668 1201 665 1185 q 672 1226 671 1216 l 711 1226 z "},"Õ":{"ha":1194,"x_min":65,"x_max":1129,"o":"m 65 486 q 81 602 65 543 q 127 716 96 661 q 202 821 157 772 q 306 907 248 870 q 437 965 365 943 q 595 986 510 986 q 756 966 682 986 q 889 912 829 947 q 993 830 948 878 q 1068 727 1038 783 q 1114 610 1099 672 q 1129 486 1129 549 q 1114 366 1129 427 q 1068 248 1099 304 q 993 140 1038 191 q 889 53 948 90 q 756 -6 829 16 q 595 -28 682 -28 q 436 -6 509 -28 q 305 52 363 15 q 201 140 246 90 q 126 247 157 190 q 80 365 96 304 q 65 486 65 427 m 298 489 q 305 375 298 431 q 326 268 311 319 q 362 173 340 216 q 418 96 385 129 q 493 45 450 64 q 590 25 536 26 q 688 44 644 25 q 766 97 732 64 q 825 175 800 130 q 865 270 849 220 q 889 375 882 321 q 899 482 897 430 q 892 590 899 536 q 871 694 886 644 q 833 787 857 744 q 777 863 810 831 q 701 913 744 895 q 602 932 657 932 q 504 916 547 932 q 428 869 461 899 q 370 799 394 840 q 330 709 346 758 q 307 604 315 659 q 298 489 299 548 m 827 1226 q 813 1159 824 1192 q 785 1100 803 1126 q 740 1058 766 1074 q 681 1042 714 1042 q 612 1056 640 1042 q 561 1088 583 1071 q 517 1120 538 1105 q 473 1135 497 1135 q 435 1124 449 1135 q 415 1098 422 1113 q 406 1067 408 1083 q 404 1042 404 1052 l 368 1042 q 378 1109 370 1076 q 403 1169 386 1143 q 448 1211 420 1195 q 517 1226 475 1226 q 581 1212 553 1226 q 630 1180 608 1198 q 673 1149 653 1163 q 715 1135 694 1135 q 750 1145 736 1135 q 772 1171 764 1156 q 784 1201 781 1185 q 787 1226 787 1216 l 827 1226 z "},"ÿ":{"ha":956,"x_min":21,"x_max":922,"o":"m 533 729 l 922 729 l 922 704 q 876 698 894 704 q 848 683 859 692 q 834 660 838 673 q 831 633 831 648 l 829 109 q 815 -1 829 47 q 776 -87 801 -49 q 716 -153 751 -125 q 641 -203 682 -182 q 555 -238 600 -224 q 463 -262 509 -252 q 425 -269 446 -266 q 378 -273 403 -271 q 329 -276 354 -275 q 282 -277 304 -277 q 194 -275 231 -277 q 125 -273 157 -273 q 134 -223 132 -250 q 136 -179 136 -197 q 133 -134 136 -155 q 122 -92 129 -113 l 144 -90 q 184 -147 159 -122 q 238 -190 208 -172 q 300 -216 267 -207 q 363 -225 332 -225 q 472 -207 423 -225 q 554 -154 520 -188 q 607 -72 589 -120 q 625 36 625 -23 l 625 122 q 593 76 612 98 q 548 34 574 53 q 491 1 523 15 q 418 -21 458 -14 q 316 -24 361 -31 q 237 1 271 -18 q 180 50 203 20 q 141 115 156 79 q 119 192 126 151 q 113 273 113 233 l 113 637 q 109 659 113 648 q 95 681 105 671 q 67 697 85 690 q 21 704 49 704 l 21 729 l 401 729 l 401 704 q 357 699 374 704 q 329 684 339 693 q 314 664 318 675 q 310 639 310 652 l 310 232 q 322 142 310 179 q 355 84 334 106 q 402 56 375 63 q 460 57 429 50 q 534 93 503 67 q 586 157 566 119 q 616 240 606 194 q 625 335 625 286 l 625 633 q 622 656 625 644 q 609 679 618 668 q 581 696 599 689 q 533 704 563 704 l 533 729 m 432 895 q 426 864 432 878 q 410 839 420 850 q 386 823 400 829 q 356 817 372 817 q 326 823 340 817 q 301 839 311 829 q 284 864 290 850 q 278 895 278 878 q 284 924 278 910 q 301 949 290 939 q 326 966 311 960 q 356 972 340 972 q 386 966 372 972 q 410 949 400 960 q 426 924 420 939 q 432 895 432 910 m 665 895 q 660 864 665 878 q 644 839 654 850 q 620 823 633 829 q 589 817 606 817 q 559 823 573 817 q 534 839 545 829 q 517 864 524 850 q 511 895 511 878 q 517 924 511 910 q 534 949 524 939 q 559 966 545 960 q 589 972 573 972 q 620 966 606 972 q 644 949 633 960 q 660 924 654 939 q 665 895 665 910 z "},"Ÿ":{"ha":1019,"x_min":-53,"x_max":1038,"o":"m 733 0 l 279 0 l 279 25 q 338 32 315 25 q 375 52 361 39 q 394 81 389 64 q 399 115 399 97 l 399 397 l 123 852 l 122 852 q 100 883 114 866 q 65 913 86 899 q 15 938 44 928 q -53 947 -14 947 l -53 972 l 415 972 l 415 947 q 354 937 370 947 q 338 908 338 926 q 343 882 338 896 q 357 852 349 867 l 597 471 q 715 642 660 549 q 821 852 770 736 q 832 895 832 877 q 811 932 832 918 q 737 947 789 947 l 737 972 l 1038 972 q 942 823 993 900 q 838 672 892 747 q 727 529 784 598 q 614 403 671 460 l 614 114 q 618 85 614 100 q 636 56 623 69 q 673 34 650 43 q 733 25 696 25 l 733 0 m 540 1135 q 534 1104 540 1118 q 518 1079 528 1090 q 494 1063 508 1069 q 464 1057 480 1057 q 433 1063 448 1057 q 409 1079 419 1069 q 392 1104 398 1090 q 386 1135 386 1118 q 392 1164 386 1150 q 409 1189 398 1179 q 433 1206 419 1200 q 464 1213 448 1213 q 494 1206 480 1213 q 518 1189 508 1200 q 534 1164 528 1179 q 540 1135 540 1150 m 773 1135 q 767 1104 773 1118 q 751 1079 762 1090 q 727 1063 741 1069 q 697 1057 713 1057 q 667 1063 681 1057 q 642 1079 652 1069 q 625 1104 631 1090 q 619 1135 619 1118 q 625 1164 619 1150 q 642 1189 631 1179 q 667 1206 652 1200 q 697 1213 681 1213 q 727 1206 713 1213 q 751 1189 741 1200 q 767 1164 762 1179 q 773 1135 773 1150 z "},"Â":{"ha":1104,"x_min":-3,"x_max":1181,"o":"m 1181 36 q 1068 2 1119 11 q 977 -7 1017 -7 q 920 -3 944 -7 q 880 6 897 1 q 846 20 860 12 q 793 64 816 37 q 753 122 771 91 q 721 186 735 153 q 693 249 707 220 l 676 285 q 548 240 608 265 q 443 190 489 214 q 365 144 397 165 q 321 114 334 123 q 264 64 296 86 q 195 27 233 43 q 109 4 156 12 q 4 -4 61 -4 l -3 25 q 111 67 63 36 q 193 144 159 98 q 252 247 228 190 q 296 368 277 304 q 325 446 307 405 q 368 525 342 486 q 426 596 393 563 q 501 653 459 630 q 478 697 490 675 q 457 743 467 720 q 429 803 443 770 q 395 864 414 836 q 350 911 376 892 q 285 930 323 930 q 232 924 258 930 q 182 909 205 918 l 172 937 q 292 971 231 957 q 412 985 353 985 q 469 981 441 985 q 522 968 496 977 q 566 941 545 960 q 606 897 587 922 q 641 842 625 871 q 672 784 658 813 q 699 729 687 755 q 720 684 711 703 q 838 427 779 555 q 965 174 897 298 q 991 130 977 151 q 1022 91 1005 108 q 1061 64 1040 74 q 1108 54 1082 54 q 1134 56 1118 54 q 1171 66 1151 58 l 1181 36 m 539 575 q 507 516 522 547 q 480 454 492 486 q 458 391 468 422 q 437 332 448 360 q 415 271 427 300 q 389 214 404 241 q 508 276 439 243 q 654 332 576 309 l 539 575 m 716 1042 l 602 1042 l 504 1176 l 416 1042 l 359 1042 l 490 1240 l 582 1240 l 716 1042 z "},"Ê":{"ha":1023,"x_min":66,"x_max":961,"o":"m 930 755 q 879 831 911 798 q 809 888 848 865 q 726 923 770 911 q 640 935 683 935 q 552 918 593 935 q 475 872 511 901 q 410 804 439 844 q 359 719 381 764 q 323 623 337 673 q 302 522 309 572 l 880 522 q 859 462 866 494 q 848 404 851 431 q 843 342 844 372 l 821 338 q 799 410 812 381 q 760 454 786 438 q 691 477 734 471 q 579 484 648 484 l 298 484 l 298 454 q 311 347 298 399 q 348 246 324 294 q 406 158 372 198 q 484 89 441 118 q 577 43 526 59 q 685 26 628 26 q 776 36 736 26 q 844 61 815 46 q 892 94 873 76 q 925 128 912 112 q 944 157 938 144 q 954 174 951 170 l 943 78 q 898 36 928 56 q 827 0 868 16 q 735 -25 786 -16 q 625 -35 684 -35 q 411 -1 512 -35 q 234 93 311 32 q 113 240 158 154 q 66 433 68 327 q 105 631 68 543 q 202 784 141 719 q 343 893 262 850 q 515 957 424 936 q 626 972 564 968 q 751 975 688 975 q 866 974 812 975 q 957 972 920 972 q 946 916 949 941 q 943 869 943 891 q 948 813 943 839 q 961 757 953 787 l 930 755 m 781 1042 l 667 1042 l 568 1176 l 481 1042 l 424 1042 l 555 1240 l 646 1240 l 781 1042 z "},"Á":{"ha":1104,"x_min":-3,"x_max":1181,"o":"m 1181 36 q 1068 2 1119 11 q 977 -7 1017 -7 q 920 -3 944 -7 q 880 6 897 1 q 846 20 860 12 q 793 64 816 37 q 753 122 771 91 q 721 186 735 153 q 693 249 707 220 l 676 285 q 548 240 608 265 q 443 190 489 214 q 365 144 397 165 q 321 114 334 123 q 264 64 296 86 q 195 27 233 43 q 109 4 156 12 q 4 -4 61 -4 l -3 25 q 111 67 63 36 q 193 144 159 98 q 252 247 228 190 q 296 368 277 304 q 325 446 307 405 q 368 525 342 486 q 426 596 393 563 q 501 653 459 630 q 478 697 490 675 q 457 743 467 720 q 429 803 443 770 q 395 864 414 836 q 350 911 376 892 q 285 930 323 930 q 232 924 258 930 q 182 909 205 918 l 172 937 q 292 971 231 957 q 412 985 353 985 q 469 981 441 985 q 522 968 496 977 q 566 941 545 960 q 606 897 587 922 q 641 842 625 871 q 672 784 658 813 q 699 729 687 755 q 720 684 711 703 q 838 427 779 555 q 965 174 897 298 q 991 130 977 151 q 1022 91 1005 108 q 1061 64 1040 74 q 1108 54 1082 54 q 1134 56 1118 54 q 1171 66 1151 58 l 1181 36 m 539 575 q 507 516 522 547 q 480 454 492 486 q 458 391 468 422 q 437 332 448 360 q 415 271 427 300 q 389 214 404 241 q 508 276 439 243 q 654 332 576 309 l 539 575 m 732 1240 l 518 1042 l 444 1042 l 579 1240 l 732 1240 z "},"Ë":{"ha":1023,"x_min":66,"x_max":961,"o":"m 930 755 q 879 831 911 798 q 809 888 848 865 q 726 923 770 911 q 640 935 683 935 q 552 918 593 935 q 475 872 511 901 q 410 804 439 844 q 359 719 381 764 q 323 623 337 673 q 302 522 309 572 l 880 522 q 859 462 866 494 q 848 404 851 431 q 843 342 844 372 l 821 338 q 799 410 812 381 q 760 454 786 438 q 691 477 734 471 q 579 484 648 484 l 298 484 l 298 454 q 311 347 298 399 q 348 246 324 294 q 406 158 372 198 q 484 89 441 118 q 577 43 526 59 q 685 26 628 26 q 776 36 736 26 q 844 61 815 46 q 892 94 873 76 q 925 128 912 112 q 944 157 938 144 q 954 174 951 170 l 943 78 q 898 36 928 56 q 827 0 868 16 q 735 -25 786 -16 q 625 -35 684 -35 q 411 -1 512 -35 q 234 93 311 32 q 113 240 158 154 q 66 433 68 327 q 105 631 68 543 q 202 784 141 719 q 343 893 262 850 q 515 957 424 936 q 626 972 564 968 q 751 975 688 975 q 866 974 812 975 q 957 972 920 972 q 946 916 949 941 q 943 869 943 891 q 948 813 943 839 q 961 757 953 787 l 930 755 m 559 1135 q 554 1104 559 1118 q 538 1079 548 1090 q 514 1063 528 1069 q 484 1057 500 1057 q 453 1063 467 1057 q 428 1079 439 1069 q 412 1104 418 1090 q 406 1135 406 1118 q 412 1164 406 1150 q 428 1189 418 1179 q 453 1206 439 1200 q 484 1213 467 1213 q 514 1206 500 1213 q 538 1189 528 1200 q 554 1164 548 1179 q 559 1135 559 1150 m 793 1135 q 787 1104 793 1118 q 771 1079 781 1090 q 747 1063 761 1069 q 717 1057 733 1057 q 686 1063 701 1057 q 662 1079 672 1069 q 645 1104 651 1090 q 639 1135 639 1118 q 645 1164 639 1150 q 662 1189 651 1179 q 686 1206 672 1200 q 717 1213 701 1213 q 747 1206 733 1213 q 771 1189 761 1200 q 787 1164 781 1179 q 793 1135 793 1150 z "},"È":{"ha":1023,"x_min":66,"x_max":961,"o":"m 930 755 q 879 831 911 798 q 809 888 848 865 q 726 923 770 911 q 640 935 683 935 q 552 918 593 935 q 475 872 511 901 q 410 804 439 844 q 359 719 381 764 q 323 623 337 673 q 302 522 309 572 l 880 522 q 859 462 866 494 q 848 404 851 431 q 843 342 844 372 l 821 338 q 799 410 812 381 q 760 454 786 438 q 691 477 734 471 q 579 484 648 484 l 298 484 l 298 454 q 311 347 298 399 q 348 246 324 294 q 406 158 372 198 q 484 89 441 118 q 577 43 526 59 q 685 26 628 26 q 776 36 736 26 q 844 61 815 46 q 892 94 873 76 q 925 128 912 112 q 944 157 938 144 q 954 174 951 170 l 943 78 q 898 36 928 56 q 827 0 868 16 q 735 -25 786 -16 q 625 -35 684 -35 q 411 -1 512 -35 q 234 93 311 32 q 113 240 158 154 q 66 433 68 327 q 105 631 68 543 q 202 784 141 719 q 343 893 262 850 q 515 957 424 936 q 626 972 564 968 q 751 975 688 975 q 866 974 812 975 q 957 972 920 972 q 946 916 949 941 q 943 869 943 891 q 948 813 943 839 q 961 757 953 787 l 930 755 m 522 1240 l 657 1042 l 583 1042 l 370 1240 l 522 1240 z "},"Í":{"ha":562,"x_min":54,"x_max":533,"o":"m 509 0 l 54 0 l 54 25 q 114 33 91 25 q 151 54 138 41 q 169 83 164 66 q 174 119 174 100 l 174 859 q 169 888 174 872 q 150 917 163 903 q 114 939 137 930 q 54 947 91 947 l 54 972 l 509 972 l 509 947 q 448 940 471 947 q 411 919 425 932 q 393 888 398 905 q 389 852 389 871 l 389 119 q 393 90 389 106 q 410 59 397 73 q 446 35 422 45 q 509 25 470 25 l 509 0 m 533 1240 l 319 1042 l 245 1042 l 380 1240 l 533 1240 z "},"Î":{"ha":562,"x_min":54,"x_max":509,"o":"m 509 0 l 54 0 l 54 25 q 114 33 91 25 q 151 54 138 41 q 169 83 164 66 q 174 119 174 100 l 174 859 q 169 888 174 872 q 150 917 163 903 q 114 939 137 930 q 54 947 91 947 l 54 972 l 509 972 l 509 947 q 448 940 471 947 q 411 919 425 932 q 393 888 398 905 q 389 852 389 871 l 389 119 q 393 90 389 106 q 410 59 397 73 q 446 35 422 45 q 509 25 470 25 l 509 0 m 460 1042 l 346 1042 l 248 1176 l 160 1042 l 103 1042 l 234 1240 l 326 1240 l 460 1042 z "},"Ï":{"ha":562,"x_min":54,"x_max":509,"o":"m 509 0 l 54 0 l 54 25 q 114 33 91 25 q 151 54 138 41 q 169 83 164 66 q 174 119 174 100 l 174 859 q 169 888 174 872 q 150 917 163 903 q 114 939 137 930 q 54 947 91 947 l 54 972 l 509 972 l 509 947 q 448 940 471 947 q 411 919 425 932 q 393 888 398 905 q 389 852 389 871 l 389 119 q 393 90 389 106 q 410 59 397 73 q 446 35 422 45 q 509 25 470 25 l 509 0 m 241 1135 q 236 1104 241 1118 q 220 1079 230 1090 q 196 1063 210 1069 q 165 1057 182 1057 q 135 1063 149 1057 q 110 1079 121 1069 q 94 1104 100 1090 q 87 1135 87 1118 q 94 1164 87 1150 q 110 1189 100 1179 q 135 1206 121 1200 q 165 1213 149 1213 q 196 1206 182 1213 q 220 1189 210 1200 q 236 1164 230 1179 q 241 1135 241 1150 m 475 1135 q 469 1104 475 1118 q 453 1079 463 1090 q 429 1063 443 1069 q 399 1057 415 1057 q 368 1063 382 1057 q 343 1079 354 1069 q 327 1104 333 1090 q 321 1135 321 1118 q 327 1164 321 1150 q 343 1189 333 1179 q 368 1206 354 1200 q 399 1213 382 1213 q 429 1206 415 1213 q 453 1189 443 1200 q 469 1164 463 1179 q 475 1135 475 1150 z "},"Ì":{"ha":562,"x_min":33,"x_max":509,"o":"m 509 0 l 54 0 l 54 25 q 114 33 91 25 q 151 54 138 41 q 169 83 164 66 q 174 119 174 100 l 174 859 q 169 888 174 872 q 150 917 163 903 q 114 939 137 930 q 54 947 91 947 l 54 972 l 509 972 l 509 947 q 448 940 471 947 q 411 919 425 932 q 393 888 398 905 q 389 852 389 871 l 389 119 q 393 90 389 106 q 410 59 397 73 q 446 35 422 45 q 509 25 470 25 l 509 0 m 186 1240 l 321 1042 l 247 1042 l 33 1240 l 186 1240 z "},"Ó":{"ha":1194,"x_min":65,"x_max":1129,"o":"m 65 486 q 81 602 65 543 q 127 716 96 661 q 202 821 157 772 q 306 907 248 870 q 437 965 365 943 q 595 986 510 986 q 756 966 682 986 q 889 912 829 947 q 993 830 948 878 q 1068 727 1038 783 q 1114 610 1099 672 q 1129 486 1129 549 q 1114 366 1129 427 q 1068 248 1099 304 q 993 140 1038 191 q 889 53 948 90 q 756 -6 829 16 q 595 -28 682 -28 q 436 -6 509 -28 q 305 52 363 15 q 201 140 246 90 q 126 247 157 190 q 80 365 96 304 q 65 486 65 427 m 298 489 q 305 375 298 431 q 326 268 311 319 q 362 173 340 216 q 418 96 385 129 q 493 45 450 64 q 590 25 536 26 q 688 44 644 25 q 766 97 732 64 q 825 175 800 130 q 865 270 849 220 q 889 375 882 321 q 899 482 897 430 q 892 590 899 536 q 871 694 886 644 q 833 787 857 744 q 777 863 810 831 q 701 913 744 895 q 602 932 657 932 q 504 916 547 932 q 428 869 461 899 q 370 799 394 840 q 330 709 346 758 q 307 604 315 659 q 298 489 299 548 m 844 1240 l 631 1042 l 557 1042 l 692 1240 l 844 1240 z "},"Ô":{"ha":1194,"x_min":65,"x_max":1129,"o":"m 65 486 q 81 602 65 543 q 127 716 96 661 q 202 821 157 772 q 306 907 248 870 q 437 965 365 943 q 595 986 510 986 q 756 966 682 986 q 889 912 829 947 q 993 830 948 878 q 1068 727 1038 783 q 1114 610 1099 672 q 1129 486 1129 549 q 1114 366 1129 427 q 1068 248 1099 304 q 993 140 1038 191 q 889 53 948 90 q 756 -6 829 16 q 595 -28 682 -28 q 436 -6 509 -28 q 305 52 363 15 q 201 140 246 90 q 126 247 157 190 q 80 365 96 304 q 65 486 65 427 m 298 489 q 305 375 298 431 q 326 268 311 319 q 362 173 340 216 q 418 96 385 129 q 493 45 450 64 q 590 25 536 26 q 688 44 644 25 q 766 97 732 64 q 825 175 800 130 q 865 270 849 220 q 889 375 882 321 q 899 482 897 430 q 892 590 899 536 q 871 694 886 644 q 833 787 857 744 q 777 863 810 831 q 701 913 744 895 q 602 932 657 932 q 504 916 547 932 q 428 869 461 899 q 370 799 394 840 q 330 709 346 758 q 307 604 315 659 q 298 489 299 548 m 774 1042 l 661 1042 l 562 1176 l 475 1042 l 418 1042 l 549 1240 l 640 1240 l 774 1042 z "},"Ò":{"ha":1194,"x_min":65,"x_max":1129,"o":"m 65 486 q 81 602 65 543 q 127 716 96 661 q 202 821 157 772 q 306 907 248 870 q 437 965 365 943 q 595 986 510 986 q 756 966 682 986 q 889 912 829 947 q 993 830 948 878 q 1068 727 1038 783 q 1114 610 1099 672 q 1129 486 1129 549 q 1114 366 1129 427 q 1068 248 1099 304 q 993 140 1038 191 q 889 53 948 90 q 756 -6 829 16 q 595 -28 682 -28 q 436 -6 509 -28 q 305 52 363 15 q 201 140 246 90 q 126 247 157 190 q 80 365 96 304 q 65 486 65 427 m 298 489 q 305 375 298 431 q 326 268 311 319 q 362 173 340 216 q 418 96 385 129 q 493 45 450 64 q 590 25 536 26 q 688 44 644 25 q 766 97 732 64 q 825 175 800 130 q 865 270 849 220 q 889 375 882 321 q 899 482 897 430 q 892 590 899 536 q 871 694 886 644 q 833 787 857 744 q 777 863 810 831 q 701 913 744 895 q 602 932 657 932 q 504 916 547 932 q 428 869 461 899 q 370 799 394 840 q 330 709 346 758 q 307 604 315 659 q 298 489 299 548 m 490 1240 l 625 1042 l 551 1042 l 338 1240 l 490 1240 z "},"Ú":{"ha":1243,"x_min":64,"x_max":1189,"o":"m 734 972 l 1189 972 l 1189 947 q 1129 940 1152 947 q 1092 919 1105 932 q 1074 888 1079 905 q 1069 852 1069 871 l 1069 119 q 1074 90 1069 106 q 1091 59 1078 73 q 1127 35 1103 45 q 1189 25 1150 25 l 1189 0 l 854 0 l 854 102 q 801 52 830 75 q 736 11 772 28 q 659 -17 701 -7 q 567 -28 616 -28 q 445 -15 506 -28 q 328 24 384 -2 q 224 88 272 50 q 140 177 176 126 q 84 291 104 227 q 64 429 64 354 q 82 579 64 511 q 132 705 101 648 q 202 807 163 762 q 283 886 241 852 q 503 1017 380 968 l 521 1000 q 501 983 518 998 q 460 937 484 967 q 408 860 435 906 q 356 749 380 813 q 317 601 332 684 q 301 414 301 517 q 322 242 301 315 q 382 119 344 168 q 472 45 420 70 q 585 21 524 21 q 688 42 640 21 q 774 101 737 63 q 833 192 811 139 q 854 307 854 244 l 854 852 q 850 883 854 866 q 833 913 846 899 q 797 938 821 928 q 734 947 773 947 l 734 972 m 880 1240 l 667 1042 l 593 1042 l 728 1240 l 880 1240 z "},"Û":{"ha":1243,"x_min":64,"x_max":1189,"o":"m 734 972 l 1189 972 l 1189 947 q 1129 940 1152 947 q 1092 919 1105 932 q 1074 888 1079 905 q 1069 852 1069 871 l 1069 119 q 1074 90 1069 106 q 1091 59 1078 73 q 1127 35 1103 45 q 1189 25 1150 25 l 1189 0 l 854 0 l 854 102 q 801 52 830 75 q 736 11 772 28 q 659 -17 701 -7 q 567 -28 616 -28 q 445 -15 506 -28 q 328 24 384 -2 q 224 88 272 50 q 140 177 176 126 q 84 291 104 227 q 64 429 64 354 q 82 579 64 511 q 132 705 101 648 q 202 807 163 762 q 283 886 241 852 q 503 1017 380 968 l 521 1000 q 501 983 518 998 q 460 937 484 967 q 408 860 435 906 q 356 749 380 813 q 317 601 332 684 q 301 414 301 517 q 322 242 301 315 q 382 119 344 168 q 472 45 420 70 q 585 21 524 21 q 688 42 640 21 q 774 101 737 63 q 833 192 811 139 q 854 307 854 244 l 854 852 q 850 883 854 866 q 833 913 846 899 q 797 938 821 928 q 734 947 773 947 l 734 972 m 804 1042 l 690 1042 l 591 1176 l 504 1042 l 447 1042 l 578 1240 l 669 1240 l 804 1042 z "},"Ù":{"ha":1243,"x_min":64,"x_max":1189,"o":"m 734 972 l 1189 972 l 1189 947 q 1129 940 1152 947 q 1092 919 1105 932 q 1074 888 1079 905 q 1069 852 1069 871 l 1069 119 q 1074 90 1069 106 q 1091 59 1078 73 q 1127 35 1103 45 q 1189 25 1150 25 l 1189 0 l 854 0 l 854 102 q 801 52 830 75 q 736 11 772 28 q 659 -17 701 -7 q 567 -28 616 -28 q 445 -15 506 -28 q 328 24 384 -2 q 224 88 272 50 q 140 177 176 126 q 84 291 104 227 q 64 429 64 354 q 82 579 64 511 q 132 705 101 648 q 202 807 163 762 q 283 886 241 852 q 503 1017 380 968 l 521 1000 q 501 983 518 998 q 460 937 484 967 q 408 860 435 906 q 356 749 380 813 q 317 601 332 684 q 301 414 301 517 q 322 242 301 315 q 382 119 344 168 q 472 45 420 70 q 585 21 524 21 q 688 42 640 21 q 774 101 737 63 q 833 192 811 139 q 854 307 854 244 l 854 852 q 850 883 854 866 q 833 913 846 899 q 797 938 821 928 q 734 947 773 947 l 734 972 m 530 1240 l 665 1042 l 591 1042 l 378 1240 l 530 1240 z "},"Ä":{"ha":1104,"x_min":-3,"x_max":1181,"o":"m 1181 36 q 1068 2 1119 11 q 977 -7 1017 -7 q 920 -3 944 -7 q 880 6 897 1 q 846 20 860 12 q 793 64 816 37 q 753 122 771 91 q 721 186 735 153 q 693 249 707 220 l 676 285 q 548 240 608 265 q 443 190 489 214 q 365 144 397 165 q 321 114 334 123 q 264 64 296 86 q 195 27 233 43 q 109 4 156 12 q 4 -4 61 -4 l -3 25 q 111 67 63 36 q 193 144 159 98 q 252 247 228 190 q 296 368 277 304 q 325 446 307 405 q 368 525 342 486 q 426 596 393 563 q 501 653 459 630 q 478 697 490 675 q 457 743 467 720 q 429 803 443 770 q 395 864 414 836 q 350 911 376 892 q 285 930 323 930 q 232 924 258 930 q 182 909 205 918 l 172 937 q 292 971 231 957 q 412 985 353 985 q 469 981 441 985 q 522 968 496 977 q 566 941 545 960 q 606 897 587 922 q 641 842 625 871 q 672 784 658 813 q 699 729 687 755 q 720 684 711 703 q 838 427 779 555 q 965 174 897 298 q 991 130 977 151 q 1022 91 1005 108 q 1061 64 1040 74 q 1108 54 1082 54 q 1134 56 1118 54 q 1171 66 1151 58 l 1181 36 m 539 575 q 507 516 522 547 q 480 454 492 486 q 458 391 468 422 q 437 332 448 360 q 415 271 427 300 q 389 214 404 241 q 508 276 439 243 q 654 332 576 309 l 539 575 m 501 1135 q 495 1104 501 1118 q 479 1079 490 1090 q 455 1063 469 1069 q 425 1057 441 1057 q 395 1063 409 1057 q 370 1079 380 1069 q 353 1104 359 1090 q 347 1135 347 1118 q 353 1164 347 1150 q 370 1189 359 1179 q 395 1206 380 1200 q 425 1213 409 1213 q 455 1206 441 1213 q 479 1189 469 1200 q 495 1164 490 1179 q 501 1135 501 1150 m 734 1135 q 729 1104 734 1118 q 713 1079 723 1090 q 689 1063 703 1069 q 659 1057 675 1057 q 628 1063 642 1057 q 603 1079 614 1069 q 587 1104 593 1090 q 581 1135 581 1118 q 587 1164 581 1150 q 603 1189 593 1179 q 628 1206 614 1200 q 659 1213 642 1213 q 689 1206 675 1213 q 713 1189 703 1200 q 729 1164 723 1179 q 734 1135 734 1150 z "},"Å":{"ha":1104,"x_min":-3,"x_max":1181,"o":"m 1181 36 q 1068 2 1119 11 q 977 -7 1017 -7 q 920 -3 944 -7 q 880 6 897 1 q 846 20 860 12 q 793 64 816 37 q 753 122 771 91 q 721 186 735 153 q 693 249 707 220 l 676 285 q 548 240 608 265 q 443 190 489 214 q 365 144 397 165 q 321 114 334 123 q 264 64 296 86 q 195 27 233 43 q 109 4 156 12 q 4 -4 61 -4 l -3 25 q 111 67 63 36 q 193 144 159 98 q 252 247 228 190 q 296 368 277 304 q 325 446 307 405 q 368 525 342 486 q 426 596 393 563 q 501 653 459 630 q 478 697 490 675 q 457 743 467 720 q 429 803 443 770 q 395 864 414 836 q 350 911 376 892 q 285 930 323 930 q 232 924 258 930 q 182 909 205 918 l 172 937 q 292 971 231 957 q 412 985 353 985 q 469 981 441 985 q 522 968 496 977 q 566 941 545 960 q 606 897 587 922 q 641 842 625 871 q 672 784 658 813 q 699 729 687 755 q 720 684 711 703 q 838 427 779 555 q 965 174 897 298 q 991 130 977 151 q 1022 91 1005 108 q 1061 64 1040 74 q 1108 54 1082 54 q 1134 56 1118 54 q 1171 66 1151 58 l 1181 36 m 539 575 q 507 516 522 547 q 480 454 492 486 q 458 391 468 422 q 437 332 448 360 q 415 271 427 300 q 389 214 404 241 q 508 276 439 243 q 654 332 576 309 l 539 575 m 692 1156 q 680 1096 692 1124 q 647 1046 667 1067 q 598 1013 626 1025 q 537 1001 570 1001 q 477 1013 505 1001 q 429 1046 450 1025 q 396 1096 408 1067 q 385 1156 385 1124 q 396 1216 385 1187 q 429 1264 408 1244 q 477 1297 450 1285 q 537 1310 505 1310 q 597 1297 569 1310 q 646 1264 625 1285 q 680 1216 667 1244 q 692 1156 692 1187 m 608 1156 q 602 1212 608 1190 q 584 1246 595 1234 q 561 1263 574 1259 q 537 1268 549 1268 q 513 1262 526 1268 q 491 1241 501 1255 q 474 1206 481 1227 q 468 1156 468 1185 q 474 1106 468 1127 q 491 1071 481 1085 q 513 1050 501 1057 q 537 1043 526 1043 q 562 1050 549 1043 q 585 1070 574 1057 q 602 1105 595 1084 q 608 1156 608 1126 z "},"Ç":{"ha":1021,"x_min":65,"x_max":960,"o":"m 657 -168 q 645 -228 657 -203 q 611 -268 633 -253 q 561 -290 590 -283 q 498 -297 532 -297 q 448 -287 471 -297 q 406 -258 424 -276 q 378 -216 389 -240 q 368 -165 368 -193 l 403 -165 q 412 -205 403 -188 q 434 -235 421 -223 q 460 -253 447 -247 q 482 -260 474 -260 q 520 -251 505 -260 q 545 -228 536 -241 q 558 -198 554 -214 q 562 -168 562 -182 q 552 -122 562 -138 q 526 -97 541 -105 q 495 -87 511 -89 q 469 -85 479 -85 l 500 -22 q 330 32 409 -7 q 192 129 251 71 q 100 264 134 187 q 65 433 66 341 q 103 631 67 543 q 200 784 140 719 q 342 893 261 850 q 514 957 422 936 q 625 972 562 968 q 750 975 687 975 q 865 974 811 975 q 956 972 919 972 q 945 916 948 941 q 942 869 942 891 q 947 813 942 839 q 960 757 951 787 l 929 755 q 878 831 909 798 q 807 888 846 865 q 725 923 768 911 q 639 935 682 935 q 542 914 587 935 q 458 859 496 894 q 390 776 420 823 q 339 676 360 729 q 308 566 319 623 q 297 454 297 509 q 310 347 297 399 q 347 246 323 294 q 405 158 370 198 q 482 89 439 118 q 576 43 525 59 q 684 26 627 26 q 774 36 735 26 q 843 61 814 46 q 891 94 871 76 q 923 128 911 112 q 943 157 936 144 q 953 174 949 170 l 942 78 q 893 34 924 54 q 821 -1 863 14 q 729 -25 780 -16 q 623 -33 679 -33 q 581 -32 602 -33 q 541 -28 560 -30 l 528 -56 q 572 -63 549 -56 q 614 -85 595 -71 q 645 -120 633 -99 q 657 -168 657 -141 z "},"É":{"ha":1023,"x_min":66,"x_max":961,"o":"m 930 755 q 879 831 911 798 q 809 888 848 865 q 726 923 770 911 q 640 935 683 935 q 552 918 593 935 q 475 872 511 901 q 410 804 439 844 q 359 719 381 764 q 323 623 337 673 q 302 522 309 572 l 880 522 q 859 462 866 494 q 848 404 851 431 q 843 342 844 372 l 821 338 q 799 410 812 381 q 760 454 786 438 q 691 477 734 471 q 579 484 648 484 l 298 484 l 298 454 q 311 347 298 399 q 348 246 324 294 q 406 158 372 198 q 484 89 441 118 q 577 43 526 59 q 685 26 628 26 q 776 36 736 26 q 844 61 815 46 q 892 94 873 76 q 925 128 912 112 q 944 157 938 144 q 954 174 951 170 l 943 78 q 898 36 928 56 q 827 0 868 16 q 735 -25 786 -16 q 625 -35 684 -35 q 411 -1 512 -35 q 234 93 311 32 q 113 240 158 154 q 66 433 68 327 q 105 631 68 543 q 202 784 141 719 q 343 893 262 850 q 515 957 424 936 q 626 972 564 968 q 751 975 688 975 q 866 974 812 975 q 957 972 920 972 q 946 916 949 941 q 943 869 943 891 q 948 813 943 839 q 961 757 953 787 l 930 755 m 835 1240 l 621 1042 l 547 1042 l 682 1240 l 835 1240 z "},"Ñ":{"ha":1135,"x_min":56,"x_max":1090,"o":"m 56 972 l 396 972 l 909 349 l 909 859 q 904 888 909 872 q 886 917 899 903 q 850 939 873 930 q 790 947 827 947 l 790 972 l 1090 972 l 1090 947 q 1030 940 1053 947 q 994 919 1007 932 q 976 888 981 905 q 971 852 971 871 l 971 0 l 909 0 l 236 812 l 236 119 q 240 90 236 106 q 257 59 245 73 q 293 35 270 45 q 355 25 317 25 l 355 0 l 56 0 l 56 25 q 116 33 92 25 q 152 54 139 41 q 170 83 165 66 q 175 119 175 100 l 175 886 q 145 916 159 905 q 118 935 132 928 q 89 945 104 942 q 56 947 74 947 l 56 972 m 802 1226 q 788 1159 799 1192 q 760 1100 778 1126 q 715 1058 741 1074 q 656 1042 689 1042 q 587 1056 615 1042 q 535 1088 558 1071 q 492 1120 513 1105 q 448 1135 472 1135 q 410 1124 424 1135 q 390 1098 397 1113 q 381 1067 382 1083 q 379 1042 379 1052 l 343 1042 q 353 1109 345 1076 q 378 1169 361 1143 q 422 1211 395 1195 q 492 1226 450 1226 q 555 1212 528 1226 q 605 1180 583 1198 q 648 1149 628 1163 q 690 1135 669 1135 q 725 1145 711 1135 q 747 1171 739 1156 q 759 1201 755 1185 q 762 1226 762 1216 l 802 1226 z "},"Ö":{"ha":1194,"x_min":65,"x_max":1129,"o":"m 65 486 q 81 602 65 543 q 127 716 96 661 q 202 821 157 772 q 306 907 248 870 q 437 965 365 943 q 595 986 510 986 q 756 966 682 986 q 889 912 829 947 q 993 830 948 878 q 1068 727 1038 783 q 1114 610 1099 672 q 1129 486 1129 549 q 1114 366 1129 427 q 1068 248 1099 304 q 993 140 1038 191 q 889 53 948 90 q 756 -6 829 16 q 595 -28 682 -28 q 436 -6 509 -28 q 305 52 363 15 q 201 140 246 90 q 126 247 157 190 q 80 365 96 304 q 65 486 65 427 m 298 489 q 305 375 298 431 q 326 268 311 319 q 362 173 340 216 q 418 96 385 129 q 493 45 450 64 q 590 25 536 26 q 688 44 644 25 q 766 97 732 64 q 825 175 800 130 q 865 270 849 220 q 889 375 882 321 q 899 482 897 430 q 892 590 899 536 q 871 694 886 644 q 833 787 857 744 q 777 863 810 831 q 701 913 744 895 q 602 932 657 932 q 504 916 547 932 q 428 869 461 899 q 370 799 394 840 q 330 709 346 758 q 307 604 315 659 q 298 489 299 548 m 557 1135 q 551 1104 557 1118 q 535 1079 545 1090 q 511 1063 525 1069 q 481 1057 497 1057 q 450 1063 465 1057 q 426 1079 436 1069 q 409 1104 415 1090 q 403 1135 403 1118 q 409 1164 403 1150 q 426 1189 415 1179 q 450 1206 436 1200 q 481 1213 465 1213 q 511 1206 497 1213 q 535 1189 525 1200 q 551 1164 545 1179 q 557 1135 557 1150 m 790 1135 q 784 1104 790 1118 q 768 1079 779 1090 q 744 1063 758 1069 q 714 1057 730 1057 q 684 1063 698 1057 q 659 1079 669 1069 q 642 1104 648 1090 q 636 1135 636 1118 q 642 1164 636 1150 q 659 1189 648 1179 q 684 1206 669 1200 q 714 1213 698 1213 q 744 1206 730 1213 q 768 1189 758 1200 q 784 1164 779 1179 q 790 1135 790 1150 z "},"Ü":{"ha":1243,"x_min":64,"x_max":1189,"o":"m 734 972 l 1189 972 l 1189 947 q 1129 940 1152 947 q 1092 919 1105 932 q 1074 888 1079 905 q 1069 852 1069 871 l 1069 119 q 1074 90 1069 106 q 1091 59 1078 73 q 1127 35 1103 45 q 1189 25 1150 25 l 1189 0 l 854 0 l 854 102 q 801 52 830 75 q 736 11 772 28 q 659 -17 701 -7 q 567 -28 616 -28 q 445 -15 506 -28 q 328 24 384 -2 q 224 88 272 50 q 140 177 176 126 q 84 291 104 227 q 64 429 64 354 q 82 579 64 511 q 132 705 101 648 q 202 807 163 762 q 283 886 241 852 q 503 1017 380 968 l 521 1000 q 501 983 518 998 q 460 937 484 967 q 408 860 435 906 q 356 749 380 813 q 317 601 332 684 q 301 414 301 517 q 322 242 301 315 q 382 119 344 168 q 472 45 420 70 q 585 21 524 21 q 688 42 640 21 q 774 101 737 63 q 833 192 811 139 q 854 307 854 244 l 854 852 q 850 883 854 866 q 833 913 846 899 q 797 938 821 928 q 734 947 773 947 l 734 972 m 586 1135 q 580 1104 586 1118 q 564 1079 574 1090 q 540 1063 554 1069 q 510 1057 526 1057 q 479 1063 494 1057 q 455 1079 465 1069 q 438 1104 444 1090 q 432 1135 432 1118 q 438 1164 432 1150 q 455 1189 444 1179 q 479 1206 465 1200 q 510 1213 494 1213 q 540 1206 526 1213 q 564 1189 554 1200 q 580 1164 574 1179 q 586 1135 586 1150 m 819 1135 q 813 1104 819 1118 q 798 1079 808 1090 q 773 1063 787 1069 q 743 1057 760 1057 q 713 1063 727 1057 q 688 1079 699 1069 q 671 1104 677 1090 q 665 1135 665 1118 q 671 1164 665 1150 q 688 1189 677 1179 q 713 1206 699 1200 q 743 1213 727 1213 q 773 1206 760 1213 q 798 1189 787 1200 q 813 1164 808 1179 q 819 1135 819 1150 z "},"á":{"ha":978,"x_min":54,"x_max":936,"o":"m 472 758 q 565 747 523 758 q 641 721 608 736 q 697 688 673 705 q 736 656 722 670 q 781 685 757 672 q 831 708 806 699 q 881 723 856 718 q 928 729 905 728 l 936 707 q 887 671 909 696 q 853 614 869 650 q 836 518 838 577 q 836 446 836 484 q 835 373 836 409 q 834 303 835 336 q 834 245 834 271 q 833 203 833 219 q 833 184 833 187 q 849 89 833 125 q 883 31 864 52 q 933 -4 905 7 l 925 -26 q 854 -15 892 -25 q 780 14 816 -5 q 713 57 744 32 q 664 115 683 83 q 629 65 650 90 q 578 22 608 41 q 506 -9 547 3 q 411 -21 465 -21 q 256 11 323 -21 q 144 93 189 42 q 77 209 100 144 q 54 339 54 273 q 66 439 54 389 q 101 535 78 489 q 160 623 125 582 q 241 693 195 663 q 345 741 288 724 q 472 758 403 758 m 475 50 q 553 72 522 50 q 603 125 585 94 q 631 191 622 156 q 643 252 640 225 l 648 509 q 643 543 647 523 q 632 585 640 564 q 613 629 625 607 q 583 668 601 651 q 539 696 564 685 q 479 707 513 707 q 387 681 429 707 q 317 611 346 655 q 272 507 288 566 q 256 382 256 448 q 274 233 256 295 q 324 130 293 170 q 394 70 355 89 q 475 50 433 50 m 720 1000 l 506 802 l 432 802 l 567 1000 l 720 1000 z "},"à":{"ha":978,"x_min":54,"x_max":936,"o":"m 472 758 q 565 747 523 758 q 641 721 608 736 q 697 688 673 705 q 736 656 722 670 q 781 685 757 672 q 831 708 806 699 q 881 723 856 718 q 928 729 905 728 l 936 707 q 887 671 909 696 q 853 614 869 650 q 836 518 838 577 q 836 446 836 484 q 835 373 836 409 q 834 303 835 336 q 834 245 834 271 q 833 203 833 219 q 833 184 833 187 q 849 89 833 125 q 883 31 864 52 q 933 -4 905 7 l 925 -26 q 854 -15 892 -25 q 780 14 816 -5 q 713 57 744 32 q 664 115 683 83 q 629 65 650 90 q 578 22 608 41 q 506 -9 547 3 q 411 -21 465 -21 q 256 11 323 -21 q 144 93 189 42 q 77 209 100 144 q 54 339 54 273 q 66 439 54 389 q 101 535 78 489 q 160 623 125 582 q 241 693 195 663 q 345 741 288 724 q 472 758 403 758 m 475 50 q 553 72 522 50 q 603 125 585 94 q 631 191 622 156 q 643 252 640 225 l 648 509 q 643 543 647 523 q 632 585 640 564 q 613 629 625 607 q 583 668 601 651 q 539 696 564 685 q 479 707 513 707 q 387 681 429 707 q 317 611 346 655 q 272 507 288 566 q 256 382 256 448 q 274 233 256 295 q 324 130 293 170 q 394 70 355 89 q 475 50 433 50 m 369 1000 l 504 802 l 430 802 l 216 1000 l 369 1000 z "},"â":{"ha":978,"x_min":54,"x_max":936,"o":"m 472 758 q 565 747 523 758 q 641 721 608 736 q 697 688 673 705 q 736 656 722 670 q 781 685 757 672 q 831 708 806 699 q 881 723 856 718 q 928 729 905 728 l 936 707 q 887 671 909 696 q 853 614 869 650 q 836 518 838 577 q 836 446 836 484 q 835 373 836 409 q 834 303 835 336 q 834 245 834 271 q 833 203 833 219 q 833 184 833 187 q 849 89 833 125 q 883 31 864 52 q 933 -4 905 7 l 925 -26 q 854 -15 892 -25 q 780 14 816 -5 q 713 57 744 32 q 664 115 683 83 q 629 65 650 90 q 578 22 608 41 q 506 -9 547 3 q 411 -21 465 -21 q 256 11 323 -21 q 144 93 189 42 q 77 209 100 144 q 54 339 54 273 q 66 439 54 389 q 101 535 78 489 q 160 623 125 582 q 241 693 195 663 q 345 741 288 724 q 472 758 403 758 m 475 50 q 553 72 522 50 q 603 125 585 94 q 631 191 622 156 q 643 252 640 225 l 648 509 q 643 543 647 523 q 632 585 640 564 q 613 629 625 607 q 583 668 601 651 q 539 696 564 685 q 479 707 513 707 q 387 681 429 707 q 317 611 346 655 q 272 507 288 566 q 256 382 256 448 q 274 233 256 295 q 324 130 293 170 q 394 70 355 89 q 475 50 433 50 m 673 802 l 559 802 l 461 936 l 374 802 l 317 802 l 448 1000 l 539 1000 l 673 802 z "},"ä":{"ha":978,"x_min":54,"x_max":936,"o":"m 472 758 q 565 747 523 758 q 641 721 608 736 q 697 688 673 705 q 736 656 722 670 q 781 685 757 672 q 831 708 806 699 q 881 723 856 718 q 928 729 905 728 l 936 707 q 887 671 909 696 q 853 614 869 650 q 836 518 838 577 q 836 446 836 484 q 835 373 836 409 q 834 303 835 336 q 834 245 834 271 q 833 203 833 219 q 833 184 833 187 q 849 89 833 125 q 883 31 864 52 q 933 -4 905 7 l 925 -26 q 854 -15 892 -25 q 780 14 816 -5 q 713 57 744 32 q 664 115 683 83 q 629 65 650 90 q 578 22 608 41 q 506 -9 547 3 q 411 -21 465 -21 q 256 11 323 -21 q 144 93 189 42 q 77 209 100 144 q 54 339 54 273 q 66 439 54 389 q 101 535 78 489 q 160 623 125 582 q 241 693 195 663 q 345 741 288 724 q 472 758 403 758 m 475 50 q 553 72 522 50 q 603 125 585 94 q 631 191 622 156 q 643 252 640 225 l 648 509 q 643 543 647 523 q 632 585 640 564 q 613 629 625 607 q 583 668 601 651 q 539 696 564 685 q 479 707 513 707 q 387 681 429 707 q 317 611 346 655 q 272 507 288 566 q 256 382 256 448 q 274 233 256 295 q 324 130 293 170 q 394 70 355 89 q 475 50 433 50 m 455 895 q 449 864 455 878 q 433 839 444 850 q 409 823 423 829 q 379 817 395 817 q 349 823 363 817 q 324 839 334 829 q 307 864 313 850 q 301 895 301 878 q 307 924 301 910 q 324 949 313 939 q 349 966 334 960 q 379 972 363 972 q 409 966 395 972 q 433 949 423 960 q 449 924 444 939 q 455 895 455 910 m 688 895 q 683 864 688 878 q 667 839 677 850 q 643 823 656 829 q 612 817 629 817 q 582 823 596 817 q 557 839 568 829 q 541 864 547 850 q 534 895 534 878 q 541 924 534 910 q 557 949 547 939 q 582 966 568 960 q 612 972 596 972 q 643 966 629 972 q 667 949 656 960 q 683 924 677 939 q 688 895 688 910 z "},"ã":{"ha":978,"x_min":54,"x_max":936,"o":"m 472 758 q 565 747 523 758 q 641 721 608 736 q 697 688 673 705 q 736 656 722 670 q 781 685 757 672 q 831 708 806 699 q 881 723 856 718 q 928 729 905 728 l 936 707 q 887 671 909 696 q 853 614 869 650 q 836 518 838 577 q 836 446 836 484 q 835 373 836 409 q 834 303 835 336 q 834 245 834 271 q 833 203 833 219 q 833 184 833 187 q 849 89 833 125 q 883 31 864 52 q 933 -4 905 7 l 925 -26 q 854 -15 892 -25 q 780 14 816 -5 q 713 57 744 32 q 664 115 683 83 q 629 65 650 90 q 578 22 608 41 q 506 -9 547 3 q 411 -21 465 -21 q 256 11 323 -21 q 144 93 189 42 q 77 209 100 144 q 54 339 54 273 q 66 439 54 389 q 101 535 78 489 q 160 623 125 582 q 241 693 195 663 q 345 741 288 724 q 472 758 403 758 m 475 50 q 553 72 522 50 q 603 125 585 94 q 631 191 622 156 q 643 252 640 225 l 648 509 q 643 543 647 523 q 632 585 640 564 q 613 629 625 607 q 583 668 601 651 q 539 696 564 685 q 479 707 513 707 q 387 681 429 707 q 317 611 346 655 q 272 507 288 566 q 256 382 256 448 q 274 233 256 295 q 324 130 293 170 q 394 70 355 89 q 475 50 433 50 m 724 986 q 710 919 721 952 q 682 860 700 886 q 637 818 663 834 q 578 802 611 802 q 509 816 537 802 q 457 848 480 831 q 414 880 435 865 q 370 895 394 895 q 332 884 346 895 q 312 858 319 873 q 303 827 304 843 q 301 802 301 812 l 265 802 q 275 869 267 836 q 300 929 283 903 q 345 970 317 955 q 414 986 372 986 q 477 972 450 986 q 527 940 505 958 q 570 909 550 923 q 612 895 591 895 q 647 905 633 895 q 669 930 661 916 q 681 961 677 945 q 684 986 684 976 l 724 986 z "},"å":{"ha":978,"x_min":54,"x_max":936,"o":"m 472 758 q 565 747 523 758 q 641 721 608 736 q 697 688 673 705 q 736 656 722 670 q 781 685 757 672 q 831 708 806 699 q 881 723 856 718 q 928 729 905 728 l 936 707 q 887 671 909 696 q 853 614 869 650 q 836 518 838 577 q 836 446 836 484 q 835 373 836 409 q 834 303 835 336 q 834 245 834 271 q 833 203 833 219 q 833 184 833 187 q 849 89 833 125 q 883 31 864 52 q 933 -4 905 7 l 925 -26 q 854 -15 892 -25 q 780 14 816 -5 q 713 57 744 32 q 664 115 683 83 q 629 65 650 90 q 578 22 608 41 q 506 -9 547 3 q 411 -21 465 -21 q 256 11 323 -21 q 144 93 189 42 q 77 209 100 144 q 54 339 54 273 q 66 439 54 389 q 101 535 78 489 q 160 623 125 582 q 241 693 195 663 q 345 741 288 724 q 472 758 403 758 m 475 50 q 553 72 522 50 q 603 125 585 94 q 631 191 622 156 q 643 252 640 225 l 648 509 q 643 543 647 523 q 632 585 640 564 q 613 629 625 607 q 583 668 601 651 q 539 696 564 685 q 479 707 513 707 q 387 681 429 707 q 317 611 346 655 q 272 507 288 566 q 256 382 256 448 q 274 233 256 295 q 324 130 293 170 q 394 70 355 89 q 475 50 433 50 m 614 957 q 602 897 614 925 q 569 848 590 869 q 520 814 549 827 q 460 802 492 802 q 400 814 428 802 q 352 848 372 827 q 319 897 331 869 q 307 957 307 925 q 319 1017 307 989 q 352 1066 331 1045 q 400 1099 372 1086 q 460 1111 428 1111 q 520 1099 492 1111 q 569 1066 548 1086 q 602 1017 590 1045 q 614 957 614 989 m 531 957 q 524 1013 531 991 q 507 1047 517 1035 q 484 1065 496 1060 q 460 1069 471 1069 q 436 1063 448 1069 q 414 1043 424 1057 q 397 1007 404 1029 q 391 957 391 986 q 397 907 391 928 q 414 872 404 886 q 436 851 424 859 q 460 844 448 844 q 485 851 472 844 q 507 871 497 858 q 524 906 517 885 q 531 957 531 928 z "},"ç":{"ha":821,"x_min":58,"x_max":770,"o":"m 558 -182 q 546 -242 558 -218 q 512 -282 534 -267 q 462 -304 491 -298 q 400 -311 433 -311 q 349 -301 373 -311 q 308 -272 326 -290 q 279 -230 290 -254 q 269 -179 269 -206 l 304 -179 q 314 -219 304 -201 q 335 -249 323 -237 q 361 -267 348 -260 q 383 -273 375 -273 q 421 -264 406 -273 q 446 -242 437 -256 q 460 -212 456 -228 q 464 -182 464 -196 q 453 -136 464 -153 q 428 -111 443 -119 q 397 -100 413 -102 q 371 -98 381 -98 l 411 -20 q 266 16 331 -10 q 155 84 201 41 q 83 188 109 127 q 58 325 58 248 q 81 466 60 405 q 137 572 101 527 q 223 648 173 618 q 333 697 273 679 q 464 724 393 716 q 610 732 534 732 q 697 730 660 732 q 766 729 735 729 q 758 679 760 705 q 755 635 755 652 q 759 590 755 611 q 770 547 763 569 l 747 546 q 707 603 732 578 q 653 645 683 628 q 592 672 624 663 q 529 681 559 681 q 420 650 469 681 q 336 571 371 620 q 283 463 302 523 q 264 343 264 402 q 285 223 264 281 q 345 122 306 166 q 439 53 383 79 q 564 26 494 26 q 658 42 621 26 q 719 78 696 58 q 752 116 741 98 q 765 138 762 134 l 755 58 q 720 25 743 41 q 665 -2 696 9 q 594 -20 633 -14 q 511 -26 555 -26 q 479 -26 494 -26 q 449 -24 463 -25 l 429 -69 q 474 -77 451 -69 q 516 -98 497 -84 q 546 -134 534 -113 q 558 -182 558 -155 z "},"é":{"ha":907,"x_min":54,"x_max":867,"o":"m 269 424 q 268 395 268 409 q 268 367 268 381 q 276 241 268 302 q 306 133 284 180 q 368 56 328 85 q 469 25 407 26 q 541 38 509 25 q 596 74 572 51 q 637 127 620 96 q 665 193 654 157 l 825 139 q 767 75 801 104 q 689 25 733 46 q 592 -9 646 3 q 473 -21 538 -21 q 342 -5 401 -21 q 236 39 283 11 q 156 104 190 66 q 99 184 121 142 q 65 273 76 227 q 54 364 54 319 q 64 452 54 407 q 95 541 74 497 q 148 622 116 584 q 225 690 180 661 q 329 736 271 719 q 460 753 387 753 q 641 726 566 753 q 765 655 716 700 q 837 550 813 610 q 867 424 861 490 l 269 424 m 464 705 q 380 687 414 705 q 323 637 346 669 q 289 562 301 605 q 272 469 277 519 l 654 469 q 640 561 650 518 q 608 636 629 604 q 552 687 587 668 q 464 705 517 705 m 720 1000 l 506 802 l 432 802 l 567 1000 l 720 1000 z "},"è":{"ha":907,"x_min":54,"x_max":867,"o":"m 269 424 q 268 395 268 409 q 268 367 268 381 q 276 241 268 302 q 306 133 284 180 q 368 56 328 85 q 469 25 407 26 q 541 38 509 25 q 596 74 572 51 q 637 127 620 96 q 665 193 654 157 l 825 139 q 767 75 801 104 q 689 25 733 46 q 592 -9 646 3 q 473 -21 538 -21 q 342 -5 401 -21 q 236 39 283 11 q 156 104 190 66 q 99 184 121 142 q 65 273 76 227 q 54 364 54 319 q 64 452 54 407 q 95 541 74 497 q 148 622 116 584 q 225 690 180 661 q 329 736 271 719 q 460 753 387 753 q 641 726 566 753 q 765 655 716 700 q 837 550 813 610 q 867 424 861 490 l 269 424 m 464 705 q 380 687 414 705 q 323 637 346 669 q 289 562 301 605 q 272 469 277 519 l 654 469 q 640 561 650 518 q 608 636 629 604 q 552 687 587 668 q 464 705 517 705 m 365 1000 l 500 802 l 426 802 l 212 1000 l 365 1000 z "},"ê":{"ha":907,"x_min":54,"x_max":867,"o":"m 269 424 q 268 395 268 409 q 268 367 268 381 q 276 241 268 302 q 306 133 284 180 q 368 56 328 85 q 469 25 407 26 q 541 38 509 25 q 596 74 572 51 q 637 127 620 96 q 665 193 654 157 l 825 139 q 767 75 801 104 q 689 25 733 46 q 592 -9 646 3 q 473 -21 538 -21 q 342 -5 401 -21 q 236 39 283 11 q 156 104 190 66 q 99 184 121 142 q 65 273 76 227 q 54 364 54 319 q 64 452 54 407 q 95 541 74 497 q 148 622 116 584 q 225 690 180 661 q 329 736 271 719 q 460 753 387 753 q 641 726 566 753 q 765 655 716 700 q 837 550 813 610 q 867 424 861 490 l 269 424 m 464 705 q 380 687 414 705 q 323 637 346 669 q 289 562 301 605 q 272 469 277 519 l 654 469 q 640 561 650 518 q 608 636 629 604 q 552 687 587 668 q 464 705 517 705 m 661 802 l 547 802 l 449 936 l 361 802 l 304 802 l 435 1000 l 527 1000 l 661 802 z "},"ë":{"ha":907,"x_min":54,"x_max":867,"o":"m 269 424 q 268 395 268 409 q 268 367 268 381 q 276 241 268 302 q 306 133 284 180 q 368 56 328 85 q 469 25 407 26 q 541 38 509 25 q 596 74 572 51 q 637 127 620 96 q 665 193 654 157 l 825 139 q 767 75 801 104 q 689 25 733 46 q 592 -9 646 3 q 473 -21 538 -21 q 342 -5 401 -21 q 236 39 283 11 q 156 104 190 66 q 99 184 121 142 q 65 273 76 227 q 54 364 54 319 q 64 452 54 407 q 95 541 74 497 q 148 622 116 584 q 225 690 180 661 q 329 736 271 719 q 460 753 387 753 q 641 726 566 753 q 765 655 716 700 q 837 550 813 610 q 867 424 861 490 l 269 424 m 464 705 q 380 687 414 705 q 323 637 346 669 q 289 562 301 605 q 272 469 277 519 l 654 469 q 640 561 650 518 q 608 636 629 604 q 552 687 587 668 q 464 705 517 705 m 420 895 q 415 864 420 878 q 399 839 409 850 q 375 823 389 829 q 345 817 361 817 q 314 823 328 817 q 289 839 300 829 q 273 864 279 850 q 267 895 267 878 q 273 924 267 910 q 289 949 279 939 q 314 966 300 960 q 345 972 328 972 q 375 966 361 972 q 399 949 389 960 q 415 924 409 939 q 420 895 420 910 m 654 895 q 648 864 654 878 q 632 839 642 850 q 608 823 622 829 q 578 817 594 817 q 547 823 562 817 q 523 839 533 829 q 506 864 512 850 q 500 895 500 878 q 506 924 500 910 q 523 949 512 939 q 547 966 533 960 q 578 972 562 972 q 608 966 594 972 q 632 949 622 960 q 648 924 642 939 q 654 895 654 910 z "},"í":{"ha":461,"x_min":40,"x_max":497,"o":"m 421 0 l 40 0 l 40 25 q 86 31 68 25 q 115 46 104 37 q 129 69 125 56 q 132 96 132 81 l 132 632 q 129 655 132 642 q 116 678 125 667 q 88 695 106 688 q 40 703 70 703 l 40 729 l 421 729 l 421 703 q 376 697 394 703 q 348 683 358 692 q 333 662 337 674 q 329 637 329 650 l 329 96 q 332 73 329 85 q 346 51 336 61 q 373 33 355 40 q 421 25 391 25 l 421 0 m 497 1000 l 283 802 l 210 802 l 345 1000 l 497 1000 z "},"ì":{"ha":461,"x_min":-22,"x_max":421,"o":"m 421 0 l 40 0 l 40 25 q 86 31 68 25 q 115 46 104 37 q 129 69 125 56 q 132 96 132 81 l 132 632 q 129 655 132 642 q 116 678 125 667 q 88 695 106 688 q 40 703 70 703 l 40 729 l 421 729 l 421 703 q 376 697 394 703 q 348 683 358 692 q 333 662 337 674 q 329 637 329 650 l 329 96 q 332 73 329 85 q 346 51 336 61 q 373 33 355 40 q 421 25 391 25 l 421 0 m 131 1000 l 266 802 l 192 802 l -22 1000 l 131 1000 z "},"î":{"ha":461,"x_min":40,"x_max":421,"o":"m 421 0 l 40 0 l 40 25 q 86 31 68 25 q 115 46 104 37 q 129 69 125 56 q 132 96 132 81 l 132 632 q 129 655 132 642 q 116 678 125 667 q 88 695 106 688 q 40 703 70 703 l 40 729 l 421 729 l 421 703 q 376 697 394 703 q 348 683 358 692 q 333 662 337 674 q 329 637 329 650 l 329 96 q 332 73 329 85 q 346 51 336 61 q 373 33 355 40 q 421 25 391 25 l 421 0 m 408 802 l 294 802 l 196 936 l 109 802 l 52 802 l 182 1000 l 274 1000 l 408 802 z "},"ï":{"ha":461,"x_min":37,"x_max":425,"o":"m 421 0 l 40 0 l 40 25 q 86 31 68 25 q 115 46 104 37 q 129 69 125 56 q 132 96 132 81 l 132 632 q 129 655 132 642 q 116 678 125 667 q 88 695 106 688 q 40 703 70 703 l 40 729 l 421 729 l 421 703 q 376 697 394 703 q 348 683 358 692 q 333 662 337 674 q 329 637 329 650 l 329 96 q 332 73 329 85 q 346 51 336 61 q 373 33 355 40 q 421 25 391 25 l 421 0 m 191 895 q 185 864 191 878 q 170 839 180 850 q 145 823 159 829 q 115 817 132 817 q 85 823 99 817 q 60 839 71 829 q 43 864 50 850 q 37 895 37 878 q 43 924 37 910 q 60 949 50 939 q 85 966 71 960 q 115 972 99 972 q 145 966 132 972 q 170 949 159 960 q 185 924 180 939 q 191 895 191 910 m 425 895 q 419 864 425 878 q 403 839 413 850 q 379 823 393 829 q 349 817 365 817 q 318 823 332 817 q 293 839 304 829 q 277 864 283 850 q 271 895 271 878 q 277 924 271 910 q 293 949 283 939 q 318 966 304 960 q 349 972 332 972 q 379 966 365 972 q 403 949 393 960 q 419 924 413 939 q 425 895 425 910 z "},"ñ":{"ha":1025,"x_min":40,"x_max":985,"o":"m 745 986 q 731 919 742 952 q 703 860 721 886 q 658 818 684 834 q 599 802 632 802 q 530 816 558 802 q 478 848 501 831 q 435 880 456 865 q 391 895 415 895 q 353 884 367 895 q 333 858 340 873 q 324 827 326 843 q 322 802 322 812 l 286 802 q 296 869 288 836 q 321 929 304 903 q 366 970 338 955 q 435 986 393 986 q 498 972 471 986 q 548 940 526 958 q 591 909 571 923 q 633 895 612 895 q 668 905 654 895 q 690 930 682 916 q 702 961 699 945 q 705 986 705 976 l 745 986 m 421 0 l 40 0 l 40 25 q 86 31 68 25 q 115 46 104 37 q 129 69 125 56 q 132 96 132 81 l 132 636 q 129 658 132 646 q 115 680 125 670 q 86 696 104 690 q 40 703 68 703 l 40 729 l 421 729 l 421 703 q 376 697 394 703 q 348 683 358 692 q 333 662 337 674 q 329 637 329 650 l 329 465 q 386 365 353 418 q 464 259 419 312 q 566 157 509 206 q 696 71 624 109 l 696 632 q 693 655 696 642 q 680 678 690 667 q 652 695 670 688 q 604 703 634 703 l 604 729 l 985 729 l 985 703 q 940 697 958 703 q 912 683 922 692 q 897 662 901 674 q 893 637 893 650 l 893 92 q 897 70 893 81 q 911 48 901 58 q 939 32 921 39 q 985 25 956 25 l 985 0 l 696 0 q 595 41 646 12 q 496 107 544 71 q 405 185 448 144 q 329 261 362 226 l 329 96 q 332 73 329 85 q 346 51 336 61 q 373 33 355 40 q 421 25 391 25 l 421 0 z "},"ó":{"ha":951,"x_min":54,"x_max":896,"o":"m 54 364 q 65 452 54 407 q 98 541 76 497 q 155 622 121 584 q 236 690 189 661 q 341 736 282 719 q 473 753 401 753 q 610 737 549 753 q 718 694 671 722 q 798 629 764 667 q 854 549 832 592 q 886 458 876 505 q 896 364 896 411 q 886 274 896 319 q 853 185 876 228 q 798 105 831 142 q 717 39 764 67 q 609 -5 670 12 q 473 -21 549 -21 q 342 -5 401 -21 q 236 39 283 11 q 156 104 190 66 q 99 184 121 142 q 65 273 76 227 q 54 364 54 319 m 261 367 q 270 241 261 302 q 303 133 279 180 q 367 56 326 85 q 469 25 407 26 q 543 39 511 25 q 600 77 576 53 q 642 134 625 102 q 669 204 659 167 q 685 281 680 241 q 692 361 690 321 q 688 442 692 401 q 674 522 684 484 q 649 594 665 560 q 609 652 633 627 q 553 691 585 677 q 478 705 521 705 q 374 677 416 705 q 308 602 333 649 q 272 494 283 555 q 261 367 262 433 m 733 1000 l 519 802 l 446 802 l 581 1000 l 733 1000 z "},"ò":{"ha":951,"x_min":54,"x_max":896,"o":"m 54 364 q 65 452 54 407 q 98 541 76 497 q 155 622 121 584 q 236 690 189 661 q 341 736 282 719 q 473 753 401 753 q 610 737 549 753 q 718 694 671 722 q 798 629 764 667 q 854 549 832 592 q 886 458 876 505 q 896 364 896 411 q 886 274 896 319 q 853 185 876 228 q 798 105 831 142 q 717 39 764 67 q 609 -5 670 12 q 473 -21 549 -21 q 342 -5 401 -21 q 236 39 283 11 q 156 104 190 66 q 99 184 121 142 q 65 273 76 227 q 54 364 54 319 m 261 367 q 270 241 261 302 q 303 133 279 180 q 367 56 326 85 q 469 25 407 26 q 543 39 511 25 q 600 77 576 53 q 642 134 625 102 q 669 204 659 167 q 685 281 680 241 q 692 361 690 321 q 688 442 692 401 q 674 522 684 484 q 649 594 665 560 q 609 652 633 627 q 553 691 585 677 q 478 705 521 705 q 374 677 416 705 q 308 602 333 649 q 272 494 283 555 q 261 367 262 433 m 368 1000 l 503 802 l 429 802 l 215 1000 l 368 1000 z "},"ô":{"ha":951,"x_min":54,"x_max":896,"o":"m 54 364 q 65 452 54 407 q 98 541 76 497 q 155 622 121 584 q 236 690 189 661 q 341 736 282 719 q 473 753 401 753 q 610 737 549 753 q 718 694 671 722 q 798 629 764 667 q 854 549 832 592 q 886 458 876 505 q 896 364 896 411 q 886 274 896 319 q 853 185 876 228 q 798 105 831 142 q 717 39 764 67 q 609 -5 670 12 q 473 -21 549 -21 q 342 -5 401 -21 q 236 39 283 11 q 156 104 190 66 q 99 184 121 142 q 65 273 76 227 q 54 364 54 319 m 261 367 q 270 241 261 302 q 303 133 279 180 q 367 56 326 85 q 469 25 407 26 q 543 39 511 25 q 600 77 576 53 q 642 134 625 102 q 669 204 659 167 q 685 281 680 241 q 692 361 690 321 q 688 442 692 401 q 674 522 684 484 q 649 594 665 560 q 609 652 633 627 q 553 691 585 677 q 478 705 521 705 q 374 677 416 705 q 308 602 333 649 q 272 494 283 555 q 261 367 262 433 m 652 802 l 538 802 l 440 936 l 353 802 l 296 802 l 427 1000 l 518 1000 l 652 802 z "},"ö":{"ha":951,"x_min":54,"x_max":896,"o":"m 54 364 q 65 452 54 407 q 98 541 76 497 q 155 622 121 584 q 236 690 189 661 q 341 736 282 719 q 473 753 401 753 q 610 737 549 753 q 718 694 671 722 q 798 629 764 667 q 854 549 832 592 q 886 458 876 505 q 896 364 896 411 q 886 274 896 319 q 853 185 876 228 q 798 105 831 142 q 717 39 764 67 q 609 -5 670 12 q 473 -21 549 -21 q 342 -5 401 -21 q 236 39 283 11 q 156 104 190 66 q 99 184 121 142 q 65 273 76 227 q 54 364 54 319 m 261 367 q 270 241 261 302 q 303 133 279 180 q 367 56 326 85 q 469 25 407 26 q 543 39 511 25 q 600 77 576 53 q 642 134 625 102 q 669 204 659 167 q 685 281 680 241 q 692 361 690 321 q 688 442 692 401 q 674 522 684 484 q 649 594 665 560 q 609 652 633 627 q 553 691 585 677 q 478 705 521 705 q 374 677 416 705 q 308 602 333 649 q 272 494 283 555 q 261 367 262 433 m 435 895 q 429 864 435 878 q 413 839 423 850 q 389 823 403 829 q 359 817 375 817 q 328 823 342 817 q 303 839 314 829 q 287 864 293 850 q 281 895 281 878 q 287 924 281 910 q 303 949 293 939 q 328 966 314 960 q 359 972 342 972 q 389 966 375 972 q 413 949 403 960 q 429 924 423 939 q 435 895 435 910 m 668 895 q 662 864 668 878 q 646 839 656 850 q 622 823 636 829 q 592 817 608 817 q 562 823 576 817 q 537 839 547 829 q 520 864 526 850 q 514 895 514 878 q 520 924 514 910 q 537 949 526 939 q 562 966 547 960 q 592 972 576 972 q 622 966 608 972 q 646 949 636 960 q 662 924 656 939 q 668 895 668 910 z "},"õ":{"ha":951,"x_min":54,"x_max":896,"o":"m 54 364 q 65 452 54 407 q 98 541 76 497 q 155 622 121 584 q 236 690 189 661 q 341 736 282 719 q 473 753 401 753 q 610 737 549 753 q 718 694 671 722 q 798 629 764 667 q 854 549 832 592 q 886 458 876 505 q 896 364 896 411 q 886 274 896 319 q 853 185 876 228 q 798 105 831 142 q 717 39 764 67 q 609 -5 670 12 q 473 -21 549 -21 q 342 -5 401 -21 q 236 39 283 11 q 156 104 190 66 q 99 184 121 142 q 65 273 76 227 q 54 364 54 319 m 261 367 q 270 241 261 302 q 303 133 279 180 q 367 56 326 85 q 469 25 407 26 q 543 39 511 25 q 600 77 576 53 q 642 134 625 102 q 669 204 659 167 q 685 281 680 241 q 692 361 690 321 q 688 442 692 401 q 674 522 684 484 q 649 594 665 560 q 609 652 633 627 q 553 691 585 677 q 478 705 521 705 q 374 677 416 705 q 308 602 333 649 q 272 494 283 555 q 261 367 262 433 m 704 986 q 691 919 701 952 q 662 860 680 886 q 617 818 644 834 q 558 802 591 802 q 489 816 517 802 q 438 848 460 831 q 395 880 415 865 q 350 895 374 895 q 313 884 326 895 q 292 858 299 873 q 283 827 285 843 q 281 802 281 812 l 245 802 q 255 869 247 836 q 280 929 263 903 q 325 970 297 955 q 394 986 353 986 q 458 972 431 986 q 508 940 485 958 q 551 909 530 923 q 593 895 571 895 q 628 905 614 895 q 650 930 642 916 q 661 961 658 945 q 665 986 664 976 l 704 986 z "},"ú":{"ha":1003,"x_min":20,"x_max":962,"o":"m 400 704 q 354 698 372 704 q 326 683 336 692 q 312 660 316 673 q 309 633 309 648 l 309 232 q 325 142 309 179 q 367 84 341 106 q 424 56 393 63 q 486 57 456 50 q 563 93 530 67 q 619 157 596 119 q 653 240 642 194 q 665 335 665 286 l 665 633 q 662 656 665 644 q 649 679 659 668 q 622 696 640 689 q 574 704 604 704 l 574 729 l 962 729 l 962 704 q 917 698 935 704 q 888 683 899 692 q 874 660 878 673 q 871 633 871 648 l 871 96 q 874 73 871 85 q 887 51 878 61 q 915 33 897 40 q 962 25 932 25 l 962 0 l 665 0 l 665 138 q 631 86 651 111 q 585 40 612 61 q 523 3 557 19 q 444 -21 488 -13 q 340 -24 387 -31 q 256 1 293 -18 q 192 50 219 20 q 147 115 165 79 q 120 192 129 151 q 111 273 111 233 l 111 637 q 107 659 111 648 q 94 681 104 671 q 65 697 83 690 q 20 704 47 704 l 20 729 l 400 729 l 400 704 m 743 1000 l 530 802 l 456 802 l 591 1000 l 743 1000 z "},"ù":{"ha":1003,"x_min":20,"x_max":962,"o":"m 400 704 q 354 698 372 704 q 326 683 336 692 q 312 660 316 673 q 309 633 309 648 l 309 232 q 325 142 309 179 q 367 84 341 106 q 424 56 393 63 q 486 57 456 50 q 563 93 530 67 q 619 157 596 119 q 653 240 642 194 q 665 335 665 286 l 665 633 q 662 656 665 644 q 649 679 659 668 q 622 696 640 689 q 574 704 604 704 l 574 729 l 962 729 l 962 704 q 917 698 935 704 q 888 683 899 692 q 874 660 878 673 q 871 633 871 648 l 871 96 q 874 73 871 85 q 887 51 878 61 q 915 33 897 40 q 962 25 932 25 l 962 0 l 665 0 l 665 138 q 631 86 651 111 q 585 40 612 61 q 523 3 557 19 q 444 -21 488 -13 q 340 -24 387 -31 q 256 1 293 -18 q 192 50 219 20 q 147 115 165 79 q 120 192 129 151 q 111 273 111 233 l 111 637 q 107 659 111 648 q 94 681 104 671 q 65 697 83 690 q 20 704 47 704 l 20 729 l 400 729 l 400 704 m 376 1000 l 511 802 l 437 802 l 224 1000 l 376 1000 z "},"û":{"ha":1003,"x_min":20,"x_max":962,"o":"m 400 704 q 354 698 372 704 q 326 683 336 692 q 312 660 316 673 q 309 633 309 648 l 309 232 q 325 142 309 179 q 367 84 341 106 q 424 56 393 63 q 486 57 456 50 q 563 93 530 67 q 619 157 596 119 q 653 240 642 194 q 665 335 665 286 l 665 633 q 662 656 665 644 q 649 679 659 668 q 622 696 640 689 q 574 704 604 704 l 574 729 l 962 729 l 962 704 q 917 698 935 704 q 888 683 899 692 q 874 660 878 673 q 871 633 871 648 l 871 96 q 874 73 871 85 q 887 51 878 61 q 915 33 897 40 q 962 25 932 25 l 962 0 l 665 0 l 665 138 q 631 86 651 111 q 585 40 612 61 q 523 3 557 19 q 444 -21 488 -13 q 340 -24 387 -31 q 256 1 293 -18 q 192 50 219 20 q 147 115 165 79 q 120 192 129 151 q 111 273 111 233 l 111 637 q 107 659 111 648 q 94 681 104 671 q 65 697 83 690 q 20 704 47 704 l 20 729 l 400 729 l 400 704 m 669 802 l 555 802 l 457 936 l 370 802 l 313 802 l 444 1000 l 535 1000 l 669 802 z "},"ü":{"ha":1003,"x_min":20,"x_max":962,"o":"m 400 704 q 354 698 372 704 q 326 683 336 692 q 312 660 316 673 q 309 633 309 648 l 309 232 q 325 142 309 179 q 367 84 341 106 q 424 56 393 63 q 486 57 456 50 q 563 93 530 67 q 619 157 596 119 q 653 240 642 194 q 665 335 665 286 l 665 633 q 662 656 665 644 q 649 679 659 668 q 622 696 640 689 q 574 704 604 704 l 574 729 l 962 729 l 962 704 q 917 698 935 704 q 888 683 899 692 q 874 660 878 673 q 871 633 871 648 l 871 96 q 874 73 871 85 q 887 51 878 61 q 915 33 897 40 q 962 25 932 25 l 962 0 l 665 0 l 665 138 q 631 86 651 111 q 585 40 612 61 q 523 3 557 19 q 444 -21 488 -13 q 340 -24 387 -31 q 256 1 293 -18 q 192 50 219 20 q 147 115 165 79 q 120 192 129 151 q 111 273 111 233 l 111 637 q 107 659 111 648 q 94 681 104 671 q 65 697 83 690 q 20 704 47 704 l 20 729 l 400 729 l 400 704 m 451 895 q 445 864 451 878 q 429 839 439 850 q 405 823 419 829 q 375 817 391 817 q 345 823 359 817 q 320 839 330 829 q 303 864 309 850 q 297 895 297 878 q 303 924 297 910 q 320 949 309 939 q 345 966 330 960 q 375 972 359 972 q 405 966 391 972 q 429 949 419 960 q 445 924 439 939 q 451 895 451 910 m 684 895 q 679 864 684 878 q 663 839 673 850 q 638 823 652 829 q 608 817 625 817 q 578 823 592 817 q 553 839 564 829 q 536 864 543 850 q 530 895 530 878 q 536 924 530 910 q 553 949 543 939 q 578 966 564 960 q 608 972 592 972 q 638 966 625 972 q 663 949 652 960 q 679 924 673 939 q 684 895 684 910 z "},"n":{"ha":1025,"x_min":40,"x_max":985,"o":"m 421 0 l 40 0 l 40 25 q 86 31 68 25 q 115 46 104 37 q 129 69 125 56 q 132 96 132 81 l 132 636 q 129 658 132 646 q 115 680 125 670 q 86 696 104 690 q 40 703 68 703 l 40 729 l 421 729 l 421 703 q 376 697 394 703 q 348 683 358 692 q 333 662 337 674 q 329 637 329 650 l 329 465 q 386 365 353 418 q 464 259 419 312 q 566 157 509 206 q 696 71 624 109 l 696 632 q 693 655 696 642 q 680 678 690 667 q 652 695 670 688 q 604 703 634 703 l 604 729 l 985 729 l 985 703 q 940 697 958 703 q 912 683 922 692 q 897 662 901 674 q 893 637 893 650 l 893 92 q 897 70 893 81 q 911 48 901 58 q 939 32 921 39 q 985 25 956 25 l 985 0 l 696 0 q 595 41 646 12 q 496 107 544 71 q 405 185 448 144 q 329 261 362 226 l 329 96 q 332 73 329 85 q 346 51 336 61 q 373 33 355 40 q 421 25 391 25 l 421 0 z "},"æ":{"ha":1495,"x_min":41,"x_max":1454,"o":"m 857 424 q 856 395 856 409 q 856 367 856 381 q 864 241 856 302 q 894 133 872 180 q 956 56 916 85 q 1057 25 995 26 q 1128 38 1097 25 q 1183 74 1160 51 q 1224 127 1207 96 q 1253 193 1241 157 l 1413 139 q 1355 75 1388 104 q 1277 25 1321 46 q 1180 -9 1234 3 q 1061 -21 1126 -21 q 874 13 953 -21 q 745 103 795 47 q 685 53 718 76 q 613 14 652 31 q 526 -12 573 -3 q 424 -21 479 -21 q 279 -12 349 -21 q 157 19 210 -3 q 73 76 104 41 q 41 164 41 111 q 62 233 41 204 q 117 283 83 262 q 194 319 151 304 q 281 343 237 333 q 365 361 325 353 q 435 375 406 368 q 509 398 476 385 q 567 423 543 410 q 609 447 592 435 q 635 467 625 458 q 617 556 629 513 q 582 632 604 600 q 524 685 559 665 q 439 707 489 705 q 367 694 399 707 q 312 658 336 681 q 271 605 288 635 q 243 539 254 574 l 83 593 q 142 656 108 627 q 219 707 176 686 q 316 741 262 728 q 432 753 369 753 q 616 720 538 753 q 746 633 694 686 q 801 681 770 659 q 869 719 832 703 q 951 744 907 735 q 1047 753 996 753 q 1229 726 1154 753 q 1352 655 1304 700 q 1424 550 1400 610 q 1454 424 1449 490 l 857 424 m 640 376 q 640 393 640 385 q 639 410 640 401 q 577 372 619 393 q 461 328 536 351 q 384 304 422 315 q 317 276 347 293 q 270 234 288 260 q 252 170 252 209 q 270 96 252 123 q 315 52 288 68 q 373 32 342 37 q 429 26 404 26 q 523 54 484 26 q 589 130 563 82 q 628 241 615 178 q 640 376 640 305 m 1051 705 q 968 687 1002 705 q 911 637 934 669 q 877 562 889 605 q 860 469 865 519 l 1242 469 q 1227 561 1238 518 q 1195 636 1217 604 q 1139 687 1174 668 q 1051 705 1104 705 z "},"E":{"ha":1023,"x_min":66,"x_max":961,"o":"m 930 755 q 879 831 911 798 q 809 888 848 865 q 726 923 770 911 q 640 935 683 935 q 552 918 593 935 q 475 872 511 901 q 410 804 439 844 q 359 719 381 764 q 323 623 337 673 q 302 522 309 572 l 880 522 q 859 462 866 494 q 848 404 851 431 q 843 342 844 372 l 821 338 q 799 410 812 381 q 760 454 786 438 q 691 477 734 471 q 579 484 648 484 l 298 484 l 298 454 q 311 347 298 399 q 348 246 324 294 q 406 158 372 198 q 484 89 441 118 q 577 43 526 59 q 685 26 628 26 q 776 36 736 26 q 844 61 815 46 q 892 94 873 76 q 925 128 912 112 q 944 157 938 144 q 954 174 951 170 l 943 78 q 898 36 928 56 q 827 0 868 16 q 735 -25 786 -16 q 625 -35 684 -35 q 411 -1 512 -35 q 234 93 311 32 q 113 240 158 154 q 66 433 68 327 q 105 631 68 543 q 202 784 141 719 q 343 893 262 850 q 515 957 424 936 q 626 972 564 968 q 751 975 688 975 q 866 974 812 975 q 957 972 920 972 q 946 916 949 941 q 943 869 943 891 q 948 813 943 839 q 961 757 953 787 l 930 755 z "},"…":{"ha":1075,"x_min":74,"x_max":1002,"o":"m 74 85 q 82 126 74 106 q 104 159 90 145 q 138 182 119 174 q 179 191 157 191 q 220 182 201 191 q 254 159 239 174 q 276 126 268 145 q 285 85 285 106 q 276 44 285 63 q 254 10 268 24 q 220 -13 239 -4 q 179 -21 201 -21 q 138 -13 157 -21 q 104 10 119 -4 q 82 44 90 24 q 74 85 74 63 m 432 85 q 440 126 432 106 q 463 159 449 145 q 497 182 477 174 q 538 191 516 191 q 579 182 559 191 q 612 159 598 174 q 635 126 627 145 q 643 85 643 106 q 635 44 643 63 q 612 10 627 24 q 579 -13 598 -4 q 538 -21 559 -21 q 497 -13 516 -21 q 463 10 477 -4 q 440 44 449 24 q 432 85 432 63 m 790 85 q 799 126 790 106 q 821 159 807 145 q 855 182 836 174 q 896 191 874 191 q 937 182 918 191 q 970 159 956 174 q 993 126 985 145 q 1002 85 1002 106 q 993 44 1002 63 q 970 10 985 24 q 937 -13 956 -4 q 896 -21 918 -21 q 855 -13 874 -21 q 821 10 836 -4 q 799 44 807 24 q 790 85 790 63 z "},"ﬁ":{"ha":1190,"x_min":33,"x_max":1150,"o":"m 1150 0 l 770 0 l 770 25 q 815 31 798 25 q 844 46 833 37 q 858 69 854 56 q 861 96 861 81 l 861 616 q 859 638 861 626 q 848 661 856 650 q 826 679 840 671 q 790 686 812 686 l 323 686 l 323 329 l 640 329 q 623 281 629 307 q 614 233 617 256 q 611 179 612 205 l 593 176 q 571 239 585 216 q 529 272 557 261 q 451 284 500 282 q 323 286 402 286 l 323 -183 q 327 -205 323 -193 q 341 -227 331 -216 q 368 -243 351 -237 q 414 -250 386 -250 l 414 -275 l 33 -275 l 33 -250 q 80 -244 62 -250 q 108 -229 98 -239 q 122 -206 118 -219 q 126 -179 126 -193 l 126 629 q 122 651 126 640 q 109 673 119 663 q 81 689 98 683 q 35 696 63 696 l 35 729 l 1150 729 l 1150 703 q 1105 697 1123 703 q 1077 683 1088 692 q 1063 662 1067 674 q 1059 637 1059 650 l 1059 96 q 1062 73 1059 85 q 1075 51 1065 61 q 1102 33 1084 40 q 1150 25 1120 25 l 1150 0 m 856 909 q 864 950 856 931 q 886 984 872 970 q 920 1007 901 998 q 961 1015 939 1015 q 1002 1007 983 1015 q 1036 984 1021 998 q 1058 950 1050 970 q 1067 909 1067 931 q 1058 868 1067 888 q 1036 835 1050 849 q 1002 812 1021 821 q 961 804 983 804 q 920 812 939 804 q 886 835 901 821 q 864 868 872 849 q 856 909 856 888 z "},"ﬂ":{"ha":1177,"x_min":33,"x_max":1143,"o":"m 414 -275 l 33 -275 l 33 -250 q 80 -244 62 -250 q 108 -229 98 -239 q 122 -206 118 -219 q 126 -179 126 -193 l 126 629 q 122 651 126 640 q 109 673 119 663 q 81 689 98 683 q 35 696 63 696 l 35 729 l 705 729 q 690 684 695 709 q 682 636 685 659 q 679 597 680 613 q 679 579 679 581 l 661 576 q 634 632 654 610 q 589 665 615 653 q 533 682 563 677 q 476 686 504 686 l 323 686 l 323 329 l 640 329 q 623 281 629 307 q 614 233 617 256 q 611 179 612 205 l 593 176 q 571 239 585 216 q 529 272 557 261 q 451 284 500 282 q 323 286 402 286 l 323 -183 q 327 -205 323 -193 q 341 -227 331 -216 q 368 -243 351 -237 q 414 -250 386 -250 l 414 -275 m 762 25 q 806 30 789 25 q 834 44 824 35 q 849 65 845 53 q 854 90 854 77 l 854 977 q 850 999 854 987 q 836 1020 846 1010 q 808 1037 826 1030 q 762 1043 791 1043 l 762 1069 l 1051 1069 l 1051 92 q 1055 70 1051 81 q 1069 48 1059 58 q 1097 32 1079 39 q 1143 25 1115 25 l 1143 0 l 762 0 l 762 25 z "},"­":{"ha":772,"x_min":109,"x_max":664,"o":"m 664 514 l 664 422 l 109 422 l 109 514 l 664 514 z "},"̒":{"ha":252,"x_min":37,"x_max":208,"o":"m 183 1053 q 165 1014 170 1034 q 165 973 161 994 q 181 931 170 952 q 208 889 192 909 l 123 803 l 37 889 q 86 978 52 930 q 170 1068 119 1025 l 183 1053 z "},"̕":{"ha":256,"x_min":50,"x_max":221,"o":"m 75 819 q 93 857 89 837 q 93 898 97 877 q 78 940 89 919 q 50 982 66 962 l 136 1068 l 221 982 q 174 893 208 941 q 89 803 140 846 l 75 819 z "},"̦":{"ha":267,"x_min":47,"x_max":218,"o":"m 72 -318 q 90 -279 85 -300 q 90 -238 94 -259 q 75 -196 86 -217 q 47 -154 64 -174 l 132 -69 l 218 -154 q 170 -243 203 -195 q 86 -334 136 -291 l 72 -318 z "}," ":{"ha":347,"x_min":0,"x_max":0,"o":""},"ȷ":{"ha":449,"x_min":-283,"x_max":416,"o":"m 36 729 l 416 729 l 416 703 q 372 697 390 703 q 344 684 355 692 q 329 663 334 675 q 325 639 325 652 l 326 189 q 290 -9 326 77 q 190 -155 254 -96 q 39 -246 126 -215 q -151 -277 -49 -277 q -194 -276 -176 -277 q -225 -275 -212 -275 q -252 -274 -239 -275 q -281 -273 -265 -273 q -272 -223 -274 -250 q -269 -179 -269 -197 q -273 -134 -269 -155 q -283 -92 -277 -113 l -261 -90 q -181 -190 -231 -154 q -71 -225 -132 -225 q 16 -198 -21 -225 q 77 -126 53 -171 q 113 -24 101 -81 q 125 92 125 33 l 126 637 q 121 659 125 648 q 107 681 117 671 q 80 696 98 690 q 36 703 63 703 l 36 729 z "},"Ā":{"ha":1104,"x_min":-3,"x_max":1181,"o":"m 1181 36 q 1068 2 1119 11 q 977 -7 1017 -7 q 920 -3 944 -7 q 880 6 897 1 q 846 20 860 12 q 793 64 816 37 q 753 122 771 91 q 721 186 735 153 q 693 249 707 220 l 676 285 q 548 240 608 265 q 443 190 489 214 q 365 144 397 165 q 321 114 334 123 q 264 64 296 86 q 195 27 233 43 q 109 4 156 12 q 4 -4 61 -4 l -3 25 q 111 67 63 36 q 193 144 159 98 q 252 247 228 190 q 296 368 277 304 q 325 446 307 405 q 368 525 342 486 q 426 596 393 563 q 501 653 459 630 q 478 697 490 675 q 457 743 467 720 q 429 803 443 770 q 395 864 414 836 q 350 911 376 892 q 285 930 323 930 q 232 924 258 930 q 182 909 205 918 l 172 937 q 292 971 231 957 q 412 985 353 985 q 469 981 441 985 q 522 968 496 977 q 566 941 545 960 q 606 897 587 922 q 641 842 625 871 q 672 784 658 813 q 699 729 687 755 q 720 684 711 703 q 838 427 779 555 q 965 174 897 298 q 991 130 977 151 q 1022 91 1005 108 q 1061 64 1040 74 q 1108 54 1082 54 q 1134 56 1118 54 q 1171 66 1151 58 l 1181 36 m 539 575 q 507 516 522 547 q 480 454 492 486 q 458 391 468 422 q 437 332 448 360 q 415 271 427 300 q 389 214 404 241 q 508 276 439 243 q 654 332 576 309 l 539 575 m 694 1055 l 325 1055 l 325 1119 l 694 1119 l 694 1055 z "},"Ă":{"ha":1104,"x_min":-3,"x_max":1181,"o":"m 1181 36 q 1068 2 1119 11 q 977 -7 1017 -7 q 920 -3 944 -7 q 880 6 897 1 q 846 20 860 12 q 793 64 816 37 q 753 122 771 91 q 721 186 735 153 q 693 249 707 220 l 676 285 q 548 240 608 265 q 443 190 489 214 q 365 144 397 165 q 321 114 334 123 q 264 64 296 86 q 195 27 233 43 q 109 4 156 12 q 4 -4 61 -4 l -3 25 q 111 67 63 36 q 193 144 159 98 q 252 247 228 190 q 296 368 277 304 q 325 446 307 405 q 368 525 342 486 q 426 596 393 563 q 501 653 459 630 q 478 697 490 675 q 457 743 467 720 q 429 803 443 770 q 395 864 414 836 q 350 911 376 892 q 285 930 323 930 q 232 924 258 930 q 182 909 205 918 l 172 937 q 292 971 231 957 q 412 985 353 985 q 469 981 441 985 q 522 968 496 977 q 566 941 545 960 q 606 897 587 922 q 641 842 625 871 q 672 784 658 813 q 699 729 687 755 q 720 684 711 703 q 838 427 779 555 q 965 174 897 298 q 991 130 977 151 q 1022 91 1005 108 q 1061 64 1040 74 q 1108 54 1082 54 q 1134 56 1118 54 q 1171 66 1151 58 l 1181 36 m 539 575 q 507 516 522 547 q 480 454 492 486 q 458 391 468 422 q 437 332 448 360 q 415 271 427 300 q 389 214 404 241 q 508 276 439 243 q 654 332 576 309 l 539 575 m 709 1221 q 692 1153 706 1185 q 656 1094 679 1120 q 604 1053 634 1068 q 536 1038 573 1038 q 470 1053 500 1038 q 418 1095 440 1069 q 384 1154 397 1121 q 368 1221 371 1187 l 404 1221 q 432 1176 414 1196 q 473 1144 448 1158 q 536 1131 498 1131 q 606 1144 579 1131 q 648 1176 632 1158 q 674 1221 665 1196 l 709 1221 z "},"Ą":{"ha":1104,"x_min":-3,"x_max":1181,"o":"m 1181 -151 q 1171 -202 1181 -178 q 1142 -244 1160 -227 q 1101 -273 1124 -262 q 1050 -283 1077 -283 q 986 -273 1015 -283 q 937 -242 958 -262 q 904 -194 916 -222 q 892 -131 892 -165 q 913 -63 892 -96 q 968 -7 935 -31 q 915 -2 938 -6 q 877 7 892 1 q 846 20 859 12 q 793 64 816 37 q 753 122 771 91 q 721 186 735 153 q 693 249 707 220 l 676 285 q 548 240 608 265 q 443 190 489 214 q 365 144 397 165 q 321 114 334 123 q 264 64 296 86 q 195 27 233 43 q 109 4 156 12 q 4 -4 61 -4 l -3 25 q 111 67 63 36 q 193 144 159 98 q 252 247 228 190 q 296 368 277 304 q 325 446 307 405 q 368 525 342 486 q 426 596 393 563 q 501 653 459 630 q 478 697 490 675 q 457 743 467 720 q 429 803 443 770 q 395 864 414 836 q 350 911 376 892 q 285 930 323 930 q 232 924 258 930 q 182 909 205 918 l 172 937 q 292 971 231 957 q 412 985 353 985 q 469 981 441 985 q 522 968 496 977 q 566 941 545 960 q 606 897 587 922 q 641 842 625 871 q 672 784 658 813 q 699 729 687 755 q 720 684 711 703 q 838 427 779 555 q 965 174 897 298 q 991 130 977 151 q 1022 91 1005 108 q 1061 64 1040 74 q 1108 54 1082 54 q 1134 56 1118 54 q 1171 66 1151 58 l 1181 36 q 1107 11 1142 20 q 1042 -1 1072 2 q 994 -62 1008 -27 q 979 -131 979 -98 q 985 -179 979 -157 q 1002 -215 991 -200 q 1025 -237 1012 -229 q 1053 -245 1038 -245 q 1094 -235 1076 -245 q 1122 -209 1111 -224 q 1140 -177 1134 -193 q 1146 -151 1145 -161 l 1181 -151 m 539 575 q 507 516 522 547 q 480 454 492 486 q 458 391 468 422 q 437 332 448 360 q 415 271 427 300 q 389 214 404 241 q 508 276 439 243 q 654 332 576 309 l 539 575 z "},"Ć":{"ha":1022,"x_min":66,"x_max":961,"o":"m 961 757 l 930 755 q 879 831 911 798 q 809 888 848 865 q 726 923 770 911 q 640 935 683 935 q 543 914 589 935 q 460 859 498 894 q 392 776 422 823 q 341 676 361 729 q 309 566 320 623 q 298 454 298 509 q 311 347 298 399 q 348 246 324 294 q 406 158 372 198 q 484 89 441 118 q 577 43 526 59 q 685 26 628 26 q 776 36 736 26 q 844 61 815 46 q 892 94 873 76 q 925 128 912 112 q 944 157 938 144 q 954 174 951 170 l 943 78 q 895 34 926 54 q 823 -1 864 14 q 731 -25 781 -16 q 624 -33 680 -33 q 479 -18 549 -33 q 347 24 409 -3 q 234 93 286 52 q 146 186 183 134 q 88 300 109 237 q 66 433 67 362 q 105 631 68 543 q 202 784 141 719 q 343 893 262 850 q 515 957 424 936 q 626 972 564 968 q 751 975 688 975 q 866 974 812 975 q 957 972 920 972 q 946 916 949 941 q 943 869 943 891 q 948 813 943 839 q 961 757 953 787 m 863 1240 l 649 1042 l 575 1042 l 710 1240 l 863 1240 z "},"Ĉ":{"ha":1022,"x_min":66,"x_max":961,"o":"m 961 757 l 930 755 q 879 831 911 798 q 809 888 848 865 q 726 923 770 911 q 640 935 683 935 q 543 914 589 935 q 460 859 498 894 q 392 776 422 823 q 341 676 361 729 q 309 566 320 623 q 298 454 298 509 q 311 347 298 399 q 348 246 324 294 q 406 158 372 198 q 484 89 441 118 q 577 43 526 59 q 685 26 628 26 q 776 36 736 26 q 844 61 815 46 q 892 94 873 76 q 925 128 912 112 q 944 157 938 144 q 954 174 951 170 l 943 78 q 895 34 926 54 q 823 -1 864 14 q 731 -25 781 -16 q 624 -33 680 -33 q 479 -18 549 -33 q 347 24 409 -3 q 234 93 286 52 q 146 186 183 134 q 88 300 109 237 q 66 433 67 362 q 105 631 68 543 q 202 784 141 719 q 343 893 262 850 q 515 957 424 936 q 626 972 564 968 q 751 975 688 975 q 866 974 812 975 q 957 972 920 972 q 946 916 949 941 q 943 869 943 891 q 948 813 943 839 q 961 757 953 787 m 772 1047 l 658 1047 l 559 1181 l 472 1047 l 415 1047 l 546 1246 l 637 1246 l 772 1047 z "},"Ċ":{"ha":1022,"x_min":66,"x_max":961,"o":"m 961 757 l 930 755 q 879 831 911 798 q 809 888 848 865 q 726 923 770 911 q 640 935 683 935 q 543 914 589 935 q 460 859 498 894 q 392 776 422 823 q 341 676 361 729 q 309 566 320 623 q 298 454 298 509 q 311 347 298 399 q 348 246 324 294 q 406 158 372 198 q 484 89 441 118 q 577 43 526 59 q 685 26 628 26 q 776 36 736 26 q 844 61 815 46 q 892 94 873 76 q 925 128 912 112 q 944 157 938 144 q 954 174 951 170 l 943 78 q 895 34 926 54 q 823 -1 864 14 q 731 -25 781 -16 q 624 -33 680 -33 q 479 -18 549 -33 q 347 24 409 -3 q 234 93 286 52 q 146 186 183 134 q 88 300 109 237 q 66 433 67 362 q 105 631 68 543 q 202 784 141 719 q 343 893 262 850 q 515 957 424 936 q 626 972 564 968 q 751 975 688 975 q 866 974 812 975 q 957 972 920 972 q 946 916 949 941 q 943 869 943 891 q 948 813 943 839 q 961 757 953 787 m 671 1117 q 665 1086 671 1101 q 649 1062 659 1072 q 625 1045 639 1051 q 595 1039 611 1039 q 564 1045 578 1039 q 539 1062 550 1051 q 523 1086 529 1072 q 517 1117 517 1101 q 523 1147 517 1133 q 539 1172 529 1161 q 564 1188 550 1182 q 595 1195 578 1195 q 625 1188 611 1195 q 649 1172 639 1182 q 665 1147 659 1161 q 671 1117 671 1133 z "},"Č":{"ha":1022,"x_min":66,"x_max":961,"o":"m 961 757 l 930 755 q 879 831 911 798 q 809 888 848 865 q 726 923 770 911 q 640 935 683 935 q 543 914 589 935 q 460 859 498 894 q 392 776 422 823 q 341 676 361 729 q 309 566 320 623 q 298 454 298 509 q 311 347 298 399 q 348 246 324 294 q 406 158 372 198 q 484 89 441 118 q 577 43 526 59 q 685 26 628 26 q 776 36 736 26 q 844 61 815 46 q 892 94 873 76 q 925 128 912 112 q 944 157 938 144 q 954 174 951 170 l 943 78 q 895 34 926 54 q 823 -1 864 14 q 731 -25 781 -16 q 624 -33 680 -33 q 479 -18 549 -33 q 347 24 409 -3 q 234 93 286 52 q 146 186 183 134 q 88 300 109 237 q 66 433 67 362 q 105 631 68 543 q 202 784 141 719 q 343 893 262 850 q 515 957 424 936 q 626 972 564 968 q 751 975 688 975 q 866 974 812 975 q 957 972 920 972 q 946 916 949 941 q 943 869 943 891 q 948 813 943 839 q 961 757 953 787 m 411 1240 l 525 1240 l 623 1105 l 711 1240 l 768 1240 l 637 1042 l 546 1042 l 411 1240 z "},"Ď":{"ha":1238,"x_min":61,"x_max":1174,"o":"m 541 -33 q 355 0 442 -33 q 202 93 268 33 q 99 236 137 153 q 61 418 61 319 q 100 593 61 511 q 210 745 138 676 q 385 866 282 814 q 614 951 487 919 l 562 987 q 493 1064 514 1020 q 472 1156 472 1109 q 482 1223 472 1190 q 509 1284 492 1256 q 551 1335 527 1313 q 603 1369 574 1357 l 619 1344 q 574 1270 574 1312 q 609 1187 574 1231 q 711 1095 644 1143 q 910 939 825 1012 q 1054 794 996 866 q 1142 648 1112 722 q 1174 488 1172 574 q 1149 328 1174 400 q 1080 198 1124 256 q 975 96 1036 140 q 844 24 915 53 q 696 -19 774 -5 q 541 -33 619 -33 m 945 432 q 930 561 945 500 q 883 680 916 621 q 796 795 850 738 q 663 914 742 853 q 561 879 609 903 q 471 820 513 854 q 396 743 430 786 q 339 651 363 700 q 303 550 316 603 q 290 444 290 498 q 302 340 290 391 q 335 242 313 289 q 387 157 356 196 q 457 89 418 117 q 543 44 496 60 q 642 28 589 28 q 760 57 705 28 q 856 140 815 87 q 921 268 897 193 q 945 432 945 342 m 648 1367 l 762 1367 l 861 1232 l 948 1367 l 1005 1367 l 875 1168 l 783 1168 l 648 1367 z "},"Đ":{"ha":1369,"x_min":12,"x_max":1305,"o":"m 204 514 q 267 657 222 589 q 382 780 313 724 q 544 880 452 836 q 746 951 635 923 l 694 987 q 625 1064 646 1020 q 604 1156 604 1109 q 614 1223 604 1190 q 641 1284 624 1256 q 683 1335 659 1313 q 734 1369 707 1357 l 751 1344 q 705 1270 705 1312 q 741 1187 705 1231 q 843 1095 776 1143 q 1043 939 957 1012 q 1186 794 1128 866 q 1274 648 1244 722 q 1305 488 1304 574 q 1280 328 1305 400 q 1211 198 1255 256 q 1107 96 1167 140 q 976 24 1046 53 q 828 -19 905 -5 q 672 -33 751 -33 q 487 0 574 -33 q 334 93 399 33 q 231 236 269 153 q 193 418 193 319 l 193 422 l 12 422 l 12 514 l 204 514 m 1076 432 q 1062 561 1076 500 q 1015 680 1048 621 q 927 795 981 738 q 794 914 873 853 q 660 861 722 899 q 550 769 598 823 q 471 650 503 715 q 428 514 439 584 l 639 514 l 639 422 l 422 422 q 453 275 426 347 q 526 149 479 204 q 635 61 572 94 q 774 28 698 28 q 892 57 837 28 q 988 140 947 87 q 1053 268 1029 193 q 1076 432 1076 342 z "},"Ē":{"ha":1023,"x_min":66,"x_max":961,"o":"m 930 755 q 879 831 911 798 q 809 888 848 865 q 726 923 770 911 q 640 935 683 935 q 552 918 593 935 q 475 872 511 901 q 410 804 439 844 q 359 719 381 764 q 323 623 337 673 q 302 522 309 572 l 880 522 q 859 462 866 494 q 848 404 851 431 q 843 342 844 372 l 821 338 q 799 410 812 381 q 760 454 786 438 q 691 477 734 471 q 579 484 648 484 l 298 484 l 298 454 q 311 347 298 399 q 348 246 324 294 q 406 158 372 198 q 484 89 441 118 q 577 43 526 59 q 685 26 628 26 q 776 36 736 26 q 844 61 815 46 q 892 94 873 76 q 925 128 912 112 q 944 157 938 144 q 954 174 951 170 l 943 78 q 898 36 928 56 q 827 0 868 16 q 735 -25 786 -16 q 625 -35 684 -35 q 411 -1 512 -35 q 234 93 311 32 q 113 240 158 154 q 66 433 68 327 q 105 631 68 543 q 202 784 141 719 q 343 893 262 850 q 515 957 424 936 q 626 972 564 968 q 751 975 688 975 q 866 974 812 975 q 957 972 920 972 q 946 916 949 941 q 943 869 943 891 q 948 813 943 839 q 961 757 953 787 l 930 755 m 793 1047 l 424 1047 l 424 1111 l 793 1111 l 793 1047 z "},"Ĕ":{"ha":1023,"x_min":66,"x_max":961,"o":"m 930 755 q 879 831 911 798 q 809 888 848 865 q 726 923 770 911 q 640 935 683 935 q 552 918 593 935 q 475 872 511 901 q 410 804 439 844 q 359 719 381 764 q 323 623 337 673 q 302 522 309 572 l 880 522 q 859 462 866 494 q 848 404 851 431 q 843 342 844 372 l 821 338 q 799 410 812 381 q 760 454 786 438 q 691 477 734 471 q 579 484 648 484 l 298 484 l 298 454 q 311 347 298 399 q 348 246 324 294 q 406 158 372 198 q 484 89 441 118 q 577 43 526 59 q 685 26 628 26 q 776 36 736 26 q 844 61 815 46 q 892 94 873 76 q 925 128 912 112 q 944 157 938 144 q 954 174 951 170 l 943 78 q 898 36 928 56 q 827 0 868 16 q 735 -25 786 -16 q 625 -35 684 -35 q 411 -1 512 -35 q 234 93 311 32 q 113 240 158 154 q 66 433 68 327 q 105 631 68 543 q 202 784 141 719 q 343 893 262 850 q 515 957 424 936 q 626 972 564 968 q 751 975 688 975 q 866 974 812 975 q 957 972 920 972 q 946 916 949 941 q 943 869 943 891 q 948 813 943 839 q 961 757 953 787 l 930 755 m 779 1236 q 763 1167 777 1200 q 727 1109 749 1135 q 674 1068 705 1083 q 607 1053 644 1053 q 541 1068 570 1053 q 489 1110 511 1084 q 454 1169 467 1136 q 439 1236 441 1202 l 475 1236 q 503 1191 485 1211 q 543 1159 518 1173 q 607 1145 568 1145 q 676 1159 650 1145 q 718 1191 703 1173 q 745 1236 736 1211 l 779 1236 z "},"Ė":{"ha":1023,"x_min":66,"x_max":961,"o":"m 930 755 q 879 831 911 798 q 809 888 848 865 q 726 923 770 911 q 640 935 683 935 q 552 918 593 935 q 475 872 511 901 q 410 804 439 844 q 359 719 381 764 q 323 623 337 673 q 302 522 309 572 l 880 522 q 859 462 866 494 q 848 404 851 431 q 843 342 844 372 l 821 338 q 799 410 812 381 q 760 454 786 438 q 691 477 734 471 q 579 484 648 484 l 298 484 l 298 454 q 311 347 298 399 q 348 246 324 294 q 406 158 372 198 q 484 89 441 118 q 577 43 526 59 q 685 26 628 26 q 776 36 736 26 q 844 61 815 46 q 892 94 873 76 q 925 128 912 112 q 944 157 938 144 q 954 174 951 170 l 943 78 q 898 36 928 56 q 827 0 868 16 q 735 -25 786 -16 q 625 -35 684 -35 q 411 -1 512 -35 q 234 93 311 32 q 113 240 158 154 q 66 433 68 327 q 105 631 68 543 q 202 784 141 719 q 343 893 262 850 q 515 957 424 936 q 626 972 564 968 q 751 975 688 975 q 866 974 812 975 q 957 972 920 972 q 946 916 949 941 q 943 869 943 891 q 948 813 943 839 q 961 757 953 787 l 930 755 m 707 1120 q 701 1089 707 1103 q 685 1064 695 1075 q 661 1048 675 1054 q 631 1042 647 1042 q 600 1048 614 1042 q 575 1064 586 1054 q 559 1089 565 1075 q 553 1120 553 1103 q 559 1149 553 1135 q 575 1174 565 1164 q 600 1191 586 1185 q 631 1198 614 1198 q 661 1191 647 1198 q 685 1174 675 1185 q 701 1149 695 1164 q 707 1120 707 1135 z "},"Ę":{"ha":1023,"x_min":66,"x_max":961,"o":"m 961 -151 q 951 -202 961 -178 q 923 -244 941 -227 q 882 -273 905 -262 q 831 -283 858 -283 q 767 -273 796 -283 q 717 -242 739 -262 q 684 -194 696 -222 q 672 -131 672 -165 q 686 -76 672 -103 q 724 -26 700 -50 q 625 -35 677 -35 q 411 -1 512 -35 q 234 93 311 32 q 113 240 158 154 q 66 433 68 327 q 105 631 68 543 q 202 784 141 719 q 343 893 262 850 q 515 957 424 936 q 626 972 564 968 q 751 975 688 975 q 866 974 812 975 q 957 972 920 972 q 946 916 949 941 q 943 869 943 891 q 948 813 943 839 q 961 757 953 787 l 930 755 q 879 831 911 798 q 809 888 848 865 q 726 923 770 911 q 640 935 683 935 q 552 918 593 935 q 475 872 511 901 q 410 804 439 844 q 359 719 381 764 q 323 623 337 673 q 302 522 309 572 l 880 522 q 859 462 866 494 q 848 404 851 431 q 843 342 844 372 l 821 338 q 799 410 812 381 q 760 454 786 438 q 691 477 734 471 q 579 484 648 484 l 298 484 l 298 454 q 311 347 298 399 q 348 246 324 294 q 406 158 372 198 q 484 89 441 118 q 577 43 526 59 q 685 26 628 26 q 776 36 736 26 q 844 61 815 46 q 892 94 873 76 q 925 128 912 112 q 944 157 938 144 q 954 174 951 170 l 943 78 q 897 36 928 56 q 825 0 867 15 q 775 -61 791 -26 q 760 -131 760 -96 q 766 -179 760 -157 q 783 -215 772 -200 q 806 -237 793 -229 q 833 -245 819 -245 q 874 -235 857 -245 q 903 -209 891 -224 q 920 -177 914 -193 q 926 -151 926 -161 l 961 -151 z "},"Ě":{"ha":1023,"x_min":66,"x_max":961,"o":"m 930 755 q 879 831 911 798 q 809 888 848 865 q 726 923 770 911 q 640 935 683 935 q 552 918 593 935 q 475 872 511 901 q 410 804 439 844 q 359 719 381 764 q 323 623 337 673 q 302 522 309 572 l 880 522 q 859 462 866 494 q 848 404 851 431 q 843 342 844 372 l 821 338 q 799 410 812 381 q 760 454 786 438 q 691 477 734 471 q 579 484 648 484 l 298 484 l 298 454 q 311 347 298 399 q 348 246 324 294 q 406 158 372 198 q 484 89 441 118 q 577 43 526 59 q 685 26 628 26 q 776 36 736 26 q 844 61 815 46 q 892 94 873 76 q 925 128 912 112 q 944 157 938 144 q 954 174 951 170 l 943 78 q 898 36 928 56 q 827 0 868 16 q 735 -25 786 -16 q 625 -35 684 -35 q 411 -1 512 -35 q 234 93 311 32 q 113 240 158 154 q 66 433 68 327 q 105 631 68 543 q 202 784 141 719 q 343 893 262 850 q 515 957 424 936 q 626 972 564 968 q 751 975 688 975 q 866 974 812 975 q 957 972 920 972 q 946 916 949 941 q 943 869 943 891 q 948 813 943 839 q 961 757 953 787 l 930 755 m 444 1244 l 558 1244 l 656 1109 l 744 1244 l 801 1244 l 671 1046 l 579 1046 l 444 1244 z "},"Ĝ":{"ha":1164,"x_min":66,"x_max":1125,"o":"m 497 411 q 547 454 516 430 q 623 499 578 478 q 725 534 667 520 q 852 549 782 549 q 952 536 903 549 q 1039 496 1001 524 q 1101 424 1078 468 q 1125 315 1125 379 q 1103 217 1125 263 q 1041 132 1080 171 q 949 62 1002 93 q 835 10 896 31 q 709 -23 774 -12 q 578 -35 643 -35 q 441 -20 507 -35 q 319 21 376 -6 q 216 89 262 49 q 136 181 170 130 q 85 297 103 233 q 66 433 66 360 q 87 571 68 507 q 139 688 106 635 q 217 786 172 742 q 315 863 262 829 q 426 920 368 897 q 543 957 484 943 q 596 966 568 963 q 656 972 625 970 q 720 975 687 974 q 785 975 752 975 q 902 974 846 975 q 996 972 958 972 q 985 916 988 941 q 982 869 982 891 q 987 813 982 839 q 1000 757 991 787 l 970 755 q 917 832 949 799 q 845 887 884 865 q 761 920 806 909 q 673 930 717 930 q 547 907 602 930 q 450 846 492 884 q 379 758 408 808 q 333 655 351 709 q 307 549 315 602 q 298 452 298 496 q 325 282 298 360 q 398 148 351 205 q 508 60 444 92 q 646 28 571 28 q 739 40 699 28 q 807 73 779 53 q 856 120 836 94 q 886 176 875 147 q 902 233 897 204 q 907 285 907 261 q 894 359 907 324 q 857 421 881 395 q 797 463 832 448 q 715 478 761 478 q 642 468 675 478 q 582 444 608 457 q 537 416 555 430 q 511 395 519 401 l 497 411 m 827 1050 l 713 1050 l 615 1185 l 528 1050 l 471 1050 l 602 1249 l 693 1249 l 827 1050 z "},"Ğ":{"ha":1164,"x_min":66,"x_max":1125,"o":"m 497 411 q 547 454 516 430 q 623 499 578 478 q 725 534 667 520 q 852 549 782 549 q 952 536 903 549 q 1039 496 1001 524 q 1101 424 1078 468 q 1125 315 1125 379 q 1103 217 1125 263 q 1041 132 1080 171 q 949 62 1002 93 q 835 10 896 31 q 709 -23 774 -12 q 578 -35 643 -35 q 441 -20 507 -35 q 319 21 376 -6 q 216 89 262 49 q 136 181 170 130 q 85 297 103 233 q 66 433 66 360 q 87 571 68 507 q 139 688 106 635 q 217 786 172 742 q 315 863 262 829 q 426 920 368 897 q 543 957 484 943 q 596 966 568 963 q 656 972 625 970 q 720 975 687 974 q 785 975 752 975 q 902 974 846 975 q 996 972 958 972 q 985 916 988 941 q 982 869 982 891 q 987 813 982 839 q 1000 757 991 787 l 970 755 q 917 832 949 799 q 845 887 884 865 q 761 920 806 909 q 673 930 717 930 q 547 907 602 930 q 450 846 492 884 q 379 758 408 808 q 333 655 351 709 q 307 549 315 602 q 298 452 298 496 q 325 282 298 360 q 398 148 351 205 q 508 60 444 92 q 646 28 571 28 q 739 40 699 28 q 807 73 779 53 q 856 120 836 94 q 886 176 875 147 q 902 233 897 204 q 907 285 907 261 q 894 359 907 324 q 857 421 881 395 q 797 463 832 448 q 715 478 761 478 q 642 468 675 478 q 582 444 608 457 q 537 416 555 430 q 511 395 519 401 l 497 411 m 807 1225 q 791 1157 804 1190 q 755 1098 777 1124 q 702 1057 732 1072 q 635 1042 671 1042 q 568 1057 598 1042 q 517 1099 538 1073 q 482 1158 495 1125 q 467 1225 469 1191 l 503 1225 q 530 1180 513 1200 q 571 1148 546 1162 q 635 1135 596 1135 q 704 1148 677 1135 q 746 1180 730 1162 q 772 1225 764 1200 l 807 1225 z "}}}
